<svg width="184" height="69" viewBox="0 0 184 69" fill="none" xmlns="http://www.w3.org/2000/svg">
<path d="M70.3043 47.7152C71.1822 46.8591 72.2225 46.1853 73.3646 45.7331C74.5966 45.2506 75.9106 45.0097 77.2345 45.0236C78.5584 45.0129 79.8697 45.2807 81.0824 45.8095C82.3098 46.3583 83.4144 47.1458 84.3314 48.1256L87.2909 45.3227C86.0636 43.9269 84.528 42.833 82.8045 42.1268C80.9628 41.3818 78.9899 41.0107 77.0019 41.0353C75.0973 41.0182 73.2062 41.3543 71.4253 42.0264C69.7622 42.6537 68.2426 43.6069 66.9565 44.8293C65.6898 46.0397 64.6862 47.496 64.0081 49.108C62.6039 52.5593 62.6039 56.4187 64.0081 59.8701C64.6864 61.4897 65.6913 62.9537 66.9606 64.1717C68.23 65.3897 69.7368 66.3359 71.388 66.9516C73.1749 67.6196 75.0714 67.9498 76.98 67.9252C78.983 67.9499 80.9701 67.5681 82.8199 66.8032C84.5358 66.0863 86.0649 64.9896 87.2909 63.5964L84.3248 60.7935C83.4156 61.792 82.3097 62.5938 81.0758 63.1489C79.8626 63.6759 78.5516 63.9429 77.2279 63.9326C75.904 63.9476 74.5897 63.7066 73.358 63.2231C72.2185 62.7763 71.1808 62.106 70.3068 61.2521C69.4329 60.3982 68.7404 59.3781 68.2706 58.2525C67.2936 55.8301 67.2936 53.1261 68.2706 50.7037C68.7422 49.583 69.4336 48.5671 70.3043 47.7152Z" fill="#F2662B"/>
<path d="M99.2508 39.8665H94.3336V67.1269H99.2508V39.8665Z" fill="#F2662B"/>
<path d="M136.929 48.8104C135.583 48.1659 134.103 47.8458 132.61 47.8761C131.01 47.8479 129.426 48.1996 127.99 48.9021C127.11 49.3437 126.331 49.9612 125.701 50.7161V48.0966H121.494V68.0162H125.851V57.8523C125.851 56.5076 126.095 55.3804 126.583 54.4709C127.039 53.5941 127.753 52.8772 128.63 52.4167C129.559 51.943 130.59 51.7053 131.634 51.7247C133.212 51.7247 134.432 52.1795 135.295 53.089C136.158 53.9986 136.59 55.3499 136.592 57.1428V68.0184H141.023V56.6189C141.023 54.628 140.657 52.9842 139.926 51.6876C139.243 50.4483 138.198 49.4449 136.929 48.8104Z" fill="#F2662B"/>
<path d="M180.359 52.3948C179.627 50.9423 178.45 49.7584 176.998 49.0134C175.536 48.2537 173.84 47.8739 171.911 47.8739C169.984 47.8447 168.08 48.2949 166.372 49.1837C164.782 50.0075 163.456 51.2565 162.541 52.79C161.642 54.3987 161.17 56.209 161.17 58.0498C161.17 59.8906 161.642 61.701 162.541 63.3097C163.451 64.8518 164.778 66.1077 166.372 66.9335C168.079 67.8233 169.984 68.2735 171.911 68.2433C173.837 68.2433 175.533 67.8576 176.998 67.0863C178.44 66.3362 179.614 65.1613 180.359 63.7223L177.018 61.7052C176.463 62.5853 175.686 63.3061 174.765 63.7965C173.869 64.25 172.877 64.4807 171.872 64.4689C170.752 64.4835 169.647 64.2138 168.662 63.6852C167.708 63.1728 166.92 62.4014 166.389 61.4607C165.816 60.4134 165.532 59.2341 165.564 58.0422C165.531 56.8557 165.815 55.6818 166.389 54.6411C166.925 53.7095 167.712 52.9457 168.662 52.4363C169.647 51.9077 170.752 51.638 171.872 51.6526C172.879 51.6414 173.873 51.8784 174.765 52.3424C175.684 52.8453 176.459 53.5724 177.018 54.4556L180.359 52.3948Z" fill="#F2662B"/>
<path d="M172.869 62.3677V59.0408H176.213V57.0827H172.869V53.7558H170.904V57.0827H167.558V59.0408H170.904V62.3677H172.869Z" fill="#F2662B"/>
<path d="M171.888 40.2605L178.576 46.5737H183.407L171.888 35.7068L166.206 41.0682V38.6385H163.935V43.2097L160.368 46.5737H165.196L171.888 40.2605Z" fill="#F2662B"/>
<path d="M112.559 47.9951H108.202V67.9126H112.559V47.9951Z" fill="#F2662B"/>
<path d="M110.379 45.2415C111.87 45.2415 113.079 44.0383 113.079 42.5542C113.079 41.0701 111.87 39.867 110.379 39.867C108.887 39.867 107.678 41.0701 107.678 42.5542C107.678 44.0383 108.887 45.2415 110.379 45.2415Z" fill="#F2662B"/>
<path d="M154.236 48.086H149.879V68.0035H154.236V48.086Z" fill="#F2662B"/>
<path d="M152.056 45.3324C153.547 45.3324 154.756 44.1293 154.756 42.6451C154.756 41.161 153.547 39.9579 152.056 39.9579C150.564 39.9579 149.355 41.161 149.355 42.6451C149.355 44.1293 150.564 45.3324 152.056 45.3324Z" fill="#F2662B"/>
<path d="M42.1286 22.7781C42.1278 19.2554 41.2305 15.7903 39.5203 12.7059C37.8101 9.62147 35.3427 7.01827 32.3483 5.13903C29.354 3.2598 25.9301 2.16575 22.396 1.95892C18.8619 1.75209 15.3328 2.4392 12.1376 3.95619C8.94253 5.47318 6.18552 7.77063 4.12375 10.6343C2.06198 13.4979 0.762594 16.8345 0.346775 20.3328C-0.0690432 23.8312 0.412249 27.3773 1.74577 30.6406C3.07929 33.9038 5.22159 36.7779 7.97291 38.9947V22.2451C7.97291 18.9173 20.0806 11.2069 21.2463 10.8991C22.4119 10.5913 27.401 13.9191 28.727 14.6004C30.053 15.2817 35.823 18.8423 35.0534 19.8558C34.2838 20.8693 32.258 20.0773 30.7038 19.379C29.1495 18.6808 21.7046 14.668 21.1595 14.9026C20.6144 15.1372 16.4439 18.5288 15.1858 21.697C13.9277 24.8653 16.4892 27.8346 19.9844 27.4517C23.4795 27.0688 27.0275 21.8885 28.4724 21.0063C30.534 19.7732 31.9336 22.3202 31.9336 22.3202C25.9165 25.2557 26.505 32.2678 23.1702 33.668C19.8354 35.0682 17.9869 37.2192 17.9869 38.5236V43.383C22.5856 44.0932 27.291 43.2549 31.3564 41.0011L40.8253 43.2534L39.105 33.5667C41.0855 30.3134 42.1313 26.5818 42.1286 22.7781ZM31.5658 14.0674C31.4291 14.2277 31.2369 14.331 31.0272 14.3567C30.8175 14.3825 30.6058 14.3288 30.434 14.2063L25.5695 11.496C26.7238 11.3684 30.0964 10.9329 31.5167 12.0891C32.3825 12.7817 31.9977 13.5606 31.5582 14.0674H31.5658Z" fill="#F2662B"/>
<path d="M166.238 3.59872L161.357 28.1312L156.613 27.6192L157.146 2.61595L166.238 3.59872Z" fill="#145A35"/>
<path d="M157.466 38.562C159.876 38.562 161.83 36.618 161.83 34.2199C161.83 31.8219 159.876 29.8779 157.466 29.8779C155.056 29.8779 153.103 31.8219 153.103 34.2199C153.103 36.618 155.056 38.562 157.466 38.562Z" fill="#F2662B"/>
<path d="M60.7062 35.134C57.0771 35.134 54.0465 33.9583 51.6143 31.607C49.1822 29.2557 47.9668 26.3342 47.9684 22.8425C47.9684 19.3523 49.1837 16.4308 51.6143 14.0779C54.045 11.7251 57.0756 10.5464 60.7062 10.5418C62.9352 10.5125 65.1348 11.0508 67.0959 12.1055C68.9614 13.1018 70.5224 14.5805 71.6141 16.3856L65.7505 19.9562C65.2617 19.0791 64.5442 18.3493 63.6737 17.8437C62.7787 17.3167 61.7554 17.0442 60.7154 17.0561C59.9486 17.0346 59.1855 17.1711 58.4743 17.4572C57.763 17.7433 57.1189 18.1728 56.5826 18.7185C55.5243 19.8371 54.935 21.3154 54.935 22.8517C54.935 24.3879 55.5243 25.8662 56.5826 26.9848C57.1189 27.5306 57.763 27.96 58.4743 28.2461C59.1855 28.5322 59.9486 28.6688 60.7154 28.6473C61.7557 28.6568 62.7788 28.3828 63.6737 27.8551C64.5437 27.3488 65.261 26.6192 65.7505 25.7426L71.6233 29.2695C70.5376 31.0853 68.9757 32.5728 67.1051 33.5726C65.1411 34.6281 62.9381 35.1657 60.7062 35.134Z" fill="#145A35"/>
<path d="M87.9646 10.482C90.6722 10.5998 92.8174 11.5068 94.4004 13.203C95.9834 14.8991 96.7157 17.0942 96.5972 19.7884L95.9903 34.1718L89.2476 33.8778L89.7553 21.7631C89.8168 20.3395 89.4538 19.1838 88.6661 18.2959C87.8785 17.408 86.8016 16.9335 85.4355 16.8723C83.9771 16.808 82.7772 17.1945 81.8357 18.0318C80.8942 18.8692 80.3927 20.0058 80.3311 21.4417L79.7704 34.1718L73.0231 33.8778L74.4791 0.75531L81.2242 1.05152L80.6911 13.1961C82.6664 11.2611 85.0909 10.3564 87.9646 10.482Z" fill="#145A35"/>
<path d="M140.276 12.6349C143.528 12.6349 146.238 13.8075 148.405 16.1526C150.573 18.4978 151.657 21.4232 151.659 24.9287C151.659 28.4327 150.574 31.358 148.405 33.7047C146.236 36.0514 143.526 37.2232 140.276 37.2202C137.43 37.2202 135.058 36.2543 133.161 34.3224V45.2431H126.409V13.1975H133.161V15.535C135.058 13.5939 137.43 12.6272 140.276 12.6349ZM134.811 29.0641C135.92 30.1306 137.402 30.7268 138.944 30.7268C140.486 30.7268 141.968 30.1306 143.077 29.0641C144.134 27.945 144.723 26.4669 144.723 24.931C144.723 23.3951 144.134 21.9169 143.077 20.7978C141.968 19.7313 140.486 19.1352 138.944 19.1352C137.402 19.1352 135.92 19.7313 134.811 20.7978C133.753 21.9164 133.164 23.3947 133.164 24.931C133.164 26.4672 133.753 27.9456 134.811 29.0641Z" fill="#145A35"/>
<path d="M114.77 10.1524L115.37 23.2843C115.43 24.6023 115.08 25.6792 114.32 26.515C113.56 27.3508 112.518 27.8001 111.195 27.8629C109.871 27.9226 108.788 27.5705 107.946 26.8066C107.105 26.0428 106.656 25.0026 106.601 23.6861L105.994 10.5542L99.2491 10.8619L99.9091 24.9146C100.048 27.9088 101.178 30.2685 103.299 31.9937C105.422 33.7182 107.593 34.5035 110.949 34.3496C112.596 34.2738 115.056 33.1556 115.94 32.306L116.092 34.143L122.636 33.8399L122.175 23.8928L122.041 20.9973L121.524 9.84009L114.77 10.1524Z" fill="#145A35"/>
</svg>
