<svg width="27" height="28" viewBox="0 0 27 28" fill="none" xmlns="http://www.w3.org/2000/svg">
<path d="M13.6462 0.960449C20.8458 0.960449 26.6819 6.79654 26.6819 13.9962C26.6819 21.1958 20.8458 27.0319 13.6462 27.0319C11.3425 27.0356 9.07935 26.4259 7.08924 25.2655L0.615706 27.0319L2.37813 20.5557C1.21677 18.565 0.606643 16.3009 0.610492 13.9962C0.610492 6.79654 6.44658 0.960449 13.6462 0.960449ZM9.20364 7.86938L8.94292 7.87981C8.77414 7.89009 8.60918 7.93443 8.45799 8.01016C8.31658 8.09024 8.1875 8.19035 8.07474 8.30738C7.91831 8.45468 7.82967 8.58243 7.73451 8.70627C7.25235 9.33316 6.99274 10.1028 6.99669 10.8937C6.9993 11.5324 7.16615 12.1542 7.42687 12.7356C7.96003 13.9114 8.83733 15.1563 9.9949 16.31C10.2739 16.5877 10.5476 16.8666 10.8422 17.126C12.2806 18.3924 13.9946 19.3057 15.8479 19.7931L16.5884 19.9066C16.8295 19.9196 17.0707 19.9013 17.3132 19.8896C17.6928 19.87 18.0635 19.7672 18.399 19.5885C18.5697 19.5006 18.7363 19.4049 18.8983 19.3017C18.8983 19.3017 18.9543 19.2652 19.0612 19.1844C19.2372 19.054 19.3454 18.9615 19.4914 18.809C19.5996 18.6968 19.6935 18.5652 19.7652 18.4153C19.8668 18.2028 19.9685 17.7974 20.0102 17.4598C20.0415 17.2016 20.0324 17.0609 20.0285 16.9735C20.0233 16.834 19.9073 16.6893 19.7808 16.6281L19.0221 16.2878C19.0221 16.2878 17.888 15.7938 17.1945 15.4783C17.122 15.4466 17.0442 15.4285 16.9651 15.4249C16.8759 15.4157 16.7858 15.4258 16.7008 15.4543C16.6158 15.4829 16.5379 15.5293 16.4723 15.5904C16.4658 15.5878 16.3785 15.6621 15.436 16.8041C15.3819 16.8767 15.3074 16.9317 15.222 16.9619C15.1365 16.992 15.044 16.9961 14.9563 16.9735C14.8714 16.9508 14.7882 16.922 14.7073 16.8875C14.5457 16.8197 14.4896 16.7936 14.3788 16.7467C13.6307 16.4202 12.938 15.9791 12.3257 15.4392C12.1614 15.2958 12.0089 15.1394 11.8525 14.9882C11.3396 14.497 10.8927 13.9414 10.5228 13.3353L10.4459 13.2114C10.3907 13.1282 10.346 13.0384 10.313 12.9442C10.2634 12.7526 10.3925 12.5987 10.3925 12.5987C10.3925 12.5987 10.7093 12.252 10.8566 12.0643C11 11.8818 11.1212 11.7045 11.1994 11.578C11.3532 11.3304 11.4015 11.0762 11.3206 10.8793C10.9556 9.98768 10.5776 9.09995 10.1891 8.21873C10.1122 8.04406 9.8841 7.91891 9.67683 7.89415C9.60644 7.88632 9.53605 7.8785 9.46565 7.87329C9.29059 7.86459 9.11517 7.86633 8.94031 7.8785L9.20233 7.86807L9.20364 7.86938Z" fill="white"/>
</svg>
