<svg width="185" height="68" viewBox="0 0 185 68" fill="none" xmlns="http://www.w3.org/2000/svg">
<path d="M70.6252 47.3026C71.5096 46.4401 72.5577 45.7613 73.7083 45.3057C74.9494 44.8196 76.2733 44.5769 77.607 44.5909C78.9408 44.5802 80.2618 44.85 81.4836 45.3827C82.72 45.9355 83.8329 46.7289 84.7568 47.7161L87.7382 44.8922C86.5018 43.4861 84.9548 42.384 83.2185 41.6726C81.363 40.9221 79.3755 40.5482 77.3727 40.5729C75.4539 40.5557 73.5487 40.8943 71.7546 41.5714C70.0791 42.2034 68.5482 43.1637 67.2525 44.3952C65.9763 45.6146 64.9653 47.0817 64.2821 48.7057C62.8675 52.1827 62.8675 56.071 64.2821 59.548C64.9655 61.1797 65.9779 62.6546 67.2567 63.8817C68.5355 65.1088 70.0535 66.062 71.717 66.6823C73.5172 67.3553 75.4278 67.6879 77.3506 67.6632C79.3685 67.688 81.3704 67.3033 83.234 66.5328C84.9627 65.8106 86.5031 64.7057 87.7382 63.3021L84.7501 60.4783C83.8342 61.4843 82.72 62.292 81.4769 62.8512C80.2547 63.3821 78.9339 63.6512 77.6004 63.6408C76.2666 63.6559 74.9425 63.4131 73.7017 62.926C72.5536 62.4759 71.5083 61.8006 70.6278 60.9403C69.7473 60.08 69.0497 59.0523 68.5764 57.9183C67.5921 55.478 67.5921 52.7538 68.5764 50.3134C69.0515 49.1843 69.748 48.1608 70.6252 47.3026Z" fill="white"/>
<path d="M99.7871 39.4009H94.8334V66.8643H99.7871V39.4009Z" fill="white"/>
<path d="M137.751 48.4213C136.395 47.772 134.904 47.4495 133.399 47.48C131.787 47.4516 130.192 47.8059 128.745 48.5136C127.858 48.9585 127.073 49.5807 126.439 50.3412V47.7021H122.2V67.7702H126.59V57.5305C126.59 56.1758 126.836 55.0403 127.328 54.1239C127.787 53.2406 128.506 52.5184 129.39 52.0544C130.325 51.5773 131.365 51.3378 132.416 51.3573C134.005 51.3573 135.235 51.8154 136.104 52.7318C136.974 53.6481 137.409 55.0095 137.411 56.8158V67.7724H141.875V56.288C141.875 54.2823 141.507 52.6262 140.77 51.3199C140.082 50.0714 139.029 49.0605 137.751 48.4213Z" fill="white"/>
<path d="M181.493 52.0286C180.755 50.5653 179.569 49.3725 178.107 48.622C176.633 47.8567 174.925 47.474 172.981 47.474C171.04 47.4446 169.122 47.8982 167.401 48.7935C165.8 49.6235 164.463 50.8818 163.542 52.4267C162.636 54.0474 162.161 55.8712 162.161 57.7258C162.161 59.5803 162.636 61.4041 163.542 63.0248C164.458 64.5784 165.795 65.8436 167.401 66.6756C169.121 67.572 171.04 68.0256 172.981 67.9951C174.922 67.9951 176.63 67.6066 178.107 66.8295C179.559 66.0738 180.742 64.8902 181.493 63.4405L178.127 61.4084C177.567 62.295 176.785 63.0212 175.857 63.5153C174.954 63.9721 173.954 64.2045 172.942 64.1926C171.814 64.2074 170.701 63.9356 169.708 63.4031C168.747 62.8868 167.953 62.1097 167.419 61.1621C166.841 60.107 166.555 58.9189 166.588 57.7181C166.554 56.5227 166.841 55.34 167.419 54.2916C167.958 53.3531 168.752 52.5836 169.708 52.0704C170.701 51.5379 171.814 51.2661 172.942 51.2809C173.956 51.2696 174.958 51.5083 175.857 51.9758C176.783 52.4824 177.564 53.215 178.127 54.1047L181.493 52.0286Z" fill="white"/>
<path d="M173.943 62.071V58.7194H177.311V56.7467H173.943V53.395H171.963V56.7467H168.592V58.7194H171.963V62.071H173.943Z" fill="white"/>
<path d="M172.957 39.7971L179.696 46.1573H184.562L172.957 35.2095L167.233 40.6108V38.1631H164.945V42.7683L161.351 46.1573H166.216L172.957 39.7971Z" fill="white"/>
<path d="M113.192 47.5903H108.803V67.6562H113.192V47.5903Z" fill="white"/>
<path d="M110.992 44.8144C112.495 44.8144 113.713 43.6023 113.713 42.1072C113.713 40.612 112.495 39.3999 110.992 39.3999C109.49 39.3999 108.272 40.612 108.272 42.1072C108.272 43.6023 109.49 44.8144 110.992 44.8144Z" fill="white"/>
<path d="M155.192 47.6895H150.802V67.7553H155.192V47.6895Z" fill="white"/>
<path d="M152.992 44.9136C154.494 44.9136 155.713 43.7015 155.713 42.2063C155.713 40.7111 154.494 39.499 152.992 39.499C151.489 39.499 150.271 40.7111 150.271 42.2063C150.271 43.7015 151.489 44.9136 152.992 44.9136Z" fill="white"/>
<path d="M42.239 22.1815C42.2382 18.6325 41.3342 15.1416 39.6112 12.0342C37.8883 8.92679 35.4026 6.30419 32.3859 4.41096C29.3693 2.51773 25.9199 1.41553 22.3595 1.20716C18.7991 0.998783 15.2437 1.69102 12.0248 3.21931C8.80592 4.7476 6.0284 7.06216 3.95128 9.94715C1.87416 12.8321 0.565108 16.1936 0.146195 19.718C-0.272718 23.2424 0.212156 26.8149 1.5556 30.1025C2.89904 33.39 5.0573 36.2855 7.82908 38.5189V21.6445C7.82908 18.2919 20.0269 10.5241 21.2012 10.214C22.3756 9.90386 27.4018 13.2564 28.7377 13.9428C30.0735 14.6292 35.8864 18.2163 35.1111 19.2373C34.3358 20.2584 32.2949 19.4605 30.7291 18.7571C29.1633 18.0536 21.663 14.0109 21.1138 14.2473C20.5646 14.4836 16.3632 17.9005 15.0957 21.0923C13.8282 24.2842 16.4088 27.2756 19.9299 26.8898C23.4511 26.5041 27.0255 21.2852 28.4811 20.3965C30.5581 19.1541 31.9681 21.7201 31.9681 21.7201C25.9063 24.6775 26.4992 31.7419 23.1395 33.1525C19.7798 34.5631 17.9176 36.7301 17.9176 38.0442V42.9398C22.5505 43.6553 27.2909 42.8108 31.3866 40.5402L40.9259 42.8093L39.1929 33.0504C41.1881 29.7728 42.2417 26.0135 42.239 22.1815ZM31.5976 13.4058C31.4599 13.5673 31.2662 13.6714 31.0549 13.6973C30.8437 13.7233 30.6304 13.6691 30.4574 13.5457L25.5566 10.8153C26.7196 10.6867 30.1172 10.248 31.5481 11.4128C32.4204 12.1105 32.0327 12.8953 31.5899 13.4058H31.5976Z" fill="white"/>
<path d="M167.276 2.86411L162.359 27.5794L157.579 27.0635L158.116 1.87402L167.276 2.86411Z" fill="white"/>
<path d="M158.433 38.0858C160.861 38.0858 162.829 36.1273 162.829 33.7114C162.829 31.2954 160.861 29.3369 158.433 29.3369C156.005 29.3369 154.037 31.2954 154.037 33.7114C154.037 36.1273 156.005 38.0858 158.433 38.0858Z" fill="white"/>
<path d="M60.958 34.6344C57.3019 34.6344 54.2487 33.45 51.7985 31.0812C49.3482 28.7124 48.1238 25.7691 48.1254 22.2514C48.1254 18.7352 49.3497 15.7919 51.7985 13.4215C54.2472 11.0512 57.3004 9.86368 60.958 9.85906C63.2036 9.82952 65.4195 10.3718 67.3952 11.4344C69.2747 12.4381 70.8472 13.9278 71.9471 15.7464L66.0399 19.3436C65.5473 18.4599 64.8246 17.7247 63.9476 17.2153C63.0459 16.6844 62.015 16.4099 60.9673 16.4219C60.1947 16.4002 59.426 16.5378 58.7094 16.826C57.9929 17.1142 57.344 17.5469 56.8036 18.0967C55.7375 19.2236 55.1439 20.7129 55.1439 22.2606C55.1439 23.8083 55.7375 25.2977 56.8036 26.4246C57.344 26.9744 57.9929 27.407 58.7094 27.6953C59.426 27.9835 60.1947 28.1211 60.9673 28.0994C62.0153 28.109 63.046 27.833 63.9476 27.3013C64.8241 26.7913 65.5467 26.0562 66.0399 25.1731L71.9564 28.7263C70.8625 30.5556 69.289 32.0542 67.4045 33.0614C65.4259 34.1248 63.2065 34.6664 60.958 34.6344Z" fill="white"/>
<path d="M88.4128 9.79911C91.1405 9.91786 93.3018 10.8316 94.8966 12.5404C96.4913 14.2491 97.2291 16.4606 97.1097 19.1749L96.4983 33.6654L89.7054 33.3693L90.2168 21.1643C90.2788 19.7301 89.9131 18.5657 89.1196 17.6713C88.3261 16.7768 87.2412 16.2987 85.8649 16.237C84.3957 16.1722 83.1868 16.5616 82.2383 17.4052C81.2898 18.2488 80.7846 19.3939 80.7226 20.8405L80.1577 33.6654L73.3601 33.3693L74.827 0L81.6223 0.298415L81.0852 12.5334C83.0752 10.5841 85.5178 9.67265 88.4128 9.79911Z" fill="white"/>
<path d="M141.117 11.9683C144.393 11.9683 147.123 13.1496 149.307 15.5123C151.491 17.8749 152.583 20.8221 152.585 24.3537C152.585 27.8838 151.492 30.8309 149.307 33.1951C147.122 35.5593 144.392 36.7398 141.117 36.7367C138.25 36.7367 135.86 35.7636 133.95 33.8174V44.8194H127.147V12.5351H133.95V14.89C135.86 12.9345 138.25 11.9606 141.117 11.9683ZM135.612 28.5199C136.729 29.5944 138.222 30.195 139.775 30.195C141.329 30.195 142.822 29.5944 143.939 28.5199C145.004 27.3925 145.597 25.9034 145.597 24.356C145.597 22.8086 145.004 21.3195 143.939 20.1921C142.822 19.1176 141.329 18.517 139.775 18.517C138.222 18.517 136.729 19.1176 135.612 20.1921C134.546 21.319 133.952 22.8083 133.952 24.356C133.952 25.9037 134.546 27.393 135.612 28.5199Z" fill="white"/>
<path d="M115.421 9.46891L116.026 22.6986C116.086 24.0265 115.734 25.1114 114.968 25.9534C114.202 26.7955 113.153 27.2481 111.82 27.3113C110.486 27.3715 109.395 27.0168 108.547 26.2472C107.699 25.4777 107.248 24.4297 107.192 23.1035L106.58 9.87373L99.7852 10.1837L100.45 24.3411C100.59 27.3576 101.728 29.7349 103.865 31.473C106.004 33.2102 108.191 34.0014 111.572 33.8464C113.231 33.7701 115.71 32.6435 116.6 31.7876L116.753 33.6382L123.346 33.3328L122.882 23.3117L122.747 20.3946L122.226 9.1543L115.421 9.46891Z" fill="white"/>
</svg>
