<svg width="295" height="70" viewBox="0 0 295 70" fill="none" xmlns="http://www.w3.org/2000/svg">
<path d="M193.453 41.0002L194.853 44.27L196.968 37.569L199.075 46.2559L200.709 40.9675L202.028 44.1153L202.744 42.8902H206.298C206.186 41.7664 205.834 40.6793 205.266 39.701C204.548 38.4755 203.508 37.4672 202.256 36.7843C200.958 36.0761 199.498 35.712 198.016 35.727C195.641 35.727 193.655 36.5023 192.061 38.053C190.685 39.3717 189.851 41.1494 189.719 43.0428H192.355L193.453 41.0002Z" fill="#F2662B"/>
<path d="M201.897 46.4772L200.871 44.0553L198.951 50.2309L196.836 41.4961L194.997 47.3077L193.338 43.4253L192.972 44.0945H189.707C189.714 45.1221 189.928 46.1379 190.337 47.0823C190.745 48.0268 191.339 48.8808 192.084 49.5944C193.679 51.1451 195.664 51.9196 198.04 51.9182C199.521 51.9375 200.983 51.5731 202.279 50.8609C203.533 50.1813 204.574 49.1731 205.289 47.9464C205.999 46.7295 206.373 45.3481 206.372 43.9419H203.378L201.897 46.4772Z" fill="#F2662B"/>
<path d="M219.54 44.6441C219.326 44.3453 219.066 44.0812 218.771 43.8615C218.484 43.6399 218.18 43.4417 217.861 43.2686C217.514 43.0934 217.152 42.9475 216.78 42.8326C216.341 42.6888 215.983 42.5798 215.682 42.5057C215.381 42.4315 215.023 42.3443 214.57 42.2462C214.173 42.159 213.867 42.0871 213.654 42.0283C213.441 41.9694 213.178 41.8996 212.863 41.8103C212.618 41.7429 212.38 41.6509 212.154 41.5356C211.98 41.4384 211.814 41.3299 211.655 41.2108C211.496 41.1006 211.37 40.95 211.29 40.7748C211.218 40.6068 211.182 40.4256 211.185 40.2429C211.185 39.7314 211.446 39.3412 211.969 39.0723C212.592 38.7848 213.274 38.6481 213.96 38.6734C215.453 38.6668 216.897 39.2044 218.017 40.1841L219.821 37.7862C218.157 36.4159 216.051 35.6855 213.889 35.7283C212.833 35.7119 211.782 35.8847 210.787 36.2384C209.905 36.5551 209.13 37.1118 208.551 37.845C207.966 38.5988 207.66 39.5295 207.685 40.4805C207.675 41.3013 207.904 42.1076 208.345 42.8021C208.555 43.1111 208.817 43.3818 209.12 43.6021C209.41 43.8229 209.717 44.0205 210.038 44.1929C210.387 44.3652 210.748 44.5109 211.119 44.6289C211.558 44.7742 211.925 44.8854 212.218 44.9624C212.507 45.0365 212.877 45.1281 213.338 45.2371C213.799 45.3461 214.151 45.4333 214.403 45.503C214.656 45.5728 214.953 45.6643 215.282 45.7842C215.554 45.8707 215.813 45.9947 216.051 46.1526C216.224 46.2842 216.373 46.4451 216.49 46.6278C216.616 46.8165 216.681 47.0384 216.677 47.2644C216.677 47.7963 216.389 48.2126 215.814 48.5135C215.132 48.8383 214.382 48.9974 213.626 48.9778C212.769 48.9936 211.919 48.8409 211.122 48.5285C210.326 48.216 209.6 47.7501 208.986 47.1576L207.211 49.5554C208.993 51.1235 211.304 51.9687 213.685 51.9228C214.809 51.94 215.927 51.7493 216.98 51.3604C217.904 51.0198 218.713 50.4274 219.313 49.6514C219.728 49.0835 220.006 48.4289 220.127 47.7378C220.247 47.0467 220.206 46.3374 220.007 45.6643C219.902 45.3036 219.744 44.9599 219.54 44.6441Z" fill="#F2662B"/>
<path d="M235.515 36.7843C234.336 36.0784 232.983 35.7122 231.607 35.7271C230.531 35.714 229.467 35.9475 228.498 36.4094C227.564 36.8566 226.749 37.5152 226.119 38.3321V36.0977H222.688V57.3059H226.119V49.2991C226.752 50.1197 227.569 50.7832 228.505 51.2371C229.472 51.6977 230.534 51.9304 231.607 51.9172C232.983 51.9331 234.337 51.5669 235.515 50.8599C236.687 50.157 237.641 49.1481 238.274 47.9432C238.931 46.6673 239.273 45.255 239.273 43.8221C239.273 42.3893 238.931 40.977 238.274 39.701C237.64 38.4969 236.686 37.4881 235.515 36.7843ZM234.366 47.2479C233.447 48.1355 232.215 48.6322 230.932 48.6322C229.65 48.6322 228.418 48.1355 227.499 47.2479C226.613 46.3226 226.119 45.0951 226.119 43.8189C226.119 42.5427 226.613 41.3152 227.499 40.3899C228.415 39.4971 229.648 38.9969 230.932 38.9969C232.216 38.9969 233.449 39.4971 234.366 40.3899C235.248 41.3172 235.739 42.5439 235.739 43.8189C235.739 45.0938 235.248 46.3206 234.366 47.2479Z" fill="#F2662B"/>
<path d="M244.808 36.0977H241.379V51.5488H244.808V36.0977Z" fill="#F2662B"/>
<path d="M253.267 32.0898H249.851V36.1009H247.215V39.1702H249.851V47.0178C249.851 48.5568 250.269 49.7557 251.105 50.6146C251.942 51.4735 253.179 51.9022 254.818 51.9008C255.808 51.9173 256.787 51.6991 257.674 51.2642V48.1077C257.013 48.4443 256.283 48.6262 255.541 48.6396C254.814 48.6396 254.256 48.4609 253.862 48.099C253.469 47.7372 253.274 47.2053 253.274 46.4946V39.1702H257.667V36.1009H253.274L253.267 32.0898Z" fill="#F2662B"/>
<path d="M272.206 38.2977C270.844 36.5814 269.025 35.7232 266.747 35.7232C265.374 35.7061 264.022 36.068 262.844 36.7685C261.665 37.4691 260.706 38.4807 260.073 39.6907C259.422 40.9708 259.082 42.3851 259.082 43.8194C259.082 45.2537 259.422 46.6679 260.073 47.9481C260.707 49.1573 261.666 50.1682 262.845 50.8683C264.023 51.5684 265.374 51.9302 266.747 51.9133C269.015 51.9133 270.834 51.0501 272.206 49.3236V51.5515H275.636V36.1004H272.206V38.2977ZM270.842 47.2353C270.399 47.689 269.866 48.0464 269.277 48.2847C268.687 48.523 268.054 48.637 267.417 48.6195C266.777 48.6373 266.14 48.5236 265.546 48.2854C264.952 48.0471 264.414 47.6896 263.966 47.2353C263.08 46.3083 262.587 45.0794 262.587 43.8019C262.587 42.5244 263.08 41.2956 263.966 40.3686C264.415 39.9147 264.952 39.5575 265.546 39.3193C266.14 39.0811 266.777 38.9671 267.417 38.9844C268.054 38.9673 268.687 39.0815 269.276 39.3198C269.866 39.558 270.399 39.9152 270.842 40.3686C271.719 41.3003 272.206 42.5274 272.206 43.8019C272.206 45.0765 271.719 46.3036 270.842 47.2353Z" fill="#F2662B"/>
<path d="M281.605 29.7227H278.176V51.5522H281.605V29.7227Z" fill="#F2662B"/>
<path d="M183.633 39.3328H173.297V30.6328H169.672V51.5446H173.297V42.7225H183.633V51.5446H187.227V30.6328H183.633V39.3328Z" fill="#F2662B"/>
<path d="M49.124 32.3837C49.1227 28.2924 48.0772 24.2681 46.0852 20.686C44.0931 17.1039 41.2193 14.0808 37.7318 11.8985C34.2443 9.71615 30.2566 8.44577 26.1406 8.20578C22.0247 7.9658 17.9145 8.76402 14.1934 10.526C10.4724 12.288 7.26154 14.9564 4.86042 18.2823C2.45931 21.6082 0.946103 25.4834 0.461915 29.5463C-0.0222724 33.6093 0.538331 37.7278 2.09145 41.5177C3.64456 45.3076 6.1396 48.6455 9.34389 51.2202V31.7667C9.34389 27.8996 23.4475 18.9468 24.8051 18.5871C26.1628 18.2274 31.9734 22.0945 33.5177 22.8858C35.0621 23.6771 41.7822 27.8146 40.8859 28.9896C39.9896 30.1645 37.6258 29.249 35.82 28.4468C34.0142 27.6446 25.339 22.9752 24.7041 23.2455C24.0692 23.5158 19.212 27.4571 17.7467 31.1389C16.2815 34.8208 19.2647 38.265 23.3355 37.8203C27.4062 37.3756 31.5384 31.3613 33.2212 30.3367C35.6245 28.9024 37.2545 31.8627 37.2545 31.8627C30.2467 35.272 30.9321 43.4161 27.0481 45.0423C23.1641 46.6685 21.0046 49.158 21.0046 50.6752V56.3211C26.3622 57.142 31.8427 56.1678 36.5801 53.5527L47.6082 56.1685L45.6091 44.9202C47.9157 41.1397 49.1315 36.8031 49.124 32.3837ZM36.8218 22.2689C36.662 22.4544 36.438 22.5736 36.1939 22.6031C35.9499 22.6325 35.7036 22.5701 35.5037 22.4281L29.8468 19.2694C31.1913 19.1211 35.1192 18.6154 36.7734 19.9582C37.7752 20.7735 37.327 21.676 36.8218 22.2689Z" fill="#F2662B"/>
<path d="M165.694 22.1205L161.048 45.4127L156.531 44.9244L157.037 21.1875L165.694 22.1205Z" fill="#145A35"/>
<path d="M157.877 56.1311C160.171 56.1311 162.031 54.2855 162.031 52.0089C162.031 49.7323 160.171 47.8867 157.877 47.8867C155.583 47.8867 153.723 49.7323 153.723 52.0089C153.723 54.2855 155.583 56.1311 157.877 56.1311Z" fill="#F2662B"/>
<path d="M64.4646 52.0092C61.0083 52.0092 58.1231 50.8923 55.8091 48.6587C53.4951 46.425 52.3374 43.6515 52.3359 40.338C52.3359 37.0246 53.4937 34.251 55.8091 32.0173C58.1246 29.7837 61.0097 28.6676 64.4646 28.669C66.5863 28.6418 68.68 29.1519 70.5476 30.1513C72.323 31.0981 73.8088 32.5016 74.849 34.2147L69.2581 37.587C68.7927 36.7543 68.1097 36.0615 67.2809 35.5815C66.4284 35.0821 65.4545 34.8235 64.4646 34.8338C63.7341 34.814 63.0074 34.9441 62.3299 35.2161C61.6525 35.488 61.039 35.8959 60.5279 36.4142C59.5209 37.4764 58.9603 38.8797 58.9603 40.338C58.9603 41.7963 59.5209 43.1997 60.5279 44.2618C61.0391 44.7798 61.6527 45.1874 62.3301 45.459C63.0076 45.7305 63.7343 45.8603 64.4646 45.8401C65.4543 45.8511 66.4283 45.5933 67.2809 45.0945C68.1097 44.6145 68.7927 43.9217 69.2581 43.089L74.849 46.4395C73.8141 48.1624 72.3275 49.5743 70.5476 50.5247C68.6802 51.5248 66.5865 52.0358 64.4646 52.0092Z" fill="#145A35"/>
<path d="M90.6751 28.9567C93.2527 29.0701 95.295 29.9319 96.8021 31.5421C98.3091 33.1523 99.0062 35.2363 98.8934 37.794L98.3135 51.4467L91.8922 51.1612L92.3755 39.66C92.434 38.3114 92.0877 37.2142 91.3364 36.3684C90.585 35.5226 89.5599 35.0728 88.2608 35.019C86.8724 34.958 85.7301 35.3213 84.8338 36.109C83.9375 36.8966 83.4593 37.9808 83.3992 39.3614L82.8676 51.4467L76.4375 51.1612L77.8259 19.7227L84.2472 20.0017L83.7397 31.5421C85.6261 29.7008 87.9379 28.839 90.6751 28.9567Z" fill="#145A35"/>
<path d="M140.794 30.8555C143.889 30.8555 146.469 31.9679 148.534 34.1929C150.599 36.4178 151.631 39.195 151.631 42.5245C151.631 45.8525 150.599 48.6296 148.534 50.856C146.469 53.0824 143.889 54.1957 140.794 54.1957C138.087 54.1957 135.829 53.2779 134.022 51.4424V61.81H127.594V31.3874H134.022V33.6065C135.827 31.771 138.085 30.854 140.794 30.8555ZM135.59 46.4505C136.646 47.4631 138.057 48.0291 139.526 48.0291C140.994 48.0291 142.405 47.4631 143.461 46.4505C144.468 45.3881 145.028 43.9848 145.028 42.5267C145.028 41.0685 144.468 39.6652 143.461 38.6028C142.405 37.5902 140.994 37.0242 139.526 37.0242C138.057 37.0242 136.646 37.5902 135.59 38.6028C134.584 39.6652 134.023 41.0685 134.023 42.5267C134.023 43.9848 134.584 45.3881 135.59 46.4505Z" fill="#145A35"/>
<path d="M116.145 28.9843L116.723 41.4534C116.78 42.7017 116.447 43.7241 115.723 44.5205C115 45.3169 114.008 45.7427 112.749 45.7979C111.488 45.8575 110.457 45.524 109.656 44.7973C108.855 44.0707 108.426 43.0825 108.368 41.8327L107.791 29.3571L101.367 29.6492L101.987 42.9902C102.119 45.8328 103.194 48.073 105.214 49.7108C107.233 51.3479 109.302 52.0935 112.494 51.9496C114.063 51.8776 116.407 50.816 117.248 50.0073L117.393 51.7512L123.623 51.4613L123.184 42.0201L123.056 39.2713L122.567 28.7031L116.145 28.9843Z" fill="#145A35"/>
<path d="M243.09 33.4761C244.249 33.4761 245.188 32.5441 245.188 31.3943C245.188 30.2446 244.249 29.3125 243.09 29.3125C241.931 29.3125 240.992 30.2446 240.992 31.3943C240.992 32.5441 241.931 33.4761 243.09 33.4761Z" fill="#F2662B"/>
</svg>
