<svg width="38" height="38" viewBox="0 0 38 38" fill="none" xmlns="http://www.w3.org/2000/svg">
<path d="M37.4123 18.7057C37.4113 15.5458 36.6103 12.4377 35.0841 9.67113C33.5578 6.90457 31.356 4.56968 28.6841 2.88421C26.0121 1.19873 22.9569 0.217573 19.8034 0.0322228C16.6499 -0.153128 13.5009 0.463368 10.65 1.82422C7.79902 3.18507 5.33903 5.24596 3.49939 7.81468C1.65976 10.3834 0.500404 13.3763 0.12944 16.5143C-0.241525 19.6523 0.187986 22.8331 1.37792 25.7602C2.56785 28.6873 4.47944 31.2653 6.93444 33.2538V18.2292C6.93444 15.2425 17.74 8.32786 18.7802 8.05007C19.8204 7.77227 24.2722 10.759 25.4554 11.3702C26.6387 11.9813 31.7873 15.1768 31.1006 16.0843C30.4139 16.9917 28.6029 16.2846 27.2193 15.6651C25.8358 15.0455 19.1892 11.4392 18.7028 11.6479C18.2164 11.8567 14.495 14.9007 13.3723 17.7443C12.2497 20.5879 14.5354 23.2481 17.6542 22.9046C20.773 22.5611 23.9389 17.916 25.2282 17.1247C27.0695 16.0169 28.3184 18.3033 28.3184 18.3033C22.9493 20.9364 23.4744 27.2264 20.4987 28.4824C17.5229 29.7384 15.8684 31.6611 15.8684 32.8329V37.1934C19.9732 37.8274 24.1721 37.075 27.8017 35.0552L36.2509 37.0756L34.7193 28.3881C36.4865 25.4683 37.4181 22.1189 37.4123 18.7057ZM27.9868 10.8937C27.8644 11.0369 27.6928 11.129 27.5058 11.1518C27.3188 11.1745 27.1301 11.1263 26.977 11.0166L22.6429 8.57703C23.673 8.46255 26.6824 8.07195 27.9498 9.10906C28.7173 9.73873 28.3739 10.4357 27.9868 10.8937Z" fill="#F2662B"/>
</svg>
