<svg width="359" height="21" viewBox="0 0 359 21" fill="none" xmlns="http://www.w3.org/2000/svg">
<path opacity="0.5" d="M33.9106 3.67176C33.9411 3.67165 210.466 2.97131 226.544 3.00091C239.512 3.02479 252.536 2.88951 265.433 3.4761C267.935 3.58991 273.47 4.17913 272.022 5.06937C270.64 5.91891 242.202 10.3976 241.919 10.4362C225.582 12.6657 209.012 13.356 192.048 13.9581C139.534 15.8221 86.9718 14.8828 34.3628 15.2719C26.718 15.3284 19.1958 15.6097 11.6887 16.2502C9.37514 16.4476 7.03244 16.6702 4.7766 16.977C4.18514 17.0574 2.76845 17.0138 3.03243 17.2565C4.63041 18.7258 10.5205 17.5698 14.2726 17.536C106.262 16.7082 198.228 13.1815 290.045 10.7716C312.095 10.1928 334.037 9.65349 356 8.70314" stroke="#115934" stroke-width="6" stroke-linecap="round"/>
</svg>
