<svg width="163" height="46" viewBox="0 0 163 46" fill="none" xmlns="http://www.w3.org/2000/svg">
<path fill-rule="evenodd" clip-rule="evenodd" d="M17.831 1.05055C13.4833 1.57052 10.1418 2.49816 6.97844 4.06346C5.12253 4.98187 3.67209 5.95947 2.47595 7.09809C0.845827 8.65012 0.116354 9.99173 0.0133099 11.6276C-0.0825733 13.1505 0.320092 13.7008 1.85937 14.1511C2.28396 14.2754 2.35915 14.2676 2.56803 14.0775C2.7805 13.8841 2.79471 13.7875 2.7259 13.0059C2.58605 11.4164 3.13304 10.0681 4.45728 8.73788C6.08203 7.10585 8.73879 5.70618 11.594 4.97827C18.0982 3.32014 24.8678 3.95004 28.2494 6.52794C29.5846 7.54593 30.194 8.85772 30.194 10.7145C30.194 11.2938 30.138 12.0362 30.0695 12.3642C29.8961 13.1947 29.3068 14.4266 28.7507 15.1206C27.4775 16.7101 24.8389 18.0199 21.8986 18.522C20.3108 18.793 17.2812 18.9532 17.1699 18.7719C17.0153 18.5203 17.4723 12.8072 17.9533 8.97846L18.2414 6.68434L18.016 6.4575C17.7976 6.23797 17.7271 6.23448 15.8029 6.34734C14.0047 6.45288 13.7976 6.48619 13.6276 6.69717C13.4589 6.9068 13.4351 7.50565 13.3925 12.6137C13.3665 15.7396 13.3155 18.3271 13.2791 18.3635C13.1796 18.4637 10.7155 17.8835 9.39767 17.4496C8.02621 16.9983 7.65297 16.9711 7.47296 17.3094C7.28813 17.6567 7.42954 18.4757 7.77929 19.0838C8.96189 21.14 10.9514 22.9897 12.6136 23.5784C12.9362 23.6926 13.2541 23.8405 13.3203 23.907C13.4006 23.9878 13.4172 24.4694 13.3703 25.3581C13.3317 26.0896 13.2544 28.4604 13.1985 30.6265C13.0898 34.8462 12.9309 36.3962 12.4647 37.7819C12.319 38.2151 12.0671 38.7446 11.905 38.9583L11.6101 39.347H12.5728C14.5231 39.347 15.9475 38.7399 16.5082 37.6696C16.7641 37.1814 16.7681 37.1187 16.7681 33.6652C16.7681 31.7355 16.8012 28.8699 16.8414 27.2972L16.9146 24.4377L19.4986 24.4321C21.0202 24.4287 22.4505 24.3674 22.9776 24.2829C27.0677 23.6276 29.9521 22.0596 32.3427 19.192C34.0671 17.1238 34.9175 14.7727 34.9226 12.0602C34.9282 9.1109 34.1004 6.78426 32.3912 4.94598C30.5568 2.97289 27.6681 1.6593 24.0465 1.15126C22.9114 0.992043 18.8683 0.926554 17.831 1.05055ZM83.1251 11.0092C81.805 11.3907 81.0147 12.7313 81.3301 14.0538C81.5302 14.8925 82.3879 15.751 83.2013 15.9264C84.8104 16.2734 86.2695 15.1045 86.2695 13.4681C86.2695 12.2964 85.4366 11.2372 84.3272 10.9979C83.6905 10.8606 83.6373 10.8611 83.1251 11.0092ZM140.836 12.651C140.737 12.9147 136.203 24.4943 132.124 34.9024L130.933 37.9405L133.221 37.971C134.479 37.9877 135.527 37.9821 135.551 37.9585C135.6 37.9087 137.761 32.2278 141.072 23.4455C142.351 20.0531 143.427 17.247 143.464 17.2099C143.501 17.1728 143.547 17.1636 143.567 17.1894C143.645 17.2904 147.782 28.3246 147.782 28.4313C147.782 28.5057 146.326 28.5448 143.56 28.5448H139.338L141.292 30.5123L143.245 32.4796L146.313 32.5096L149.381 32.5394L150.401 35.2399L151.422 37.9405L153.806 37.9708L156.19 38.0012L156.11 37.7458C156.066 37.6054 154.07 32.5028 151.675 26.4069C149.28 20.311 147.062 14.6524 146.747 13.8325L146.175 12.3415H143.563H140.952L140.836 12.651ZM158.187 25.1691V37.9967H160.313H162.439V25.1691V12.3415H160.313H158.187V25.1691ZM70.0801 18.1941C69.1031 18.688 68.6392 19.813 68.6421 21.6809C68.6449 23.4277 68.9768 24.417 69.8984 25.4256L70.1842 25.7384L69.9843 26.9446C69.1016 32.2729 67.4218 34.9741 64.8776 35.1565C64.4776 35.1852 63.9335 35.1497 63.6685 35.0777C62.7048 34.8154 61.9152 33.7831 61.5779 32.3446C61.303 31.172 61.3208 31.1108 62.0395 30.7563C64.8628 29.3636 66.8238 26.8129 67.3126 23.8968C67.6813 21.6977 66.9358 19.6952 65.4975 19.0217C64.82 18.7044 63.6606 18.6631 62.7834 18.9251C61.0673 19.4377 59.4679 21.2896 58.4116 23.9876C57.6333 25.9754 57.3176 27.807 57.4145 29.7732C57.5567 32.6606 58.6444 35.0014 60.5681 36.56C61.4849 37.3028 62.235 37.5781 63.4952 37.6344C65.5077 37.7242 66.8164 37.1857 68.366 35.63C69.2594 34.7331 69.3952 34.5346 70.0634 33.1472C71.0224 31.1562 71.5836 29.3738 72.101 26.6749C72.1418 26.463 72.2427 26.4303 73.0155 26.3788C73.4932 26.3468 73.8995 26.3345 73.9184 26.3515C73.9374 26.3684 73.8532 26.9068 73.7314 27.548C73.3617 29.4936 73.2341 30.8726 73.2381 32.8769C73.2435 35.556 73.5911 36.8142 74.6428 37.9617C76.3946 39.8732 79.2486 39.3326 82.0315 36.5623C83.2944 35.305 84.2729 33.6271 84.9578 31.5447C85.6494 29.4412 85.7191 28.7667 85.7716 23.6782L85.8189 19.0929H83.8052H81.7914L81.7395 24.6909C81.6976 29.1995 81.6535 30.4422 81.5133 31.0766C81.1182 32.8629 80.4326 34.3616 79.5931 35.2735C78.4254 36.5418 77.8445 36.5948 77.3534 35.4778C76.905 34.4583 76.7099 33.2601 76.7006 31.4704C76.6877 28.9526 76.9583 27.6865 78.1936 24.4878C79.1295 22.0643 79.174 21.8553 78.8911 21.2142C78.6111 20.5798 77.8466 19.8806 77.433 19.8806C77.0359 19.8806 76.8662 20.0026 75.1298 21.5387C73.7507 22.7586 72.7688 23.4661 72.6377 23.3342C72.604 23.3002 72.6412 22.5322 72.7205 21.6274C72.921 19.3409 72.6883 18.5464 71.7016 18.1493C71.1001 17.9073 70.6214 17.9205 70.0801 18.1941ZM111.826 18.8271C107.573 19.7444 104.62 23.0414 104.149 27.3998C103.938 29.3515 104.269 31.2728 105.109 32.9632C106.184 35.1296 108.355 37.0447 110.641 37.8443C112.985 38.664 115.924 38.6602 118.339 37.8344C119.923 37.2924 121.832 36.0485 122.68 35.0063L123.053 34.5478L121.711 33.3947L120.369 32.2416L119.671 32.8771C118.882 33.5955 117.547 34.3023 116.455 34.5796C115.582 34.8016 113.841 34.8248 112.984 34.6259C111.899 34.3743 110.787 33.7634 110.038 33.0072C109.344 32.3074 108.691 31.1968 108.554 30.4858L108.484 30.1201H116.155H123.826L123.904 29.5933C124.022 28.8052 123.875 26.9193 123.617 25.9005C122.701 22.2892 119.764 19.5017 116.138 18.8014C115.09 18.5989 112.821 18.6124 111.826 18.8271ZM34.8372 19.131C33.4322 19.6029 32.064 20.7506 31.2662 22.1266C29.8871 24.5051 28.9854 28.3128 29.1065 31.2454C29.3755 37.7514 34.1087 39.8593 36.9241 34.7267C37.1916 34.239 37.4402 33.8384 37.4767 33.8366C37.513 33.8348 37.6069 34.0486 37.6851 34.3116C37.9242 35.1149 38.456 36.0664 38.9354 36.5486C40.1149 37.7348 41.9871 37.8482 43.3329 36.8149L43.8437 36.4229L43.8435 36.9567C43.8428 38.2662 43.6025 40.5052 43.3875 41.2051C42.9454 42.645 41.8243 43.3585 40.4634 43.0661C40.138 42.9962 39.6841 42.8144 39.4546 42.662C39.2253 42.5098 39.0157 42.3851 38.989 42.3851C38.9624 42.3851 38.9068 42.5857 38.8656 42.831C38.6087 44.3602 40.107 45.9858 41.7735 45.9858C42.8673 45.9858 44.1582 45.3591 44.9664 44.4356C46.0239 43.2272 46.6132 41.4521 46.9123 38.5727C47.0047 37.6827 47.107 36.9276 47.1396 36.8949C47.1722 36.8622 47.2872 36.9134 47.3953 37.0087C48.0026 37.5443 49.0671 37.7961 50.0615 37.6392C51.929 37.3448 53.766 35.521 54.8271 32.908C56.2709 29.3522 56.2897 23.9935 54.8671 21.436C53.4803 18.9428 50.6832 18.8162 48.4701 21.1464C48.1321 21.5022 47.834 21.7935 47.8076 21.7935C47.7812 21.7935 47.7596 21.6902 47.7596 21.5639C47.7596 21.1769 47.3482 20.5134 46.9376 20.2383C46.2847 19.8008 45.0297 19.4103 44.6919 19.5395C44.5331 19.6003 44.3958 19.6638 44.3869 19.6808C44.378 19.6978 44.3098 22.522 44.2353 25.9568C44.083 32.9726 44.0785 33.0101 43.274 33.8878C42.7602 34.4484 42.3439 34.6519 41.8151 34.601C41.5023 34.571 41.4002 34.4882 41.2144 34.1147C41.008 33.6995 40.9915 33.4509 41.0004 30.9078C41.0076 28.9106 41.0719 27.6291 41.234 26.257C41.553 23.558 41.4012 22.8973 40.3868 22.5702C39.7975 22.38 39.6283 22.1851 39.3669 21.3952C38.8953 19.9699 37.7192 19.1075 36.1349 19.0251C35.6077 18.9976 35.1146 19.0379 34.8372 19.131ZM88.0372 21.0608V23.0287L92.7199 23.0581L97.4026 23.0875L95.2653 25.7895C89.4625 33.1249 85.8354 37.729 85.7591 37.8561C85.6917 37.9681 87.473 37.9967 94.5198 37.9967H103.365V36.0288V34.0608L98.5083 34.0315L93.6514 34.0022L95.0776 32.2018C100.002 25.9853 105.233 19.3534 105.306 19.2336C105.375 19.1215 103.628 19.0929 96.7147 19.0929H88.0372V21.0608ZM64.3677 22.1561C64.6001 22.4897 64.5978 23.8121 64.3634 24.6142C64.0801 25.5833 63.4206 26.7515 62.8033 27.3776C62.2313 27.9578 61.5585 28.3949 61.4326 28.2682C61.3124 28.1474 61.6179 26.1471 61.9126 25.1241C62.4781 23.1614 63.2853 21.9545 64.06 21.9131C64.1336 21.9092 64.272 22.0185 64.3677 22.1561ZM115.672 22.5392C117.122 22.9489 118.411 24.0413 119.066 25.415C119.282 25.8677 119.489 26.3774 119.525 26.5475L119.592 26.857H114.005H108.418L108.534 26.435C108.728 25.7252 109.248 24.7959 109.79 24.1901C111.282 22.5206 113.452 21.9117 115.672 22.5392ZM36.5489 23.19C36.7151 23.2773 36.9969 23.503 37.1753 23.6917L37.4994 24.0347L37.3621 25.0801C37.1637 26.5895 36.5189 29.5546 36.1203 30.7893C35.3056 33.3134 33.9751 34.9498 32.9484 34.6907C31.9451 34.4374 32.0648 30.5353 33.1834 27.0258C34.1926 23.8597 35.3383 22.5539 36.5489 23.19ZM51.0772 23.9843C51.4196 24.2254 51.7937 25.1039 51.9652 26.0693C52.526 29.225 51.4117 33.7815 49.8444 34.7427C49.3813 35.0267 48.6551 35.0237 48.2916 34.736C47.9303 34.4502 47.591 33.7201 47.425 32.8717C47.2413 31.9323 47.5433 27.5299 47.8533 26.6265C48.2868 25.3639 48.8945 24.4617 49.6056 24.0256C50.01 23.7776 50.7542 23.7566 51.0772 23.9843ZM124.735 35.8588V37.9967H126.86H128.986V35.8588V33.7209H126.86H124.735V35.8588Z" fill="white"/>
</svg>
