<svg width="112" height="57" viewBox="0 0 112 57" fill="none" xmlns="http://www.w3.org/2000/svg">
<path d="M34.1461 17.7596C34.1456 15.3463 33.531 12.9725 32.3597 10.8596C31.1885 8.74657 29.4987 6.96323 27.4479 5.67586C25.3972 4.38848 23.0523 3.639 20.6319 3.49731C18.2116 3.35562 15.7945 3.82633 13.6063 4.86555C11.4181 5.90477 9.52991 7.47864 8.11787 9.4404C6.70583 11.4021 5.81593 13.6879 5.53115 16.0844C5.24637 18.481 5.57599 20.9103 6.48927 23.1458C7.40255 25.3813 8.86975 27.3502 10.754 28.8688V17.3944C10.754 15.1147 19.0462 9.8327 19.8445 9.62183C20.6428 9.41097 24.0597 11.6907 24.9678 12.1574C25.876 12.6242 29.8276 15.0633 29.3006 15.7576C28.7735 16.4519 27.3861 15.9093 26.3216 15.431C25.2572 14.9527 20.1584 12.2037 19.7851 12.3644C19.4117 12.5251 16.5555 14.8486 15.6939 17.019C14.8323 19.1894 16.5866 21.2235 18.9803 20.9612C21.374 20.6989 23.8039 17.1501 24.7934 16.5458C26.2054 15.701 27.1639 17.4459 27.1639 17.4459C23.043 19.4568 23.4461 24.2605 21.1621 25.2197C18.8782 26.1789 17.6123 27.6524 17.6123 28.5461V31.875C20.7618 32.3615 23.9843 31.7873 26.7686 30.2433L33.2535 31.7863L32.0754 25.1503C33.4317 22.9216 34.148 20.3653 34.1461 17.7596ZM26.912 11.7922C26.8184 11.9021 26.6867 11.9728 26.5431 11.9905C26.3995 12.0081 26.2545 11.9713 26.1369 11.8874L22.8053 10.0307C23.5959 9.94328 25.9057 9.64498 26.8784 10.437C27.4714 10.9115 27.2078 11.4451 26.9068 11.7922H26.912Z" fill="#F26522"/>
<path d="M102.692 11.7046L99.9598 25.442L97.3038 25.1552L97.6022 11.1543L102.692 11.7046Z" fill="white"/>
<path d="M98.0915 31.7618C99.4406 31.7618 100.534 30.6732 100.534 29.3304C100.534 27.9875 99.4406 26.8989 98.0915 26.8989C96.7424 26.8989 95.6487 27.9875 95.6487 29.3304C95.6487 30.6732 96.7424 31.7618 98.0915 31.7618Z" fill="white"/>
<path d="M43.1628 29.331C41.1312 29.331 39.4346 28.6727 38.073 27.356C36.7115 26.0394 36.0311 24.4034 36.032 22.4482C36.032 20.4938 36.7123 18.8578 38.073 17.5403C39.4338 16.2228 41.1303 15.5628 43.1628 15.5602C44.4106 15.5438 45.642 15.8452 46.7398 16.4358C47.7842 16.9937 48.658 17.8217 49.2692 18.8325L45.9867 20.8319C45.713 20.3408 45.3114 19.9322 44.824 19.649C44.323 19.3539 43.7501 19.2013 43.1679 19.208C42.7386 19.1959 42.3115 19.2724 41.9133 19.4326C41.5152 19.5928 41.1546 19.8333 40.8543 20.1389C40.2619 20.7653 39.932 21.5931 39.932 22.4533C39.932 23.3136 40.2619 24.1414 40.8543 24.7677C41.1546 25.0734 41.5152 25.3138 41.9133 25.474C42.3115 25.6342 42.7386 25.7107 43.1679 25.6987C43.7503 25.704 44.323 25.5506 44.824 25.2551C45.3111 24.9716 45.7126 24.563 45.9867 24.0721L49.2743 26.0471C48.6665 27.0639 47.7922 27.8968 46.745 28.4567C45.6455 29.0477 44.4123 29.3488 43.1628 29.331Z" fill="white"/>
<path d="M58.5758 15.7342C60.0915 15.8002 61.2925 16.3081 62.1786 17.2579C63.0648 18.2076 63.4748 19.4368 63.4084 20.9455L63.0687 28.9997L59.294 28.8351L59.5782 22.0513C59.6127 21.2541 59.4094 20.6069 58.9685 20.1097C58.5276 19.6126 57.9247 19.3468 57.16 19.3125C56.3435 19.2765 55.6718 19.493 55.1447 19.9619C54.6177 20.4308 54.3369 21.0672 54.3025 21.8713L53.9886 28.9997L50.2113 28.8351L51.0264 10.2876L54.8024 10.4535L54.504 17.254C55.6098 16.1705 56.967 15.6639 58.5758 15.7342Z" fill="white"/>
<path d="M88.049 16.8516C89.8696 16.8516 91.3866 17.5082 92.6 18.8214C93.8135 20.1346 94.4206 21.7727 94.4215 23.7357C94.4215 25.6978 93.8143 27.3359 92.6 28.65C91.3857 29.9641 89.8687 30.6202 88.049 30.6185C86.4558 30.6185 85.1282 30.0776 84.0663 28.9959V35.1111H80.2865V17.1666H84.0663V18.4755C85.1282 17.3886 86.4558 16.8473 88.049 16.8516ZM84.99 26.0514C85.6107 26.6486 86.4403 26.9824 87.3036 26.9824C88.1669 26.9824 88.9965 26.6486 89.6172 26.0514C90.2091 25.4248 90.5386 24.5971 90.5386 23.737C90.5386 22.8769 90.2091 22.0492 89.6172 21.4226C88.9965 20.8254 88.1669 20.4915 87.3036 20.4915C86.4403 20.4915 85.6107 20.8254 84.99 21.4226C84.3976 22.0489 84.0677 22.8767 84.0677 23.737C84.0677 24.5972 84.3976 25.425 84.99 26.0514Z" fill="white"/>
<path d="M73.5533 15.7535L73.8892 23.1069C73.9228 23.8449 73.7269 24.448 73.3014 24.916C72.876 25.384 72.293 25.6356 71.5523 25.6708C70.8108 25.7042 70.2045 25.507 69.7335 25.0793C69.2624 24.6516 69.0113 24.0691 68.9803 23.3319L68.6406 15.9785L64.8646 16.1508L65.2341 24.0198C65.3116 25.6965 65.9441 27.0178 67.1318 27.9839C68.3202 28.9495 69.5358 29.3893 71.4141 29.3031C72.3365 29.2607 73.7135 28.6345 74.2083 28.1588L74.2935 29.1874L77.9571 29.0177L77.6988 23.4476L77.6238 21.8263L77.3345 15.5786L73.5533 15.7535Z" fill="white"/>
<path d="M50.9632 42.4479C51.4802 41.9436 52.0928 41.5467 52.7653 41.2804C53.4907 40.9962 54.2645 40.8543 55.0441 40.8625C55.8237 40.8562 56.5958 41.014 57.3099 41.3254C58.0326 41.6486 58.6831 42.1125 59.2231 42.6896L60.9657 41.0387C60.243 40.2165 59.3388 39.5722 58.324 39.1563C57.2394 38.7175 56.0777 38.4989 54.9071 38.5134C53.7856 38.5033 52.672 38.7013 51.6233 39.0971C50.6441 39.4666 49.7492 40.028 48.9919 40.7481C48.246 41.461 47.6551 42.3187 47.2557 43.2682C46.4289 45.3011 46.4289 47.5743 47.2557 49.6072C47.6552 50.5611 48.2469 51.4235 48.9943 52.1409C49.7418 52.8583 50.6291 53.4156 51.6014 53.7783C52.6536 54.1717 53.7703 54.3662 54.8942 54.3517C56.0737 54.3662 57.2437 54.1413 58.333 53.6908C59.3434 53.2686 60.2438 52.6226 60.9657 51.802L59.2192 50.151C58.6838 50.7392 58.0326 51.2114 57.306 51.5384C56.5916 51.8488 55.8196 52.0061 55.0402 52C54.2606 52.0088 53.4867 51.8669 52.7614 51.5821C52.0904 51.3189 51.4794 50.9241 50.9648 50.4212C50.4501 49.9182 50.0424 49.3174 49.7657 48.6544C49.1904 47.2276 49.1904 45.6349 49.7657 44.2081C50.0434 43.548 50.4505 42.9496 50.9632 42.4479Z" fill="white"/>
<path d="M65.1874 37.8047H62.6218V54.1368H65.1874V37.8047Z" fill="white"/>
<path d="M81.6146 42.8239C80.8219 42.4443 79.9505 42.2558 79.071 42.2736C78.1288 42.257 77.1962 42.4642 76.3504 42.8779C75.8322 43.138 75.3736 43.5018 75.0031 43.9464V42.4035H72.5254V54.1363H75.0909V48.1497C75.0909 47.3576 75.2348 46.6937 75.5224 46.158C75.7905 45.6416 76.2111 45.2193 76.7277 44.9481C77.2744 44.6691 77.8819 44.5291 78.4961 44.5405C79.4254 44.5405 80.1441 44.8083 80.6522 45.3441C81.1603 45.8798 81.4148 46.6757 81.4156 47.7318V54.1376H84.0251V47.4232C84.0251 46.2506 83.8098 45.2824 83.3792 44.5186C82.9772 43.7887 82.3618 43.1976 81.6146 42.8239Z" fill="white"/>
<path d="M101.923 44.9361C101.492 44.0806 100.799 43.3832 99.9443 42.9444C99.0831 42.497 98.0845 42.2732 96.9486 42.2732C95.8138 42.2561 94.6926 42.5212 93.6868 43.0447C92.7509 43.5299 91.9698 44.2656 91.4313 45.1688C90.9018 46.1164 90.6239 47.1827 90.6239 48.2669C90.6239 49.3512 90.9018 50.4175 91.4313 51.3651C91.9667 52.2733 92.7484 53.0131 93.6868 53.4995C94.6923 54.0236 95.8137 54.2888 96.9486 54.2709C98.0828 54.2709 99.0814 54.0438 99.9443 53.5895C100.793 53.1477 101.484 52.4557 101.923 51.6081L99.9559 50.42C99.6288 50.9384 99.1715 51.3629 98.6293 51.6518C98.1018 51.9189 97.5171 52.0548 96.9254 52.0478C96.2662 52.0564 95.6157 51.8976 95.0354 51.5862C94.4737 51.2844 94.0096 50.83 93.6971 50.276C93.3598 49.6591 93.1923 48.9645 93.2114 48.2624C93.1916 47.5636 93.3593 46.8721 93.6971 46.2592C94.0127 45.7105 94.4763 45.2606 95.0354 44.9605C95.6157 44.6492 96.2662 44.4903 96.9254 44.4989C97.5183 44.4923 98.1037 44.6319 98.6293 44.9053C99.1704 45.2014 99.6269 45.6297 99.9559 46.1499L101.923 44.9361Z" fill="white"/>
<path d="M97.514 50.8058V48.8463H99.4827V47.6929H97.514V45.7334H96.3565V47.6929H94.3865V48.8463H96.3565V50.8058H97.514Z" fill="white"/>
<path d="M96.9361 37.7842L100.875 41.5027H103.719L96.9361 35.1021L93.5903 38.2599V36.8289H92.2533V39.5213L90.1528 41.5027H92.9961L96.9361 37.7842Z" fill="white"/>
<path d="M70.0821 42.4048H67.5166V54.1363H70.0821V42.4048Z" fill="white"/>
<path d="M68.7991 40.7789C69.6773 40.7789 70.3893 40.0702 70.3893 39.1961C70.3893 38.3219 69.6773 37.6133 68.7991 37.6133C67.9208 37.6133 67.2089 38.3219 67.2089 39.1961C67.2089 40.0702 67.9208 40.7789 68.7991 40.7789Z" fill="white"/>
<path d="M88.6598 42.4048H86.0942V54.1363H88.6598V42.4048Z" fill="white"/>
<path d="M87.3767 40.7789C88.255 40.7789 88.9669 40.0702 88.9669 39.1961C88.9669 38.3219 88.255 37.6133 87.3767 37.6133C86.4985 37.6133 85.7865 38.3219 85.7865 39.1961C85.7865 40.0702 86.4985 40.7789 87.3767 40.7789Z" fill="white"/>
</svg>
