<svg width="126" height="64" viewBox="0 0 126 64" fill="none" xmlns="http://www.w3.org/2000/svg">
<path d="M38.4145 19.9438C38.4139 17.2342 37.7225 14.5689 36.4048 12.1964C35.0872 9.82393 33.1861 7.82159 30.879 6.37612C28.572 4.93064 25.9339 4.08912 23.211 3.93003C20.4881 3.77093 17.769 4.29945 15.3072 5.46629C12.8455 6.63314 10.7213 8.40029 9.13271 10.603C7.54417 12.8056 6.54303 15.3721 6.22265 18.0629C5.90227 20.7538 6.27309 23.4814 7.30054 25.9915C8.32798 28.5015 9.97857 30.7122 12.0984 32.4173V19.5338C12.0984 16.9741 21.427 11.0434 22.3252 10.8067C23.2233 10.5699 27.0672 13.1296 28.0889 13.6536C29.1106 14.1777 33.5562 16.9164 32.9632 17.696C32.3703 18.4756 30.8095 17.8663 29.612 17.3293C28.4144 16.7922 22.6783 13.7056 22.2583 13.8861C21.8383 14.0665 18.6251 16.6753 17.6558 19.1122C16.6864 21.5492 18.66 23.8331 21.3529 23.5386C24.0459 23.2441 26.7795 19.2595 27.8927 18.581C29.4812 17.6325 30.5595 19.5916 30.5595 19.5916C25.9235 21.8495 26.3769 27.2431 23.8075 28.3201C21.2381 29.3971 19.8139 31.0516 19.8139 32.0549V35.7927C23.3571 36.339 26.9825 35.6942 30.1148 33.9606L37.4103 35.6931L36.0849 28.2422C37.6108 25.7398 38.4166 22.8695 38.4145 19.9438ZM30.2761 13.2436C30.1708 13.367 30.0227 13.4464 29.8611 13.4662C29.6996 13.486 29.5364 13.4447 29.4041 13.3505L25.6561 11.2658C26.5455 11.1676 29.144 10.8327 30.2383 11.722C30.9054 12.2547 30.6089 12.8538 30.2703 13.2436H30.2761Z" fill="#F2662B"/>
<path d="M115.529 13.1452L112.455 28.5697L109.467 28.2477L109.803 12.5273L115.529 13.1452Z" fill="#145A35"/>
<path d="M110.353 35.6661C111.871 35.6661 113.101 34.4438 113.101 32.9361C113.101 31.4283 111.871 30.2061 110.353 30.2061C108.835 30.2061 107.605 31.4283 107.605 32.9361C107.605 34.4438 108.835 35.6661 110.353 35.6661Z" fill="#F2662B"/>
<path d="M48.5583 32.9363C46.2727 32.9363 44.3641 32.1971 42.8323 30.7188C41.3006 29.2404 40.5352 27.4036 40.5361 25.2082C40.5361 23.0138 41.3015 21.1769 42.8323 19.6976C44.3631 18.2183 46.2718 17.4772 48.5583 17.4743C49.9621 17.4559 51.3474 17.7944 52.5824 18.4575C53.7574 19.0839 54.7404 20.0136 55.428 21.1485L51.7352 23.3935C51.4273 22.842 50.9754 22.3832 50.4272 22.0653C49.8635 21.7339 49.219 21.5626 48.5641 21.5701C48.0811 21.5566 47.6006 21.6424 47.1526 21.8223C46.7047 22.0022 46.2991 22.2722 45.9613 22.6153C45.2948 23.3186 44.9237 24.2481 44.9237 25.214C44.9237 26.1799 45.2948 27.1093 45.9613 27.8126C46.2991 28.1558 46.7047 28.4258 47.1526 28.6057C47.6006 28.7855 48.0811 28.8714 48.5641 28.8579C49.2192 28.8639 49.8636 28.6916 50.4272 28.3598C50.9751 28.0415 51.4269 27.5828 51.7352 27.0316L55.4338 29.2491C54.75 30.3907 53.7663 31.326 52.5882 31.9546C51.3513 32.6183 49.9639 32.9562 48.5583 32.9363Z" fill="#145A35"/>
<path d="M65.898 17.6702C67.6031 17.7443 68.9542 18.3145 69.9512 19.3809C70.9481 20.4474 71.4093 21.8275 71.3347 23.5215L70.9525 32.5647L66.706 32.38L67.0257 24.763C67.0645 23.8679 66.8358 23.1413 66.3398 22.5831C65.8437 22.0248 65.1655 21.7265 64.3051 21.688C63.3867 21.6475 62.631 21.8906 62.038 22.417C61.4451 22.9435 61.1292 23.6581 61.0905 24.5609L60.7373 32.5647L56.4879 32.38L57.4049 11.5547L61.6529 11.7409L61.3172 19.3766C62.5612 18.1601 64.0881 17.5912 65.898 17.6702Z" fill="#145A35"/>
<path d="M99.0553 18.9239C101.103 18.9239 102.81 19.6611 104.175 21.1356C105.54 22.6101 106.223 24.4493 106.224 26.6534C106.224 28.8565 105.541 30.6957 104.175 32.1712C102.809 33.6466 101.103 34.3834 99.0553 34.3815C97.2629 34.3815 95.7694 33.7742 94.5748 32.5595V39.4257H90.3225V19.2776H94.5748V20.7472C95.7694 19.5268 97.2629 18.919 99.0553 18.9239ZM95.6139 29.2535C96.3123 29.924 97.2455 30.2988 98.2168 30.2988C99.188 30.2988 100.121 29.924 100.82 29.2535C101.485 28.5499 101.856 27.6205 101.856 26.6548C101.856 25.6891 101.485 24.7598 100.82 24.0562C100.121 23.3856 99.188 23.0108 98.2168 23.0108C97.2455 23.0108 96.3123 23.3856 95.6139 24.0562C94.9475 24.7595 94.5763 25.6889 94.5763 26.6548C94.5763 27.6207 94.9475 28.5502 95.6139 29.2535Z" fill="#145A35"/>
<path d="M82.7477 17.6915L83.1256 25.9479C83.1633 26.7766 82.9429 27.4537 82.4643 27.9792C81.9857 28.5047 81.3298 28.7872 80.4966 28.8267C79.6624 28.8642 78.9803 28.6428 78.4503 28.1626C77.9204 27.6823 77.6379 27.0283 77.6031 26.2006L77.2209 17.9441L72.9729 18.1376L73.3885 26.973C73.4757 28.8555 74.1874 30.3392 75.5234 31.4239C76.8604 32.5081 78.228 33.0018 80.3411 32.9051C81.3787 32.8574 82.9279 32.1544 83.4845 31.6202L83.5804 32.7752L87.702 32.5846L87.4113 26.3305L87.327 24.51L87.0015 17.4951L82.7477 17.6915Z" fill="#145A35"/>
<path d="M57.3335 47.6645C57.9151 47.0983 58.6043 46.6527 59.3609 46.3537C60.177 46.0346 61.0475 45.8753 61.9245 45.8845C62.8015 45.8774 63.6702 46.0545 64.4735 46.4042C65.2866 46.7671 66.0184 47.2879 66.6258 47.936L68.5863 46.0823C67.7733 45.1592 66.756 44.4357 65.6144 43.9687C64.3943 43.476 63.0873 43.2306 61.7704 43.2469C60.5087 43.2356 59.2559 43.4578 58.0762 43.9023C56.9745 44.3172 55.9678 44.9475 55.1158 45.756C54.2766 46.5565 53.6118 47.5196 53.1626 48.5856C52.2324 50.8681 52.2324 53.4205 53.1626 55.703C53.612 56.7742 54.2777 57.7424 55.1185 58.5479C55.9594 59.3534 56.9576 59.9791 58.0515 60.3864C59.2352 60.8281 60.4915 61.0465 61.7559 61.0303C63.0828 61.0465 64.3991 60.794 65.6245 60.2882C66.7612 59.8141 67.7742 59.0888 68.5863 58.1674L66.6215 56.3137C66.0192 56.9741 65.2866 57.5043 64.4692 57.8715C63.6655 58.22 62.797 58.3966 61.9201 58.3897C61.0431 58.3997 60.1724 58.2403 59.3565 57.9205C58.6016 57.625 57.9142 57.1817 57.3352 56.617C56.7563 56.0523 56.2975 55.3777 55.9863 54.6333C55.3391 53.0313 55.3391 51.243 55.9863 49.641C56.2988 48.8998 56.7567 48.2279 57.3335 47.6645Z" fill="#F2662B"/>
<path d="M73.3357 42.4502H70.4495V60.788H73.3357V42.4502Z" fill="#F2662B"/>
<path d="M91.8163 48.086C90.9245 47.6598 89.9442 47.4481 88.9548 47.4681C87.8948 47.4495 86.8456 47.6821 85.8941 48.1466C85.3112 48.4387 84.7951 48.8471 84.3783 49.3463V47.6139H81.5909V60.7876H84.4772V54.0658C84.4772 53.1765 84.639 52.431 84.9626 51.8295C85.2642 51.2496 85.7374 50.7755 86.3185 50.471C86.9335 50.1577 87.617 50.0005 88.308 50.0133C89.3534 50.0133 90.162 50.3141 90.7336 50.9156C91.3052 51.5172 91.5915 52.4108 91.5925 53.5966V60.789H94.5281V53.2501C94.5281 51.9334 94.2859 50.8463 93.8015 49.9888C93.3493 49.1692 92.6569 48.5056 91.8163 48.086Z" fill="#F2662B"/>
<path d="M114.664 50.4576C114.178 49.4969 113.399 48.714 112.437 48.2213C111.468 47.7189 110.345 47.4677 109.067 47.4677C107.79 47.4484 106.529 47.7461 105.397 48.3339C104.345 48.8787 103.466 49.7047 102.86 50.7189C102.264 51.7828 101.952 52.98 101.952 54.1974C101.952 55.4148 102.264 56.6121 102.86 57.676C103.462 58.6959 104.342 59.5264 105.397 60.0726C106.529 60.661 107.79 60.9588 109.067 60.9388C110.343 60.9388 111.466 60.6837 112.437 60.1736C113.392 59.6776 114.17 58.9006 114.664 57.9489L112.45 56.6149C112.082 57.197 111.568 57.6737 110.958 57.998C110.364 58.2979 109.707 58.4504 109.041 58.4426C108.299 58.4523 107.567 58.2739 106.915 57.9243C106.283 57.5854 105.761 57.0753 105.409 56.4532C105.03 55.7606 104.841 54.9807 104.863 54.1924C104.84 53.4077 105.029 52.6313 105.409 51.9431C105.764 51.327 106.286 50.8219 106.915 50.485C107.567 50.1354 108.299 49.957 109.041 49.9667C109.708 49.9593 110.366 50.116 110.958 50.4229C111.566 50.7554 112.08 51.2364 112.45 51.8204L114.664 50.4576Z" fill="#F2662B"/>
<path d="M109.703 57.0479V54.8477H111.918V53.5527H109.703V51.3525H108.401V53.5527H106.185V54.8477H108.401V57.0479H109.703Z" fill="#F2662B"/>
<path d="M109.053 42.4276L113.484 46.6027H116.684L109.053 39.416L105.289 42.9617V41.3549H103.785V44.378L101.422 46.6027H104.62L109.053 42.4276Z" fill="#F2662B"/>
<path d="M78.8423 47.6152H75.9561V60.7875H78.8423V47.6152Z" fill="#F2662B"/>
<path d="M77.3989 45.7897C78.3869 45.7897 79.1879 44.994 79.1879 44.0125C79.1879 43.031 78.3869 42.2354 77.3989 42.2354C76.4108 42.2354 75.6099 43.031 75.6099 44.0125C75.6099 44.994 76.4108 45.7897 77.3989 45.7897Z" fill="#F2662B"/>
<path d="M99.7422 47.6152H96.856V60.7875H99.7422V47.6152Z" fill="#F2662B"/>
<path d="M98.2988 45.7897C99.2868 45.7897 100.088 44.994 100.088 44.0125C100.088 43.031 99.2868 42.2354 98.2988 42.2354C97.3107 42.2354 96.5098 43.031 96.5098 44.0125C96.5098 44.994 97.3107 45.7897 98.2988 45.7897Z" fill="#F2662B"/>
</svg>
