<svg width="27" height="20" viewBox="0 0 27 20" fill="none" xmlns="http://www.w3.org/2000/svg">
<path d="M25.7144 -0.00341797H1.71436C1.44914 -0.00341797 1.19478 0.101939 1.00725 0.289475C0.819712 0.477012 0.714355 0.731366 0.714355 0.996582V17.9966C0.714355 18.527 0.925069 19.0357 1.30014 19.4108C1.67521 19.7859 2.18392 19.9966 2.71436 19.9966H24.7144C25.2448 19.9966 25.7535 19.7859 26.1286 19.4108C26.5036 19.0357 26.7144 18.527 26.7144 17.9966V0.996582C26.7144 0.731366 26.609 0.477012 26.4215 0.289475C26.2339 0.101939 25.9796 -0.00341797 25.7144 -0.00341797ZM10.0531 9.99658L2.71436 16.7228V3.27033L10.0531 9.99658ZM11.5331 11.3528L13.0331 12.7341C13.2176 12.9034 13.4589 12.9974 13.7094 12.9974C13.9598 12.9974 14.2011 12.9034 14.3856 12.7341L15.8856 11.3528L23.1356 17.9966H4.28561L11.5331 11.3528ZM17.3756 9.99658L24.7144 3.26908V16.7241L17.3756 9.99658Z" fill="white"/>
</svg>
