<svg width="500" height="118" viewBox="0 0 500 118" fill="none" xmlns="http://www.w3.org/2000/svg">
<path d="M104.893 54.3231C104.891 46.9407 103.003 39.6791 99.4054 33.2153C95.8074 26.7515 90.6166 21.2961 84.317 17.3579C78.0174 13.4198 70.8142 11.127 63.3792 10.6936C55.9442 10.2601 48.5195 11.7001 41.7976 14.8791C35.0756 18.0582 29.2754 22.8728 24.9379 28.874C20.6003 34.8751 17.8666 41.8674 16.9918 49.1986C16.117 56.5298 17.1296 63.9613 19.935 70.7998C22.7405 77.6384 27.2475 83.6614 33.0357 88.3071V53.206C33.0357 46.2322 58.508 30.0741 60.9603 29.429C63.4127 28.7839 73.9088 35.7577 76.6984 37.1855C79.4881 38.6133 91.627 46.0749 90.008 48.1989C88.3889 50.3229 84.127 48.663 80.8572 47.1998C77.5873 45.7366 61.9246 37.3271 60.7778 37.8188C59.631 38.3105 50.8572 45.418 48.2103 52.0575C45.5635 58.6969 50.9524 64.9195 58.3056 64.1171C65.6588 63.3147 73.123 52.4587 76.1627 50.61C80.5 48.0258 83.4445 53.3633 83.4445 53.3633C70.7857 59.5151 72.0238 74.21 65.008 77.1443C57.9921 80.0785 54.1032 84.5861 54.1032 87.3198V97.5032C63.778 98.9916 73.6773 97.2349 82.2302 92.5118L102.151 97.2318L98.5318 76.9319C102.698 70.1141 104.899 62.2942 104.893 54.3231ZM82.6707 36.0685C82.3832 36.4045 81.9787 36.6209 81.5375 36.6749C81.0964 36.7288 80.6509 36.6162 80.2897 36.3595L70.0556 30.6798C72.4841 30.4123 79.5794 29.4998 82.5675 31.9227C84.3889 33.3741 83.5794 35.0065 82.6548 36.0685H82.6707Z" fill="#F2662B"/>
<path d="M315.46 35.7977L307.067 77.8215L298.909 76.9443L299.825 34.1143L315.46 35.7977Z" fill="#145A35"/>
<path d="M301.325 97.1571C305.47 97.1571 308.829 93.827 308.829 89.7192C308.829 85.6113 305.47 82.2812 301.325 82.2812C297.181 82.2812 293.821 85.6113 293.821 89.7192C293.821 93.827 297.181 97.1571 301.325 97.1571Z" fill="#F2662B"/>
<path d="M132.595 89.7197C126.354 89.7197 121.143 87.7059 116.96 83.6781C112.778 79.6504 110.688 74.6459 110.69 68.6646C110.69 62.6859 112.78 57.6814 116.96 53.6511C121.14 49.6207 126.352 47.6016 132.595 47.5937C136.428 47.5435 140.211 48.4656 143.583 50.2723C146.791 51.979 149.476 54.5119 151.353 57.6041L141.27 63.7204C140.429 62.2179 139.195 60.9679 137.698 60.1017C136.159 59.199 134.399 58.7323 132.611 58.7526C131.292 58.7157 129.98 58.9497 128.757 59.4397C127.534 59.9298 126.426 60.6654 125.504 61.6003C123.684 63.5164 122.671 66.0488 122.671 68.6803C122.671 71.3119 123.684 73.8443 125.504 75.7603C126.426 76.6952 127.534 77.4309 128.757 77.9209C129.98 78.411 131.292 78.645 132.611 78.6081C134.4 78.6244 136.159 78.1551 137.698 77.2511C139.194 76.3839 140.428 75.1341 141.27 73.6324L151.369 79.674C149.502 82.7844 146.816 85.3325 143.599 87.0451C140.222 88.8532 136.433 89.774 132.595 89.7197Z" fill="#145A35"/>
<path d="M179.937 48.1284C184.593 48.3303 188.282 49.884 191.004 52.7894C193.726 55.6948 194.985 59.4551 194.782 64.0702L193.738 88.7086L182.143 88.2051L183.016 67.4529C183.122 65.0142 182.497 63.0344 181.143 61.5135C179.788 59.9926 177.937 59.1798 175.587 59.0749C173.079 58.9647 171.016 59.6268 169.397 61.0612C167.778 62.4956 166.915 64.4426 166.81 66.9022L165.845 88.7086L154.242 88.2051L156.746 31.4668L168.345 31.9742L167.429 52.7776C170.825 49.4631 174.995 47.9134 179.937 48.1284Z" fill="#145A35"/>
<path d="M270.476 51.546C276.069 51.546 280.729 53.5546 284.456 57.5718C288.184 61.5891 290.049 66.6001 290.052 72.605C290.052 78.6073 288.187 83.6184 284.456 87.6382C280.726 91.6581 276.066 93.6654 270.476 93.6602C265.582 93.6602 261.504 92.0056 258.242 88.6963V107.403H246.631V52.5096H258.242V56.5138C261.504 53.1888 265.582 51.5329 270.476 51.546ZM261.079 79.689C262.986 81.5159 265.535 82.5371 268.187 82.5371C270.839 82.5371 273.387 81.5159 275.294 79.689C277.112 77.772 278.124 75.24 278.124 72.609C278.124 69.978 277.112 67.446 275.294 65.529C273.387 63.7021 270.839 62.6809 268.187 62.6809C265.535 62.6809 262.986 63.7021 261.079 65.529C259.26 67.4451 258.246 69.9774 258.246 72.609C258.246 75.2405 259.26 77.7729 261.079 79.689Z" fill="#145A35"/>
<path d="M225.952 48.1873L226.984 70.682C227.087 72.9397 226.486 74.7845 225.179 76.2162C223.872 77.6479 222.081 78.4176 219.806 78.5251C217.528 78.6273 215.665 78.0242 214.218 76.7157C212.771 75.4073 212 73.6255 211.905 71.3703L210.861 48.8756L199.262 49.4027L200.397 73.4747C200.635 78.6037 202.578 82.6459 206.226 85.6011C209.877 88.5551 213.611 89.9003 219.381 89.6367C222.214 89.5069 226.444 87.5914 227.964 86.1361L228.226 89.2827L239.48 88.7635L238.687 71.7243L238.456 66.7644L237.568 47.6523L225.952 48.1873Z" fill="#145A35"/>
<path d="M327.692 56.6236C329.1 55.2553 330.769 54.1785 332.602 53.4558C334.578 52.6847 336.686 52.2997 338.81 52.322C340.934 52.3049 343.038 52.7329 344.984 53.5779C346.953 54.455 348.725 55.7135 350.196 57.2795L354.945 52.8C352.975 50.5693 350.512 48.8211 347.747 47.6925C344.792 46.5019 341.627 45.9089 338.437 45.9481C335.381 45.9208 332.347 46.4579 329.49 47.532C326.822 48.5346 324.384 50.0579 322.321 52.0115C320.288 53.9458 318.678 56.2732 317.59 58.8494C315.337 64.3651 315.337 70.533 317.59 76.0487C318.678 78.6372 320.291 80.9769 322.327 82.9235C324.364 84.87 326.781 86.382 329.43 87.3661C332.297 88.4337 335.34 88.9613 338.402 88.9221C341.616 88.9614 344.804 88.3513 347.771 87.1289C350.524 85.9833 352.978 84.2305 354.945 82.004L350.186 77.5245C348.727 79.1203 346.953 80.4017 344.973 81.2888C343.027 82.131 340.923 82.5577 338.8 82.5412C336.676 82.5652 334.567 82.1801 332.591 81.4074C330.763 80.6933 329.098 79.6221 327.696 78.2574C326.294 76.8927 325.183 75.2625 324.429 73.4636C322.861 69.5924 322.861 65.2709 324.429 61.3996C325.185 59.6086 326.295 57.9849 327.692 56.6236Z" fill="#F2662B"/>
<path d="M366.447 44.0225H359.457V88.3361H366.447V44.0225Z" fill="#F2662B"/>
<path d="M379.78 56.502H372.79V88.333H379.78V56.502Z" fill="#F2662B"/>
<path d="M411.207 57.6389C409.047 56.6089 406.673 56.0974 404.277 56.1457C401.709 56.1007 399.168 56.6628 396.864 57.7854C395.452 58.4911 394.203 59.4781 393.193 60.6845V56.4981H386.442V88.3326H393.432V72.0891C393.432 69.9401 393.824 68.1387 394.608 66.6851C395.339 65.2839 396.485 64.1382 397.892 63.4022C399.381 62.6453 401.037 62.2654 402.71 62.2963C405.242 62.2963 407.2 63.0231 408.585 64.4768C409.969 65.9304 410.663 68.0899 410.665 70.9553V88.3361H417.775V70.118C417.775 66.9363 417.188 64.3093 416.015 62.237C414.92 60.2565 413.243 58.6529 411.207 57.6389Z" fill="#F2662B"/>
<path d="M430.403 56.502H423.413V88.333H430.403V56.502Z" fill="#F2662B"/>
<path d="M466.536 63.3728C465.361 61.0514 463.473 59.1594 461.144 57.9687C458.798 56.7547 456.077 56.1476 452.982 56.1476C449.89 56.101 446.835 56.8205 444.095 58.2409C441.545 59.5574 439.417 61.5535 437.949 64.0042C436.507 66.5752 435.75 69.4684 435.75 72.4103C435.75 75.3521 436.507 78.2454 437.949 80.8163C439.408 83.2808 441.538 85.2879 444.095 86.6076C446.835 88.0296 449.89 88.7492 452.982 88.7008C456.072 88.7008 458.793 88.0845 461.144 86.8518C463.457 85.6531 465.341 83.7755 466.536 81.4757L461.176 78.2521C460.285 79.6587 459.039 80.8106 457.561 81.5943C456.124 82.319 454.531 82.6877 452.919 82.6688C451.123 82.6923 449.35 82.2612 447.769 81.4164C446.239 80.5974 444.974 79.3646 444.123 77.8614C443.204 76.1876 442.747 74.3029 442.8 72.3981C442.746 70.5019 443.203 68.6257 444.123 66.9627C444.983 65.4738 446.246 64.2532 447.769 63.439C449.35 62.5943 451.123 62.1632 452.919 62.1866C454.534 62.1687 456.129 62.5474 457.561 63.289C459.036 64.0926 460.279 65.2547 461.176 66.6661L466.536 63.3728Z" fill="#F2662B"/>
<path d="M454.524 79.3001V73.9833H459.888V70.8539H454.524V65.5371H451.37V70.8539H446.002V73.9833H451.37V79.3001H454.524Z" fill="#F2662B"/>
<path d="M452.947 43.965L463.678 54.0543H471.429L452.947 36.6875L443.831 45.2558V41.3728H440.188V48.6782L434.465 54.0543H442.212L452.947 43.965Z" fill="#F2662B"/>
<path d="M376.285 52.0882C378.678 52.0882 380.617 50.1655 380.617 47.7936C380.617 45.4218 378.678 43.499 376.285 43.499C373.892 43.499 371.952 45.4218 371.952 47.7936C371.952 50.1655 373.892 52.0882 376.285 52.0882Z" fill="#F2662B"/>
<path d="M426.908 52.0882C429.301 52.0882 431.241 50.1655 431.241 47.7936C431.241 45.4218 429.301 43.499 426.908 43.499C424.515 43.499 422.576 45.4218 422.576 47.7936C422.576 50.1655 424.515 52.0882 426.908 52.0882Z" fill="#F2662B"/>
</svg>
