<svg width="404" height="96" viewBox="0 0 404 96" fill="none" xmlns="http://www.w3.org/2000/svg">
<path d="M84.7744 44.1952C84.773 38.1892 83.2514 32.2814 80.3514 27.0228C77.4515 21.7641 73.2677 17.3258 68.1902 14.1219C63.1128 10.9179 57.307 9.05267 51.3143 8.70003C45.3217 8.3474 39.3374 9.51888 33.9196 12.1052C28.5017 14.6916 23.8267 18.6086 20.3306 23.4909C16.8345 28.3732 14.6312 34.0618 13.9261 40.0262C13.221 45.9906 14.0371 52.0365 16.2984 57.6C18.5596 63.1636 22.1922 68.0637 26.8575 71.8432V43.2864C26.8575 37.6128 47.3881 24.4672 49.3647 23.9424C51.3414 23.4176 59.8012 29.0912 62.0497 30.2528C64.2981 31.4144 74.0821 37.4848 72.7771 39.2128C71.4722 40.9408 68.0371 39.5904 65.4016 38.4C62.7661 37.2096 50.142 30.368 49.2176 30.768C48.2933 31.168 41.2216 36.9504 39.0883 42.352C36.9549 47.7536 41.2984 52.816 47.225 52.1632C53.1517 51.5104 59.1679 42.6784 61.6179 41.1744C65.1137 39.072 67.487 43.4144 67.487 43.4144C57.284 48.4192 58.2819 60.3744 52.6271 62.7616C46.9723 65.1488 43.8379 68.816 43.8379 71.04V79.3248C51.6358 80.5357 59.6146 79.1065 66.5082 75.264L82.5643 79.104L79.6473 62.5888C83.0056 57.0421 84.7789 50.6802 84.7744 44.1952ZM66.8633 29.344C66.6315 29.6174 66.3055 29.7935 65.95 29.8373C65.5944 29.8812 65.2354 29.7896 64.9442 29.5808L56.6955 24.96C58.6529 24.7424 64.3717 24 66.7801 25.9712C68.2482 27.152 67.5957 28.48 66.8505 29.344H66.8633Z" fill="white"/>
<path d="M254.492 29.1233L247.727 63.3121L241.151 62.5985L241.89 27.7537L254.492 29.1233Z" fill="white"/>
<path d="M243.099 79.0433C246.439 79.0433 249.147 76.3341 249.147 72.9921C249.147 69.6501 246.439 66.9409 243.099 66.9409C239.759 66.9409 237.051 69.6501 237.051 72.9921C237.051 76.3341 239.759 79.0433 243.099 79.0433Z" fill="white"/>
<path d="M107.103 72.9921C102.072 72.9921 97.8719 71.3537 94.5008 68.0769C91.1296 64.8001 89.4451 60.7286 89.4473 55.8625C89.4473 50.9985 91.1318 46.927 94.5008 43.6481C97.8698 40.3692 102.07 38.7265 107.103 38.7201C110.192 38.6792 113.241 39.4294 115.959 40.8993C118.545 42.2877 120.708 44.3484 122.221 46.8641L114.094 51.8401C113.417 50.6177 112.422 49.6007 111.216 48.8961C109.975 48.1616 108.557 47.782 107.115 47.7985C106.052 47.7685 104.995 47.9588 104.009 48.3575C103.023 48.7562 102.13 49.3547 101.387 50.1153C99.9202 51.6741 99.1034 53.7344 99.1034 55.8753C99.1034 58.0162 99.9202 60.0764 101.387 61.6353C102.13 62.3959 103.023 62.9944 104.009 63.3931C104.995 63.7918 106.052 63.9821 107.115 63.9521C108.557 63.9654 109.975 63.5836 111.216 62.8481C112.422 62.1426 113.416 61.1258 114.094 59.9041L122.234 64.8193C120.729 67.3498 118.564 69.4228 115.972 70.8161C113.249 72.2871 110.196 73.0363 107.103 72.9921Z" fill="white"/>
<path d="M145.26 39.1553C149.012 39.3196 151.986 40.5836 154.18 42.9473C156.374 45.311 157.389 48.3702 157.225 52.1249L156.384 72.1697L147.038 71.7601L147.741 54.8769C147.827 52.8929 147.324 51.2822 146.232 50.0449C145.14 48.8076 143.648 48.1462 141.754 48.0609C139.733 47.9713 138.069 48.51 136.765 49.6769C135.46 50.8438 134.764 52.4278 134.679 54.4289L133.902 72.1697L124.55 71.7601L126.568 25.6001L135.917 26.0129L135.178 42.9377C137.916 40.2412 141.276 38.9804 145.26 39.1553Z" fill="white"/>
<path d="M218.235 41.9361C222.742 41.9361 226.498 43.5702 229.503 46.8385C232.507 50.1068 234.01 54.1836 234.012 59.0689C234.012 63.9521 232.509 68.0289 229.503 71.2993C226.496 74.5697 222.74 76.2028 218.235 76.1985C214.29 76.1985 211.003 74.8524 208.374 72.1601V87.3793H199.015V42.7201H208.374V45.9777C211.003 43.2726 214.29 41.9254 218.235 41.9361ZM210.661 64.8321C212.198 66.3184 214.252 67.1492 216.389 67.1492C218.527 67.1492 220.58 66.3184 222.117 64.8321C223.583 63.2725 224.399 61.2126 224.399 59.0721C224.399 56.9316 223.583 54.8717 222.117 53.3121C220.58 51.8258 218.527 50.995 216.389 50.995C214.252 50.995 212.198 51.8258 210.661 53.3121C209.194 54.871 208.377 56.9312 208.377 59.0721C208.377 61.213 209.194 63.2732 210.661 64.8321Z" fill="white"/>
<path d="M182.348 39.2033L183.18 57.5041C183.263 59.3409 182.778 60.8417 181.725 62.0065C180.671 63.1713 179.228 63.7974 177.394 63.8849C175.558 63.9681 174.057 63.4774 172.891 62.4129C171.724 61.3483 171.103 59.8987 171.026 58.0641L170.185 39.7633L160.836 40.1921L161.751 59.7761C161.942 63.9489 163.509 67.2374 166.449 69.6417C169.392 72.0449 172.401 73.1393 177.052 72.9249C179.335 72.8193 182.745 71.2609 183.97 70.0769L184.181 72.6369L193.252 72.2145L192.612 58.3521L192.427 54.3169L191.71 38.7681L182.348 39.2033Z" fill="white"/>
<path d="M264.35 46.0667C265.485 44.9536 266.831 44.0775 268.308 43.4896C269.901 42.8622 271.6 42.549 273.312 42.5671C275.024 42.5533 276.72 42.9015 278.288 43.5889C279.875 44.3024 281.303 45.3263 282.489 46.6003L286.316 42.956C284.729 41.1412 282.743 39.7189 280.515 38.8008C278.133 37.8322 275.582 37.3497 273.011 37.3816C270.548 37.3594 268.103 37.7964 265.8 38.6702C263.649 39.4859 261.684 40.7251 260.021 42.3145C258.383 43.8882 257.085 45.7817 256.208 47.8776C254.393 52.3649 254.393 57.3829 256.208 61.8703C257.086 63.9761 258.385 65.8796 260.026 67.4632C261.668 69.0469 263.616 70.277 265.752 71.0776C268.062 71.9461 270.515 72.3754 272.983 72.3435C275.573 72.3755 278.142 71.8791 280.534 70.8846C282.753 69.9526 284.731 68.5266 286.316 66.7152L282.481 63.0709C281.305 64.3692 279.875 65.4116 278.279 66.1334C276.71 66.8185 275.015 67.1657 273.303 67.1523C271.591 67.1718 269.892 66.8585 268.299 66.2299C266.825 65.6489 265.484 64.7774 264.354 63.6671C263.223 62.5569 262.328 61.2306 261.72 59.7671C260.457 56.6176 260.457 53.1018 261.72 49.9523C262.33 48.4952 263.224 47.1743 264.35 46.0667Z" fill="white"/>
<path d="M295.587 35.8145H289.953V71.8662H295.587V35.8145Z" fill="white"/>
<path d="M306.333 45.968H300.699V71.8644H306.333V45.968Z" fill="white"/>
<path d="M331.664 46.8926C329.923 46.0547 328.009 45.6385 326.078 45.6778C324.009 45.6412 321.961 46.0985 320.103 47.0118C318.965 47.586 317.958 48.3889 317.144 49.3704V45.9645H311.703V71.8638H317.337V58.6488C317.337 56.9004 317.653 55.4349 318.285 54.2523C318.874 53.1123 319.797 52.1802 320.932 51.5815C322.132 50.9657 323.466 50.6566 324.815 50.6817C326.856 50.6817 328.434 51.273 329.55 52.4556C330.666 53.6383 331.225 55.3952 331.227 57.7263V71.8666H336.957V57.0451C336.957 54.4566 336.484 52.3194 335.539 50.6335C334.656 49.0222 333.305 47.7176 331.664 46.8926Z" fill="white"/>
<path d="M347.136 45.968H341.502V71.8644H347.136V45.968Z" fill="white"/>
<path d="M376.259 51.5573C375.312 49.6687 373.79 48.1294 371.913 47.1608C370.022 46.1731 367.829 45.6792 365.334 45.6792C362.842 45.6413 360.38 46.2267 358.171 47.3822C356.116 48.4533 354.401 50.0772 353.218 52.071C352.055 54.1626 351.445 56.5165 351.445 58.9098C351.445 61.3032 352.055 63.6571 353.218 65.7487C354.394 67.7536 356.11 69.3866 358.171 70.4602C360.379 71.6171 362.842 72.2025 365.334 72.1632C367.825 72.1632 370.018 71.6617 371.913 70.6589C373.777 69.6836 375.295 68.1561 376.259 66.2851L371.938 63.6625C371.22 64.8068 370.216 65.744 369.025 66.3816C367.867 66.9712 366.583 67.2712 365.283 67.2558C363.836 67.2748 362.407 66.9241 361.133 66.2369C359.899 65.5706 358.88 64.5676 358.194 63.3447C357.453 61.983 357.085 60.4496 357.127 58.8999C357.084 57.3573 357.452 55.8309 358.194 54.4779C358.887 53.2666 359.905 52.2736 361.133 51.6112C362.407 50.9239 363.836 50.5732 365.283 50.5923C366.585 50.5777 367.871 50.8858 369.025 51.4892C370.213 52.1429 371.216 53.0884 371.938 54.2366L376.259 51.5573Z" fill="white"/>
<path d="M366.577 64.5156V60.1901H370.9V57.6441H366.577V53.3186H364.035V57.6441H359.709V60.1901H364.035V64.5156H366.577Z" fill="white"/>
<path d="M365.306 35.7681L373.955 43.9764H380.202L365.306 29.8474L357.958 36.8182V33.6592H355.022V39.6026L350.409 43.9764H356.653L365.306 35.7681Z" fill="white"/>
<path d="M303.516 42.3765C305.445 42.3765 307.008 40.8122 307.008 38.8826C307.008 36.953 305.445 35.3887 303.516 35.3887C301.587 35.3887 300.024 36.953 300.024 38.8826C300.024 40.8122 301.587 42.3765 303.516 42.3765Z" fill="white"/>
<path d="M344.319 42.3765C346.248 42.3765 347.811 40.8122 347.811 38.8826C347.811 36.953 346.248 35.3887 344.319 35.3887C342.39 35.3887 340.827 36.953 340.827 38.8826C340.827 40.8122 342.39 42.3765 344.319 42.3765Z" fill="white"/>
</svg>
