<svg width="163" height="45" viewBox="0 0 163 45" fill="none" xmlns="http://www.w3.org/2000/svg">
<path fill-rule="evenodd" clip-rule="evenodd" d="M17.831 0.0647146C13.4833 0.584682 10.1418 1.51232 6.97844 3.07762C5.12253 3.99603 3.67209 4.97363 2.47595 6.11225C0.845827 7.66428 0.116354 9.00589 0.0133099 10.6417C-0.0825733 12.1646 0.320092 12.715 1.85937 13.1653C2.28396 13.2895 2.35915 13.2817 2.56803 13.0917C2.7805 12.8983 2.79471 12.8016 2.7259 12.02C2.58605 10.4305 3.13304 9.08229 4.45728 7.75204C6.08203 6.12001 8.73879 4.72034 11.594 3.99243C18.0982 2.3343 24.8678 2.9642 28.2494 5.5421C29.5846 6.56009 30.194 7.87188 30.194 9.72862C30.194 10.308 30.138 11.0503 30.0695 11.3783C29.8961 12.2088 29.3068 13.4407 28.7507 14.1348C27.4775 15.7243 24.8389 17.034 21.8986 17.5361C20.3108 17.8072 17.2812 17.9673 17.1699 17.786C17.0153 17.5344 17.4723 11.8213 17.9533 7.99262L18.2414 5.6985L18.016 5.47166C17.7976 5.25213 17.7271 5.24864 15.8029 5.3615C14.0047 5.46704 13.7976 5.50035 13.6276 5.71133C13.4589 5.92096 13.4351 6.51981 13.3925 11.6279C13.3665 14.7538 13.3155 17.3412 13.2791 17.3777C13.1796 17.4778 10.7155 16.8977 9.39767 16.4638C8.02621 16.0125 7.65297 15.9852 7.47296 16.3236C7.28813 16.6708 7.42954 17.4899 7.77929 18.0979C8.96189 20.1542 10.9514 22.0038 12.6136 22.5926C12.9362 22.7068 13.2541 22.8546 13.3203 22.9211C13.4006 23.0019 13.4172 23.4835 13.3703 24.3722C13.3317 25.1037 13.2544 27.4746 13.1985 29.6406C13.0898 33.8604 12.9309 35.4104 12.4647 36.7961C12.319 37.2293 12.0671 37.7587 11.905 37.9725L11.6101 38.3612H12.5728C14.5231 38.3612 15.9475 37.7541 16.5082 36.6838C16.7641 36.1955 16.7681 36.1329 16.7681 32.6793C16.7681 30.7497 16.8012 27.8841 16.8414 26.3113L16.9146 23.4519L19.4986 23.4463C21.0202 23.4429 22.4505 23.3816 22.9776 23.2971C27.0677 22.6417 29.9521 21.0737 32.3427 18.2062C34.0671 16.1379 34.9175 13.7869 34.9226 11.0744C34.9282 8.12506 34.1004 5.79842 32.3912 3.96014C30.5568 1.98705 27.6681 0.673463 24.0465 0.165423C22.9114 0.00620288 18.8683 -0.0592854 17.831 0.0647146ZM83.1251 10.0233C81.805 10.4049 81.0147 11.7455 81.3301 13.068C81.5302 13.9067 82.3879 14.7651 83.2013 14.9406C84.8104 15.2876 86.2695 14.1187 86.2695 12.4823C86.2695 11.3106 85.4366 10.2514 84.3272 10.0121C83.6905 9.87479 83.6373 9.87524 83.1251 10.0233ZM140.836 11.6651C140.737 11.9289 136.203 23.5085 132.124 33.9165L130.933 36.9546L133.221 36.9851C134.479 37.0019 135.527 36.9963 135.551 36.9726C135.6 36.9229 137.761 31.242 141.072 22.4597C142.351 19.0672 143.427 16.2611 143.464 16.2241C143.501 16.187 143.547 16.1777 143.567 16.2035C143.645 16.3046 147.782 27.3388 147.782 27.4454C147.782 27.5198 146.326 27.559 143.56 27.559H139.338L141.292 29.5264L143.245 31.4938L146.313 31.5237L149.381 31.5535L150.401 34.2541L151.422 36.9546L153.806 36.985L156.19 37.0154L156.11 36.76C156.066 36.6195 154.07 31.517 151.675 25.421C149.28 19.3251 147.062 13.6666 146.747 12.8466L146.175 11.3557H143.563H140.952L140.836 11.6651ZM158.187 24.1833V37.0109H160.313H162.439V24.1833V11.3557H160.313H158.187V24.1833ZM70.0801 17.2082C69.1031 17.7022 68.6392 18.8272 68.6421 20.6951C68.6449 22.4419 68.9768 23.4312 69.8984 24.4397L70.1842 24.7525L69.9843 25.9588C69.1016 31.2871 67.4218 33.9883 64.8776 34.1707C64.4776 34.1994 63.9335 34.1638 63.6685 34.0918C62.7048 33.8295 61.9152 32.7973 61.5779 31.3588C61.303 30.1862 61.3208 30.1249 62.0395 29.7705C64.8628 28.3778 66.8238 25.827 67.3126 22.911C67.6813 20.7119 66.9358 18.7094 65.4975 18.0358C64.82 17.7185 63.6606 17.6772 62.7834 17.9393C61.0673 18.4518 59.4679 20.3037 58.4116 23.0018C57.6333 24.9895 57.3176 26.8212 57.4145 28.7874C57.5567 31.6747 58.6444 34.0155 60.5681 35.5742C61.4849 36.317 62.235 36.5923 63.4952 36.6486C65.5077 36.7384 66.8164 36.1998 68.366 34.6442C69.2594 33.7473 69.3952 33.5488 70.0634 32.1614C71.0224 30.1704 71.5836 28.3879 72.101 25.6891C72.1418 25.4772 72.2427 25.4444 73.0155 25.3929C73.4932 25.361 73.8995 25.3487 73.9184 25.3657C73.9374 25.3826 73.8532 25.921 73.7314 26.5621C73.3617 28.5078 73.2341 29.8867 73.2381 31.8911C73.2435 34.5702 73.5911 35.8284 74.6428 36.9759C76.3946 38.8873 79.2486 38.3468 82.0315 35.5764C83.2944 34.3191 84.2729 32.6413 84.9578 30.5588C85.6494 28.4553 85.7191 27.7809 85.7716 22.6924L85.8189 18.1071H83.8052H81.7914L81.7395 23.7051C81.6976 28.2136 81.6535 29.4563 81.5133 30.0907C81.1182 31.877 80.4326 33.3757 79.5931 34.2876C78.4254 35.556 77.8445 35.609 77.3534 34.492C76.905 33.4725 76.7099 32.2742 76.7006 30.4846C76.6877 27.9668 76.9583 26.7007 78.1936 23.502C79.1295 21.0785 79.174 20.8695 78.8911 20.2283C78.6111 19.5939 77.8466 18.8947 77.433 18.8947C77.0359 18.8947 76.8662 19.0168 75.1298 20.5529C73.7507 21.7727 72.7688 22.4803 72.6377 22.3484C72.604 22.3144 72.6412 21.5463 72.7205 20.6415C72.921 18.3551 72.6883 17.5605 71.7016 17.1634C71.1001 16.9214 70.6214 16.9347 70.0801 17.2082ZM111.826 17.8413C107.573 18.7586 104.62 22.0556 104.149 26.4139C103.938 28.3657 104.269 30.287 105.109 31.9774C106.184 34.1438 108.355 36.0588 110.641 36.8584C112.985 37.6781 115.924 37.6743 118.339 36.8485C119.923 36.3066 121.832 35.0627 122.68 34.0205L123.053 33.562L121.711 32.4088L120.369 31.2558L119.671 31.8912C118.882 32.6097 117.547 33.3164 116.455 33.5938C115.582 33.8158 113.841 33.839 112.984 33.64C111.899 33.3884 110.787 32.7776 110.038 32.0214C109.344 31.3215 108.691 30.2109 108.554 29.5L108.484 29.1343H116.155H123.826L123.904 28.6075C124.022 27.8194 123.875 25.9335 123.617 24.9147C122.701 21.3034 119.764 18.5159 116.138 17.8155C115.09 17.6131 112.821 17.6266 111.826 17.8413ZM34.8372 18.1452C33.4322 18.617 32.064 19.7647 31.2662 21.1408C29.8871 23.5193 28.9854 27.327 29.1065 30.2595C29.3755 36.7656 34.1087 38.8735 36.9241 33.7409C37.1916 33.2532 37.4402 32.8526 37.4767 32.8508C37.513 32.849 37.6069 33.0628 37.6851 33.3258C37.9242 34.1291 38.456 35.0806 38.9354 35.5627C40.1149 36.7489 41.9871 36.8624 43.3329 35.8291L43.8437 35.437L43.8435 35.9708C43.8428 37.2804 43.6025 39.5194 43.3875 40.2192C42.9454 41.6592 41.8243 42.3727 40.4634 42.0803C40.138 42.0104 39.6841 41.8285 39.4546 41.6762C39.2253 41.524 39.0157 41.3993 38.989 41.3993C38.9624 41.3993 38.9068 41.5999 38.8656 41.8452C38.6087 43.3744 40.107 45 41.7735 45C42.8673 45 44.1582 44.3732 44.9664 43.4498C46.0239 42.2414 46.6132 40.4662 46.9123 37.5869C47.0047 36.6968 47.107 35.9418 47.1396 35.9091C47.1722 35.8763 47.2872 35.9275 47.3953 36.0228C48.0026 36.5584 49.0671 36.8103 50.0615 36.6534C51.929 36.3589 53.766 34.5352 54.8271 31.9222C56.2709 28.3663 56.2897 23.0077 54.8671 20.4501C53.4803 17.957 50.6832 17.8304 48.4701 20.1606C48.1321 20.5164 47.834 20.8076 47.8076 20.8076C47.7812 20.8076 47.7596 20.7043 47.7596 20.5781C47.7596 20.1911 47.3482 19.5276 46.9376 19.2524C46.2847 18.8149 45.0297 18.4245 44.6919 18.5537C44.5331 18.6144 44.3958 18.678 44.3869 18.695C44.378 18.712 44.3098 21.5362 44.2353 24.971C44.083 31.9867 44.0785 32.0242 43.274 32.902C42.7602 33.4626 42.3439 33.666 41.8151 33.6152C41.5023 33.5851 41.4002 33.5023 41.2144 33.1289C41.008 32.7136 40.9915 32.4651 41.0004 29.922C41.0076 27.9248 41.0719 26.6433 41.234 25.2712C41.553 22.5722 41.4012 21.9115 40.3868 21.5844C39.7975 21.3942 39.6283 21.1993 39.3669 20.4094C38.8953 18.9841 37.7192 18.1217 36.1349 18.0392C35.6077 18.0118 35.1146 18.052 34.8372 18.1452ZM88.0372 20.075V22.0429L92.7199 22.0723L97.4026 22.1016L95.2653 24.8036C89.4625 32.1391 85.8354 36.7432 85.7591 36.8702C85.6917 36.9823 87.473 37.0109 94.5198 37.0109H103.365V35.043V33.075L98.5083 33.0457L93.6514 33.0163L95.0776 31.216C100.002 24.9994 105.233 18.3676 105.306 18.2477C105.375 18.1356 103.628 18.1071 96.7147 18.1071H88.0372V20.075ZM64.3677 21.1703C64.6001 21.5039 64.5978 22.8263 64.3634 23.6283C64.0801 24.5975 63.4206 25.7657 62.8033 26.3918C62.2313 26.9719 61.5585 27.4091 61.4326 27.2824C61.3124 27.1615 61.6179 25.1612 61.9126 24.1383C62.4781 22.1756 63.2853 20.9686 64.06 20.9272C64.1336 20.9234 64.272 21.0327 64.3677 21.1703ZM115.672 21.5534C117.122 21.9631 118.411 23.0555 119.066 24.4292C119.282 24.8818 119.489 25.3916 119.525 25.5617L119.592 25.8711H114.005H108.418L108.534 25.4492C108.728 24.7394 109.248 23.8101 109.79 23.2042C111.282 21.5347 113.452 20.9259 115.672 21.5534ZM36.5489 22.2041C36.7151 22.2914 36.9969 22.5172 37.1753 22.7059L37.4994 23.0488L37.3621 24.0943C37.1637 25.6037 36.5189 28.5688 36.1203 29.8035C35.3056 32.3276 33.9751 33.964 32.9484 33.7049C31.9451 33.4516 32.0648 29.5495 33.1834 26.0399C34.1926 22.8739 35.3383 21.568 36.5489 22.2041ZM51.0772 22.9984C51.4196 23.2396 51.7937 24.118 51.9652 25.0835C52.526 28.2392 51.4117 32.7957 49.8444 33.7568C49.3813 34.0408 48.6551 34.0378 48.2916 33.7502C47.9303 33.4644 47.591 32.7342 47.425 31.8858C47.2413 30.9465 47.5433 26.544 47.8533 25.6407C48.2868 24.3781 48.8945 23.4759 49.6056 23.0397C50.01 22.7917 50.7542 22.7708 51.0772 22.9984ZM124.735 34.873V37.0109H126.86H128.986V34.873V32.735H126.86H124.735V34.873Z" fill="black"/>
</svg>
