<svg width="180" height="45" viewBox="0 0 180 45" fill="none" xmlns="http://www.w3.org/2000/svg">
<path d="M24.6722 2.39062L14.5149 20.6279L4.35756 2.39062H0V33.6538H5.14436V14.6807L12.5997 27.9653H16.4378L23.8854 14.6807V33.6538H29.0298V2.39062H24.6722Z" fill="#0C2E37"/>
<path d="M48.1017 11.9469L42.1303 27.2344L35.8513 11.9469H30.2695L39.2907 33.6588L38.422 35.654C37.4157 37.9079 36.0198 38.6915 33.9763 38.6915C33.5389 38.6915 33.1493 38.6515 32.7598 38.6515V43.5965C33.409 43.6365 34.1062 43.6365 34.7631 43.6365C38.8115 43.6365 41.781 41.689 43.4365 37.56L53.6757 11.9453H48.1017V11.9469Z" fill="#0C2E37"/>
<path d="M79.5801 2.39062L69.4305 20.6279L59.2716 2.39062H54.9141V33.6538H60.0584V14.6807L67.506 27.9653H71.3442L78.7995 14.6807V33.6538H83.9438V2.39062H79.5785H79.5801Z" fill="#0C2E37"/>
<path d="M107.437 22.4971C107.437 16.0249 103.201 11.5156 97.0102 11.5156C90.8194 11.5156 85.8945 16.4206 85.8945 22.8034C85.8945 29.1863 90.909 34.0836 97.4972 34.0836C101.066 34.0836 104.118 32.8304 106.211 30.5288L102.941 27.2727C101.635 28.7029 99.6319 29.4465 97.5373 29.4465C94.3082 29.4465 91.8659 27.79 90.9987 25.0989H107.217C107.297 24.2337 107.437 23.3207 107.437 22.4971ZM90.9106 21.1069C91.348 18.1094 93.9202 16.1127 96.9299 16.1127C99.9395 16.1127 102.155 18.0278 102.594 21.1069H90.9106Z" fill="#0C2E37"/>
<path d="M121.072 11.5156C118.5 11.5156 116.147 12.5979 114.533 14.296V11.9452H109.389V33.6571H114.533V21.9321C114.533 18.5066 116.846 16.3328 119.807 16.3328C122.549 16.3328 124.472 18.0294 124.472 21.6734V33.6571H129.617V20.5911C129.617 15.0719 126.128 11.5172 121.073 11.5172L121.072 11.5156Z" fill="#0C2E37"/>
<path d="M141.29 17.0664V11.9429H137.947V6.125H132.802V10.077C132.802 11.2085 132.015 11.9429 130.879 11.9429H129.613V17.0664H132.801V26.359C132.801 31.8289 134.894 34.0844 139.859 34.0844C141.035 34.0844 142.471 33.915 143.477 33.6564V28.7915C142.391 29.0101 141.514 29.1394 140.557 29.1394C138.464 29.1394 137.945 28.2742 137.945 24.841V17.068H141.289L141.29 17.0664Z" fill="#0C2E37"/>
<path d="M174.854 1.09766V33.6617H179.998V1.09766H174.854Z" fill="#0C2E37"/>
<path d="M94.7921 10.6243C94.7921 10.6243 97.1571 5.60388 91.4192 2.75421C88.1977 1.15465 87.3754 0 87.3754 0C87.3754 0 84.8434 9.78985 94.0083 11.2339C94.0083 11.2339 91.4192 8.51974 89.6802 4.6817C89.6802 4.6817 91.9772 6.90324 94.7921 10.6243Z" fill="#03A987"/>
<path d="M96.0059 10.5093C96.0059 10.5093 94.4183 7.14234 98.2689 5.23025C100.43 4.1572 100.982 3.38281 100.982 3.38281C100.982 3.38281 102.681 9.95044 96.533 10.9188C96.533 10.9188 98.2704 9.09754 99.4375 6.52345C99.4375 6.52345 97.8964 8.01371 96.0074 10.5093H96.0059Z" fill="#03A987"/>
<path d="M167.679 19.5434C166.348 14.7847 161.967 11.3008 156.767 11.3008C154.657 11.3008 152.686 11.875 150.998 12.8757C150.958 12.8927 150.916 12.9157 150.869 12.9481C150.723 13.0374 150.576 13.1251 150.431 13.2221C149.23 13.998 148.208 15.0157 147.404 16.2119C147.292 16.3812 147.177 16.5598 147.072 16.7369C146.982 16.8908 146.894 17.0432 146.805 17.2049C146.748 17.3096 146.692 17.4142 146.642 17.5205C146.577 17.6498 146.513 17.7868 146.455 17.9161C145.798 19.3387 145.434 20.9213 145.434 22.5871V22.6994C145.497 28.7606 150.36 33.667 156.409 33.8564C155.885 30.5849 154.333 25.1242 149.776 19.4618C149.89 19.5573 153.557 22.6471 156.671 22.6471C159.786 22.6471 163.57 19.4587 163.57 19.4587C159.007 25.1288 157.457 30.5957 156.933 33.8672C157.525 33.8579 158.104 33.8087 158.669 33.7132C160.234 33.4546 161.686 32.8726 162.961 32.0413V33.6578H168.106V22.5871C168.106 21.5279 167.959 20.5102 167.684 19.5403L167.679 19.5434ZM156.67 21.2692C155.387 21.2692 154.347 20.2331 154.347 18.9553C154.347 17.6775 155.387 16.6414 156.67 16.6414C157.953 16.6414 158.993 17.6775 158.993 18.9553C158.993 20.2331 157.953 21.2692 156.67 21.2692Z" fill="#0C2E37"/>
<path d="M171.945 19.1759C170.158 12.1403 164.042 6.93359 156.769 6.93359C149.496 6.93359 143.379 12.1403 141.592 19.1759H139.785V26.2731H143.48V23.3958H143.483C143.483 15.655 149.442 9.35681 156.767 9.35681C164.093 9.35681 170.052 15.655 170.052 23.3958H170.053V26.2731H173.748V19.1759H171.944H171.945Z" fill="#03A987"/>
</svg>
