<svg width="151" height="58" viewBox="0 0 151 58" fill="none" xmlns="http://www.w3.org/2000/svg">
<path d="M37.4123 18.7057C37.4113 15.5458 36.6103 12.4377 35.0841 9.67113C33.5578 6.90456 31.356 4.56968 28.6841 2.88421C26.0121 1.19873 22.9569 0.217573 19.8034 0.0322228C16.6499 -0.153128 13.5009 0.463368 10.65 1.82422C7.79902 3.18507 5.33903 5.24596 3.49939 7.81468C1.65976 10.3834 0.500404 13.3763 0.12944 16.5143C-0.241525 19.6523 0.187986 22.8331 1.37792 25.7602C2.56785 28.6873 4.47944 31.2653 6.93444 33.2538V18.2292C6.93444 15.2425 17.74 8.32786 18.7802 8.05007C19.8204 7.77227 24.2722 10.759 25.4554 11.3702C26.6387 11.9813 31.7873 15.1768 31.1006 16.0843C30.4139 16.9917 28.6028 16.2846 27.2193 15.6651C25.8358 15.0455 19.1892 11.4392 18.7028 11.6479C18.2164 11.8567 14.495 14.9007 13.3723 17.7443C12.2497 20.5879 14.5354 23.2481 17.6542 22.9046C20.773 22.5611 23.9389 17.916 25.2282 17.1247C27.0695 16.0169 28.3184 18.3033 28.3184 18.3033C22.9493 20.9364 23.4744 27.2264 20.4987 28.4824C17.5229 29.7384 15.8684 31.6611 15.8684 32.8329V37.1934C19.9732 37.8274 24.1721 37.075 27.8017 35.0552L36.2509 37.0756L34.7193 28.3881C36.4865 25.4683 37.4181 22.1189 37.4123 18.7057ZM27.9868 10.8937C27.8644 11.0369 27.6928 11.129 27.5058 11.1518C27.3188 11.1745 27.1301 11.1263 26.977 11.0166L22.6429 8.57703C23.673 8.46255 26.6824 8.07195 27.9498 9.10906C28.7173 9.73873 28.3739 10.4357 27.9868 10.8937Z" fill="#F2662B"/>
<path d="M130.749 5.15556L126.993 24.1303L123.342 23.7325L123.75 4.39551L130.749 5.15556Z" fill="#145A35"/>
<path d="M124.423 32.8602C126.278 32.8602 127.781 31.3568 127.781 29.5021C127.781 27.6475 126.278 26.144 124.423 26.144C122.569 26.144 121.065 27.6475 121.065 29.5021C121.065 31.3568 122.569 32.8602 124.423 32.8602Z" fill="#F2662B"/>
<path d="M48.9147 29.502C46.1207 29.502 43.7885 28.5921 41.9179 26.7725C40.0474 24.9529 39.1115 22.6934 39.1104 19.9942C39.1104 17.2949 40.0462 15.0355 41.9179 13.2158C43.7897 11.3962 46.1219 10.487 48.9147 10.4881C50.6298 10.466 52.3223 10.8816 53.832 11.6957C55.2672 12.4669 56.4682 13.6103 57.3091 15.0059L52.7896 17.7531C52.4134 17.0747 51.8612 16.5104 51.1913 16.1193C50.5022 15.7125 49.7149 15.5018 48.9147 15.5102C48.3242 15.4941 47.7367 15.6001 47.1891 15.8216C46.6415 16.0432 46.1456 16.3755 45.7324 16.7977C44.9184 17.663 44.4652 18.8062 44.4652 19.9942C44.4652 21.1822 44.9184 22.3254 45.7324 23.1907C46.1457 23.6126 46.6417 23.9446 47.1893 24.1659C47.7369 24.3871 48.3243 24.4928 48.9147 24.4764C49.7148 24.4853 50.5021 24.2753 51.1913 23.869C51.8612 23.478 52.4134 22.9136 52.7896 22.2353L57.3091 24.9647C56.4725 26.3682 55.2708 27.5184 53.832 28.2926C52.3224 29.1074 50.63 29.5236 48.9147 29.502Z" fill="#145A35"/>
<path d="M70.1005 10.7231C72.1841 10.8154 73.835 11.5175 75.0533 12.8292C76.2715 14.141 76.835 15.8387 76.7439 17.9223L76.275 29.0443L71.0843 28.8117L71.475 19.4424C71.5223 18.3438 71.2423 17.45 70.635 16.7609C70.0277 16.0719 69.1989 15.7055 68.1488 15.6617C67.0265 15.612 66.1031 15.9079 65.3785 16.5496C64.654 17.1913 64.2675 18.0745 64.2189 19.1991L63.7892 29.0443L58.5913 28.8117L59.7136 3.20068L64.9044 3.42799L64.4942 12.8292C66.019 11.3293 67.8878 10.6272 70.1005 10.7231Z" fill="#145A35"/>
<path d="M110.618 12.2676C113.119 12.2676 115.205 13.1738 116.874 14.9864C118.543 16.7989 119.378 19.0613 119.378 21.7736C119.378 24.4847 118.543 26.7471 116.874 28.5608C115.205 30.3745 113.119 31.2814 110.618 31.2814C108.429 31.2814 106.604 30.5338 105.143 29.0385V37.4844H99.9468V12.7009H105.143V14.5087C106.603 13.0134 108.428 12.2664 110.618 12.2676ZM106.411 24.9719C107.264 25.7968 108.405 26.2579 109.592 26.2579C110.779 26.2579 111.92 25.7968 112.774 24.9719C113.587 24.1064 114.04 22.9632 114.04 21.7754C114.04 20.5875 113.587 19.4444 112.774 18.5789C111.92 17.754 110.779 17.2928 109.592 17.2928C108.405 17.2928 107.264 17.754 106.411 18.5789C105.597 19.4444 105.144 20.5875 105.144 21.7754C105.144 22.9632 105.597 24.1064 106.411 24.9719Z" fill="#145A35"/>
<path d="M90.6924 10.7491L91.1594 20.9069C91.2056 21.9238 90.9362 22.7567 90.3514 23.4054C89.7665 24.0542 88.9651 24.4011 87.9469 24.4461C86.9276 24.4946 86.0941 24.2229 85.4465 23.631C84.799 23.039 84.4521 22.234 84.4059 21.2158L83.9389 11.0528L78.7463 11.2907L79.2471 22.1588C79.3537 24.4745 80.2232 26.2995 81.8558 27.6337C83.4878 28.9674 85.1606 29.5747 87.7409 29.4575C89.0089 29.3989 90.9037 28.5341 91.5838 27.8752L91.701 29.2959L96.7373 29.0597L96.3821 21.3686L96.2791 19.1292L95.8831 10.52L90.6924 10.7491Z" fill="#145A35"/>
<path d="M63.9569 44.6677L65.0881 47.3314L66.7982 41.8725L68.5013 48.9492L69.8225 44.641L70.888 47.2053L71.4669 46.2073H74.3402C74.2495 45.2919 73.965 44.4063 73.5055 43.6093C72.9255 42.611 72.0844 41.7896 71.0727 41.2332C70.0232 40.6563 68.8428 40.3597 67.6453 40.3719C65.725 40.3719 64.1203 41.0036 62.831 42.2668C61.7192 43.3411 61.0447 44.7892 60.938 46.3316H63.069L63.9569 44.6677Z" fill="#F2662B"/>
<path d="M70.7784 49.1276L69.9491 47.1547L68.397 52.1856L66.6869 45.0698L65.2005 49.8042L63.8598 46.6414L63.5632 47.1866H60.9243C60.9302 48.0237 61.1032 48.8512 61.4332 49.6206C61.7631 50.39 62.2434 51.0857 62.8458 51.667C64.135 52.9302 65.7398 53.5613 67.66 53.5601C68.8579 53.5758 70.0393 53.279 71.0874 52.6988C72.1005 52.1451 72.9421 51.3238 73.5203 50.3245C74.0943 49.3332 74.3963 48.2078 74.3958 47.0623H71.9753L70.7784 49.1276Z" fill="#F2662B"/>
<path d="M87.452 47.6347C87.2792 47.3912 87.0695 47.1762 86.8305 46.9972C86.5988 46.8167 86.353 46.6551 86.0953 46.5142C85.8146 46.3714 85.5223 46.2526 85.2216 46.159C84.8664 46.0418 84.577 45.953 84.3337 45.8926C84.0904 45.8322 83.8009 45.7612 83.4351 45.6813C83.1137 45.6103 82.8669 45.5517 82.6946 45.5037C82.5224 45.4558 82.3092 45.3989 82.0553 45.3261C81.857 45.2713 81.6648 45.1963 81.4817 45.1024C81.3416 45.0232 81.2069 44.9348 81.0786 44.8378C80.9502 44.748 80.8484 44.6253 80.7838 44.4826C80.7254 44.3457 80.6964 44.1981 80.6986 44.0493C80.6986 43.6326 80.9099 43.3147 81.3325 43.0957C81.8355 42.8615 82.387 42.7501 82.9414 42.7707C84.1486 42.7654 85.3157 43.2033 86.2214 44.0014L87.6794 42.048C86.3342 40.9317 84.6323 40.3367 82.8846 40.3716C82.0306 40.3582 81.1812 40.499 80.3771 40.7871C79.6637 41.0451 79.0372 41.4986 78.5693 42.0959C78.0965 42.71 77.8494 43.4681 77.8697 44.2429C77.861 44.9115 78.046 45.5683 78.4024 46.1341C78.5723 46.3859 78.7843 46.6064 79.0293 46.7859C79.2636 46.9657 79.5118 47.1267 79.7716 47.2671C80.0534 47.4075 80.3455 47.5262 80.6453 47.6223C81.0005 47.7407 81.2964 47.8312 81.5332 47.894C81.7676 47.9544 82.066 48.029 82.4389 48.1177C82.8118 48.2065 83.0959 48.2776 83.3002 48.3344C83.5044 48.3912 83.7441 48.4658 84.0105 48.5635C84.2307 48.634 84.4399 48.735 84.632 48.8636C84.7722 48.9708 84.8925 49.1018 84.9872 49.2507C85.0886 49.4044 85.1412 49.5852 85.1381 49.7693C85.1381 50.2026 84.9055 50.5418 84.4402 50.7868C83.889 51.0514 83.2828 51.1811 82.6715 51.1651C81.9794 51.178 81.2916 51.0536 80.6478 50.799C80.0041 50.5445 79.4171 50.165 78.921 49.6822L77.4861 51.6357C78.9263 52.9131 80.7947 53.6016 82.7195 53.5642C83.6281 53.5782 84.5314 53.4228 85.3832 53.106C86.1303 52.8286 86.7839 52.346 87.2691 51.7138C87.6044 51.2512 87.8294 50.7179 87.9266 50.1549C88.0239 49.5919 87.991 49.0141 87.8303 48.4658C87.7451 48.1719 87.6177 47.892 87.452 47.6347Z" fill="#F2662B"/>
<path d="M102.938 41.2826C101.986 40.7075 100.892 40.4092 99.7792 40.4213C98.91 40.4107 98.05 40.6009 97.2664 40.9772C96.5115 41.3415 95.8528 41.878 95.3432 42.5434V40.7232H92.5693V58.0003H95.3432V51.4776C95.8551 52.1461 96.5153 52.6866 97.2717 53.0564C98.0538 53.4316 98.9119 53.6212 99.7792 53.6104C100.892 53.6234 101.986 53.3251 102.938 52.7491C103.886 52.1765 104.657 51.3546 105.169 50.3731C105.7 49.3337 105.977 48.1831 105.977 47.0159C105.977 45.8486 105.7 44.6981 105.169 43.6587C104.656 42.6777 103.885 41.8559 102.938 41.2826ZM102.01 49.8066C101.267 50.5297 100.271 50.9343 99.234 50.9343C98.1972 50.9343 97.2014 50.5297 96.4584 49.8066C95.7424 49.0528 95.3432 48.0529 95.3432 47.0132C95.3432 45.9736 95.7424 44.9736 96.4584 44.2198C97.1992 43.4925 98.1959 43.085 99.234 43.085C100.272 43.085 101.269 43.4925 102.01 44.2198C102.722 44.9752 103.12 45.9746 103.12 47.0132C103.12 48.0518 102.722 49.0512 102.01 49.8066Z" fill="#F2662B"/>
<path d="M113.248 40.2793H110.476V52.8664H113.248V40.2793Z" fill="#F2662B"/>
<path d="M122.6 37.2646H119.839V40.5322H117.708V43.0325H119.839V49.4255C119.839 50.6793 120.177 51.656 120.853 52.3557C121.529 53.0553 122.529 53.4046 123.854 53.4034C124.654 53.4169 125.446 53.2391 126.163 52.8849V50.3135C125.629 50.5876 125.039 50.7358 124.438 50.7468C123.851 50.7468 123.4 50.6011 123.082 50.3063C122.764 50.0116 122.606 49.5783 122.606 48.9993V43.0325H126.157V40.5322H122.606L122.6 37.2646Z" fill="#F2662B"/>
<path d="M139.852 42.5128C138.751 41.1146 137.28 40.4155 135.439 40.4155C134.328 40.4016 133.236 40.6964 132.283 41.2671C131.331 41.8378 130.555 42.6619 130.044 43.6475C129.517 44.6904 129.242 45.8425 129.242 47.0109C129.242 48.1794 129.517 49.3315 130.044 50.3744C130.556 51.3594 131.331 52.183 132.284 52.7533C133.237 53.3236 134.329 53.6183 135.439 53.6046C137.271 53.6046 138.742 52.9014 139.852 51.4949V53.3098H142.624V40.7227H139.852V42.5128ZM138.749 49.7937C138.391 50.1633 137.96 50.4544 137.483 50.6486C137.007 50.8427 136.495 50.9356 135.98 50.9213C135.463 50.9358 134.948 50.8432 134.468 50.6491C133.988 50.455 133.553 50.1638 133.191 49.7937C132.475 49.0385 132.075 48.0374 132.075 46.9967C132.075 45.956 132.475 44.955 133.191 44.1998C133.553 43.83 133.988 43.539 134.468 43.345C134.948 43.1509 135.463 43.0581 135.98 43.0722C136.495 43.0582 137.007 43.1513 137.483 43.3454C137.96 43.5395 138.391 43.8304 138.749 44.1998C139.458 44.9588 139.852 45.9584 139.852 46.9967C139.852 48.0351 139.458 49.0347 138.749 49.7937Z" fill="#F2662B"/>
<path d="M150.795 35.1943H148.022V52.9775H150.795V35.1943Z" fill="#F2662B"/>
<path d="M53.1338 43.3618H44.7785V36.2744H41.8484V53.31H44.7785V46.1232H53.1338V53.31H56.0391V36.2744H53.1338V43.3618Z" fill="#F2662B"/>
<path d="M111.862 38.7341C112.799 38.7341 113.558 37.9748 113.558 37.0382C113.558 36.1016 112.799 35.3423 111.862 35.3423C110.926 35.3423 110.167 36.1016 110.167 37.0382C110.167 37.9748 110.926 38.7341 111.862 38.7341Z" fill="#F2662B"/>
</svg>
