<svg width="416" height="80" viewBox="0 0 416 80" fill="none" xmlns="http://www.w3.org/2000/svg">
<g clip-path="url(#clip0_1_2247)">
<path d="M285.409 49.0396L287.472 53.8979L290.591 43.9416L293.697 56.8485L296.107 48.991L298.05 53.6679L299.106 51.8477H304.347C304.181 50.1781 303.662 48.5628 302.824 47.1092C301.766 45.2885 300.232 43.7903 298.387 42.7756C296.473 41.7234 294.32 41.1824 292.136 41.2048C288.634 41.2048 285.707 42.3567 283.355 44.6606C281.328 46.62 280.098 49.2613 279.903 52.0744H283.789L285.409 49.0396Z" fill="#F2662B"/>
<path d="M297.849 57.1723L296.337 53.5739L293.506 62.7496L290.387 49.7715L287.676 58.4063L285.231 52.6379L284.69 53.6322H279.877C279.888 55.159 280.203 56.6682 280.805 58.0715C281.407 59.4747 282.283 60.7436 283.381 61.8039C285.733 64.1078 288.66 65.2587 292.162 65.2565C294.347 65.2852 296.501 64.7438 298.413 63.6857C300.261 62.6759 301.796 61.1779 302.85 59.3553C303.897 57.5472 304.448 55.4948 304.447 53.4055H300.032L297.849 57.1723Z" fill="#F2662B"/>
<path d="M323.861 54.4518C323.546 54.0077 323.163 53.6154 322.727 53.289C322.305 52.9598 321.856 52.6651 321.386 52.408C320.874 52.1477 320.341 51.931 319.793 51.7603C319.145 51.5465 318.617 51.3846 318.173 51.2744C317.73 51.1643 317.202 51.0348 316.535 50.889C315.948 50.7594 315.498 50.6526 315.184 50.5651C314.87 50.4777 314.481 50.374 314.018 50.2412C313.656 50.1412 313.306 50.0045 312.972 49.8331C312.716 49.6888 312.471 49.5276 312.237 49.3505C312.002 49.1868 311.817 48.9631 311.699 48.7028C311.592 48.4531 311.54 48.1839 311.543 47.9125C311.543 47.1524 311.929 46.5727 312.7 46.1732C313.617 45.7461 314.623 45.5429 315.634 45.5805C317.836 45.5707 319.964 46.3694 321.616 47.825L324.275 44.2623C321.822 42.2264 318.718 41.1412 315.53 41.2048C313.973 41.1804 312.424 41.4372 310.957 41.9627C309.656 42.4331 308.513 43.2604 307.66 44.3497C306.798 45.4697 306.347 46.8524 306.384 48.2655C306.368 49.485 306.706 50.683 307.356 51.7149C307.665 52.1741 308.052 52.5762 308.499 52.9036C308.926 53.2316 309.379 53.5251 309.853 53.7813C310.367 54.0373 310.899 54.2538 311.446 54.4291C312.094 54.645 312.634 54.8102 313.066 54.9246C313.493 55.0348 314.037 55.1708 314.718 55.3327C315.398 55.4947 315.916 55.6242 316.288 55.7279C316.661 55.8315 317.098 55.9676 317.584 56.1457C317.986 56.2742 318.367 56.4585 318.718 56.6931C318.973 56.8885 319.193 57.1275 319.365 57.3991C319.55 57.6795 319.646 58.0091 319.641 58.3449C319.641 59.1352 319.216 59.7538 318.368 60.2007C317.362 60.6834 316.257 60.9199 315.142 60.8906C313.88 60.9141 312.625 60.6872 311.451 60.223C310.277 59.7588 309.206 59.0666 308.301 58.1862L305.684 61.7489C308.311 64.0788 311.719 65.3345 315.229 65.2663C316.887 65.2919 318.534 65.0085 320.088 64.4307C321.45 63.9246 322.642 63.0445 323.527 61.8914C324.139 61.0477 324.549 60.0751 324.726 59.0483C324.904 58.0214 324.844 56.9676 324.551 55.9675C324.395 55.4316 324.163 54.921 323.861 54.4518Z" fill="#F2662B"/>
<path d="M347.414 42.7757C345.676 41.7268 343.681 41.1828 341.652 41.2049C340.066 41.1854 338.498 41.5324 337.069 42.2186C335.692 42.8831 334.49 43.8616 333.561 45.0753V41.7555H328.502V73.2664H333.561V61.3701C334.495 62.5893 335.699 63.575 337.078 64.2494C338.505 64.9338 340.07 65.2796 341.652 65.2599C343.681 65.2835 345.677 64.7395 347.414 63.6891C349.141 62.6447 350.549 61.1456 351.482 59.3555C352.45 57.4597 352.955 55.3613 352.955 53.2324C352.955 51.1035 352.45 49.0051 351.482 47.1093C350.547 45.3202 349.14 43.8214 347.414 42.7757ZM345.72 58.3223C344.365 59.6411 342.548 60.3791 340.657 60.3791C338.766 60.3791 336.95 59.6411 335.595 58.3223C334.289 56.9475 333.561 55.1237 333.561 53.2275C333.561 51.3314 334.289 49.5076 335.595 48.1328C336.946 46.8063 338.764 46.0631 340.657 46.0631C342.551 46.0631 344.369 46.8063 345.72 48.1328C347.02 49.5106 347.744 51.3332 347.744 53.2275C347.744 55.1219 347.02 56.9445 345.72 58.3223Z" fill="#F2662B"/>
<path d="M361.114 41.7554H356.058V64.7125H361.114V41.7554Z" fill="#F2662B"/>
<path d="M373.584 35.7959H368.547V41.7554H364.661V46.3157H368.547V57.9757C368.547 60.2623 369.164 62.0437 370.397 63.3198C371.63 64.5959 373.454 65.2329 375.87 65.2307C377.329 65.2553 378.773 64.9311 380.081 64.285V59.5951C379.107 60.0951 378.031 60.3654 376.936 60.3854C375.864 60.3854 375.041 60.1198 374.461 59.5821C373.882 59.0445 373.593 58.2542 373.593 57.1983V46.3157H380.071V41.7554H373.593L373.584 35.7959Z" fill="#F2662B"/>
<path d="M401.516 45.0203C399.508 42.4702 396.825 41.1952 393.467 41.1952C391.442 41.1697 389.45 41.7074 387.712 42.7483C385.975 43.7892 384.561 45.2923 383.628 47.0899C382.667 48.992 382.166 51.0933 382.166 53.2243C382.166 55.3554 382.667 57.4567 383.628 59.3588C384.562 61.1553 385.976 62.6574 387.713 63.6976C389.451 64.7378 391.443 65.2753 393.467 65.2503C396.81 65.2503 399.493 63.9677 401.516 61.4025V64.7126H406.572V41.7555H401.516V45.0203ZM399.505 58.2997C398.852 58.9738 398.065 59.5048 397.196 59.8588C396.327 60.2129 395.393 60.3823 394.455 60.3563C393.511 60.3828 392.572 60.2138 391.696 59.8598C390.82 59.5059 390.027 58.9747 389.367 58.2997C388.061 56.9223 387.333 55.0965 387.333 53.1984C387.333 51.3003 388.061 49.4746 389.367 48.0972C390.028 47.4228 390.821 46.892 391.697 46.5381C392.572 46.1842 393.511 46.0149 394.455 46.0405C395.393 46.0151 396.327 46.1848 397.196 46.5389C398.065 46.8929 398.851 47.4235 399.505 48.0972C400.797 49.4815 401.516 51.3047 401.516 53.1984C401.516 55.0922 400.797 56.9154 399.505 58.2997Z" fill="#F2662B"/>
<path d="M415.372 32.2788H410.316V64.7128H415.372V32.2788Z" fill="#F2662B"/>
<path d="M270.925 46.5684H255.686V33.6421H250.342V64.7125H255.686V51.6048H270.925V64.7125H276.224V33.6421H270.925V46.5684Z" fill="#F2662B"/>
<path d="M72.6153 36.2396C72.6134 30.1608 71.0721 24.1815 68.1351 18.8593C65.1981 13.5371 60.9612 9.04535 55.8194 5.80291C50.6776 2.56047 44.7984 0.672953 38.7301 0.316383C32.6618 -0.0401859 26.602 1.1458 21.1159 3.76375C15.6297 6.3817 10.8959 10.3463 7.35581 15.288C3.81575 20.2296 1.58477 25.9872 0.870911 32.0239C0.157053 38.0606 0.983573 44.1798 3.27339 49.8108C5.56321 55.4418 9.24175 60.4012 13.966 64.2266V35.323C13.966 29.5772 34.7595 16.2752 36.7611 15.7408C38.7627 15.2064 47.3295 20.9521 49.6064 22.1278C51.8834 23.3035 61.7911 29.4509 60.4696 31.1966C59.1481 32.9424 55.6631 31.5821 53.0008 30.3902C50.3384 29.1983 37.5481 22.2606 36.6121 22.6622C35.6761 23.0638 28.5149 28.9197 26.3546 34.3902C24.1943 39.8606 28.5927 44.978 34.5943 44.3173C40.5959 43.6566 46.6882 34.7205 49.1692 33.1983C52.7125 31.0671 55.1158 35.4655 55.1158 35.4655C44.7838 40.5311 45.7943 52.6315 40.068 55.0476C34.3417 57.4638 31.1579 61.1626 31.1579 63.4169V71.8055C39.0568 73.0251 47.1369 71.5778 54.1214 67.6922L70.3805 71.5788L67.4332 54.8663C70.8339 49.2492 72.6265 42.8059 72.6153 36.2396ZM54.4777 21.2112C54.2422 21.4867 53.9119 21.6639 53.5521 21.7077C53.1922 21.7514 52.8291 21.6587 52.5344 21.4477L44.1943 16.7545C46.1765 16.5343 51.9676 15.7829 54.4064 17.778C55.8834 18.9894 55.2226 20.3302 54.4777 21.2112Z" fill="#F2662B"/>
<path d="M244.482 20.9844L237.632 55.5917L230.973 54.8662L231.718 19.5981L244.482 20.9844Z" fill="#145A35"/>
<path d="M232.946 71.514C236.328 71.514 239.07 68.7719 239.07 65.3893C239.07 62.0068 236.328 59.2646 232.946 59.2646C229.563 59.2646 226.821 62.0068 226.821 65.3893C226.821 68.7719 229.563 71.514 232.946 71.514Z" fill="#F2662B"/>
<path d="M95.2292 65.3896C90.1334 65.3896 85.8797 63.7302 82.4681 60.4114C79.0565 57.0927 77.3496 52.9717 77.3474 48.0487C77.3474 43.1256 79.0543 39.0047 82.4681 35.6859C85.8818 32.3671 90.1355 30.7089 95.2292 30.711C98.3573 30.6705 101.444 31.4286 104.198 32.9134C106.815 34.3201 109.006 36.4055 110.539 38.9507L102.296 43.9612C101.61 42.724 100.603 41.6947 99.3814 40.9815C98.1245 40.2394 96.6887 39.8553 95.2292 39.8705C94.1522 39.8411 93.0807 40.0345 92.082 40.4385C91.0832 40.8426 90.1787 41.4487 89.4251 42.2187C87.9405 43.7969 87.1139 45.882 87.1139 48.0487C87.1139 50.2154 87.9405 52.3005 89.4251 53.8786C90.1789 54.6482 91.0835 55.2538 92.0823 55.6573C93.081 56.0608 94.1524 56.2536 95.2292 56.2236C96.6884 56.2399 98.1243 55.8569 99.3814 55.1159C100.603 54.4027 101.61 53.3733 102.296 52.1361L110.539 57.1142C109.014 59.674 106.822 61.7718 104.198 63.1839C101.444 64.6699 98.3576 65.429 95.2292 65.3896Z" fill="#145A35"/>
<path d="M133.869 31.1383C137.669 31.3067 140.68 32.5871 142.902 34.9796C145.124 37.372 146.152 40.4684 145.985 44.2687L145.13 64.5537L135.663 64.1294L136.376 47.0411C136.462 45.0374 135.951 43.4071 134.844 42.1504C133.736 40.8938 132.225 40.2255 130.309 40.1456C128.262 40.0549 126.578 40.5947 125.257 41.765C123.935 42.9353 123.23 44.5461 123.142 46.5974L122.358 64.5537L112.878 64.1294L114.925 17.4185L124.392 17.833L123.644 34.9796C126.425 32.2438 129.833 30.9634 133.869 31.1383Z" fill="#145A35"/>
<path d="M207.767 33.9561C212.329 33.9561 216.133 35.609 219.177 38.9148C222.222 42.2206 223.744 46.3469 223.744 51.2937C223.744 56.2384 222.222 60.3647 219.177 63.6727C216.133 66.9806 212.329 68.6346 207.767 68.6346C203.774 68.6346 200.446 67.271 197.781 64.5439V79.948H188.304V34.7463H197.781V38.0435C200.444 35.3164 203.772 33.9539 207.767 33.9561ZM200.094 57.1269C201.651 58.6315 203.731 59.4725 205.896 59.4725C208.061 59.4725 210.142 58.6315 211.699 57.1269C213.183 55.5484 214.009 53.4634 214.009 51.297C214.009 49.1305 213.183 47.0455 211.699 45.467C210.142 43.9624 208.061 43.1214 205.896 43.1214C203.731 43.1214 201.651 43.9624 200.094 45.467C198.61 47.0455 197.784 49.1305 197.784 51.297C197.784 53.4634 198.61 55.5484 200.094 57.1269Z" fill="#145A35"/>
<path d="M171.427 31.1869L172.279 49.7132C172.363 51.568 171.872 53.087 170.805 54.2703C169.738 55.4535 168.276 56.0862 166.419 56.1682C164.56 56.2568 163.04 55.7612 161.859 54.6816C160.678 53.602 160.045 52.1337 159.961 50.2767L159.109 31.7407L149.639 32.1747L150.552 51.9966C150.747 56.2201 152.333 59.5485 155.31 61.982C158.287 64.4144 161.338 65.5221 166.044 65.3083C168.356 65.2014 171.812 63.6241 173.053 62.4225L173.266 65.0136L182.452 64.5828L181.804 50.5553L181.616 46.4711L180.894 30.769L171.427 31.1869Z" fill="#145A35"/>
<path d="M358.588 37.8591C360.296 37.8591 361.681 36.4743 361.681 34.766C361.681 33.0577 360.296 31.6729 358.588 31.6729C356.88 31.6729 355.495 33.0577 355.495 34.766C355.495 36.4743 356.88 37.8591 358.588 37.8591Z" fill="#F2662B"/>
</g>
<defs>
<clipPath id="clip0_1_2247">
<rect width="415.223" height="80" fill="white" transform="translate(0.388672)"/>
</clipPath>
</defs>
</svg>
