<svg width="133" height="52" viewBox="0 0 133 52" fill="none" xmlns="http://www.w3.org/2000/svg">
<path d="M32.8709 17.3241C32.87 14.5352 32.1663 11.792 30.8253 9.35023C29.4844 6.90845 27.5499 4.84767 25.2022 3.36006C22.8545 1.87246 20.1702 1.00648 17.3995 0.842893C14.6289 0.679302 11.8621 1.22342 9.3572 2.42452C6.85232 3.62561 4.69094 5.44455 3.07461 7.71172C1.45829 9.97889 0.439662 12.6204 0.113728 15.39C-0.212207 18.1596 0.165167 20.9671 1.21066 23.5505C2.25615 26.134 3.9357 28.4093 6.09269 30.1644V16.9036C6.09269 14.2675 15.5866 8.16465 16.5005 7.91947C17.4144 7.67429 21.3259 10.3104 22.3655 10.8498C23.4051 11.3892 27.9288 14.2096 27.3254 15.0105C26.7221 15.8114 25.1309 15.1873 23.9153 14.6405C22.6997 14.0937 16.8599 10.9107 16.4325 11.095C16.0051 11.2792 12.7355 13.9659 11.7491 16.4756C10.7628 18.9854 12.771 21.3333 15.5112 21.0301C18.2514 20.727 21.0331 16.6272 22.1658 15.9288C23.7837 14.9511 24.8809 16.969 24.8809 16.969C20.1635 19.293 20.6249 24.8446 18.0104 25.9531C15.3959 27.0617 13.9422 28.7586 13.9422 29.7929V33.6415C17.5487 34.201 21.238 33.537 24.4269 31.7543L31.8506 33.5375L30.5048 25.8699C32.0576 23.2928 32.876 20.3367 32.8709 17.3241ZM24.5896 10.4293C24.4821 10.5557 24.3313 10.6369 24.167 10.657C24.0027 10.6771 23.8369 10.6345 23.7023 10.5377L19.8944 8.38458C20.7994 8.28353 23.4435 7.93879 24.5571 8.85414C25.2314 9.40989 24.9297 10.0251 24.5896 10.4293Z" fill="#F2662B"/>
<path d="M114.881 5.36712L111.581 22.1143L108.373 21.7632L108.732 4.69629L114.881 5.36712Z" fill="white"/>
<path d="M109.321 29.8179C110.951 29.8179 112.272 28.4909 112.272 26.854C112.272 25.2171 110.951 23.8901 109.321 23.8901C107.692 23.8901 106.371 25.2171 106.371 26.854C106.371 28.4909 107.692 29.8179 109.321 29.8179Z" fill="#F2662B"/>
<path d="M42.9761 26.8542C40.5212 26.8542 38.4721 26.0512 36.8286 24.4452C35.1851 22.8391 34.3629 20.845 34.3618 18.4626C34.3618 16.0802 35.1841 14.086 36.8286 12.48C38.4731 10.874 40.5223 10.0715 42.9761 10.0725C44.483 10.0529 45.97 10.4198 47.2965 11.1383C48.5574 11.819 49.6127 12.8282 50.3515 14.0599L46.3806 16.4846C46.05 15.8859 45.5649 15.3877 44.9763 15.0426C44.3709 14.6835 43.6791 14.4976 42.9761 14.505C42.4572 14.4908 41.9411 14.5843 41.4599 14.7799C40.9788 14.9754 40.5431 15.2687 40.1801 15.6413C39.4649 16.405 39.0667 17.4141 39.0667 18.4626C39.0667 19.5111 39.4649 20.5201 40.1801 21.2838C40.5432 21.6562 40.9789 21.9493 41.4601 22.1446C41.9412 22.3398 42.4573 22.4331 42.9761 22.4186C43.679 22.4265 44.3707 22.2411 44.9763 21.8825C45.5649 21.5374 46.05 21.0393 46.3806 20.4406L50.3515 22.8496C49.6165 24.0883 48.5606 25.1035 47.2965 25.7868C45.9701 26.5059 44.4831 26.8733 42.9761 26.8542Z" fill="white"/>
<path d="M61.5889 10.2799C63.4196 10.3614 64.8702 10.9811 65.9405 12.1388C67.0109 13.2966 67.506 14.795 67.4259 16.634L67.014 26.4503L62.4533 26.245L62.7966 17.9757C62.8382 17.006 62.5922 16.2171 62.0586 15.6089C61.5249 15.0008 60.7968 14.6774 59.8742 14.6388C58.8881 14.5949 58.0767 14.8561 57.4402 15.4224C56.8036 15.9888 56.4639 16.7683 56.4213 17.7609L56.0437 26.4503L51.4768 26.245L52.4629 3.64062L57.0236 3.84125L56.6631 12.1388C58.0029 10.8149 59.6448 10.1953 61.5889 10.2799Z" fill="white"/>
<path d="M97.1904 11.6421C99.3883 11.6421 101.221 12.442 102.687 14.0417C104.154 15.6415 104.887 17.6383 104.887 20.0321C104.887 22.425 104.154 24.4218 102.687 26.0226C101.221 27.6234 99.3883 28.4238 97.1904 28.4238C95.2671 28.4238 93.6636 27.7639 92.38 26.4442V33.8985H87.8147V12.0245H92.38V13.6201C93.6626 12.3004 95.266 11.641 97.1904 11.6421ZM93.4941 22.855C94.2441 23.583 95.2463 23.99 96.2893 23.99C97.3323 23.99 98.3345 23.583 99.0845 22.855C99.7994 22.0911 100.197 21.0821 100.197 20.0337C100.197 18.9853 99.7994 17.9764 99.0845 17.2125C98.3345 16.4844 97.3323 16.0774 96.2893 16.0774C95.2463 16.0774 94.2441 16.4844 93.4941 17.2125C92.7792 17.9764 92.3813 18.9853 92.3813 20.0337C92.3813 21.0821 92.7792 22.0911 93.4941 22.855Z" fill="white"/>
<path d="M79.6815 10.3033L80.0918 19.2685C80.1324 20.1661 79.8958 20.9012 79.3819 21.4738C78.8681 22.0464 78.1639 22.3526 77.2693 22.3923C76.3737 22.4351 75.6414 22.1953 75.0724 21.6729C74.5035 21.1504 74.1987 20.4399 74.1581 19.5413L73.7478 10.5713L69.1855 10.7813L69.6255 20.3735C69.7192 22.4173 70.4832 24.0281 71.9176 25.2057C73.3515 26.3828 74.8212 26.9188 77.0883 26.8153C78.2023 26.7636 79.8671 26.0003 80.4647 25.4188L80.5677 26.6727L84.9926 26.4643L84.6806 19.676L84.5901 17.6996L84.2421 10.1011L79.6815 10.3033Z" fill="white"/>
<path d="M56.1974 40.2346L57.1913 42.5857L58.6938 37.7676L60.1901 44.0135L61.351 40.2111L62.2871 42.4744L62.7958 41.5935H65.3203C65.2406 40.7856 64.9906 40.0039 64.5869 39.3005C64.0773 38.4194 63.3383 37.6944 62.4494 37.2034C61.5273 36.6942 60.4902 36.4324 59.4381 36.4432C57.7509 36.4432 56.3409 37.0006 55.2082 38.1156C54.2313 39.0638 53.6387 40.3419 53.5449 41.7032H55.4172L56.1974 40.2346Z" fill="#F2662B"/>
<path d="M62.1911 44.1708L61.4625 42.4294L60.0988 46.8697L58.5963 40.5894L57.2903 44.7679L56.1123 41.9765L55.8518 42.4576H53.5332C53.5384 43.1965 53.6904 43.9268 53.9803 44.6059C54.2702 45.2849 54.6922 45.899 55.2214 46.4121C56.3542 47.527 57.7641 48.0839 59.4513 48.0829C60.5038 48.0968 61.5417 47.8348 62.4626 47.3227C63.3528 46.8341 64.0922 46.1092 64.6002 45.2272C65.1045 44.3522 65.3699 43.359 65.3694 42.3479H63.2428L62.1911 44.1708Z" fill="#F2662B"/>
<path d="M76.84 42.8546C76.6881 42.6397 76.5039 42.4499 76.2939 42.292C76.0903 42.1326 75.8743 41.9901 75.6479 41.8656C75.4013 41.7396 75.1445 41.6348 74.8803 41.5522C74.5682 41.4487 74.3139 41.3703 74.1001 41.3171C73.8864 41.2638 73.6321 41.2011 73.3106 41.1305C73.0282 41.0678 72.8114 41.0161 72.66 40.9738C72.5087 40.9315 72.3214 40.8813 72.0983 40.8171C71.9241 40.7687 71.7552 40.7025 71.5943 40.6196C71.4713 40.5497 71.3529 40.4717 71.2402 40.386C71.1274 40.3068 71.0379 40.1985 70.9812 40.0726C70.9299 39.9518 70.9044 39.8215 70.9063 39.6901C70.9063 39.3223 71.0919 39.0418 71.4633 38.8485C71.9052 38.6418 72.3897 38.5435 72.8769 38.5616C73.9375 38.5569 74.963 38.9434 75.7587 39.6478L77.0397 37.9237C75.8578 36.9385 74.3625 36.4134 72.827 36.4442C72.0766 36.4324 71.3303 36.5566 70.6239 36.8109C69.997 37.0386 69.4465 37.4389 69.0355 37.9661C68.62 38.508 68.4029 39.1772 68.4208 39.861C68.4132 40.4511 68.5757 41.0308 68.8888 41.5302C69.0381 41.7524 69.2244 41.947 69.4396 42.1054C69.6454 42.2642 69.8635 42.4062 70.0918 42.5302C70.3394 42.6541 70.596 42.7589 70.8595 42.8437C71.1715 42.9482 71.4316 43.0281 71.6396 43.0835C71.8456 43.1368 72.1077 43.2026 72.4353 43.281C72.763 43.3593 73.0126 43.422 73.1921 43.4722C73.3715 43.5223 73.5821 43.5882 73.8162 43.6744C74.0096 43.7366 74.1935 43.8257 74.3623 43.9392C74.4855 44.0338 74.5911 44.1495 74.6743 44.2809C74.7634 44.4166 74.8096 44.5761 74.8069 44.7386C74.8069 45.121 74.6026 45.4204 74.1938 45.6367C73.7095 45.8702 73.1768 45.9847 72.6397 45.9705C72.0316 45.9819 71.4273 45.8721 70.8617 45.6475C70.2961 45.4228 69.7804 45.0878 69.3444 44.6618L68.0837 46.3859C69.3492 47.5133 70.9907 48.121 72.6818 48.088C73.4802 48.1004 74.2739 47.9633 75.0223 47.6837C75.6786 47.4387 76.253 47.0128 76.6793 46.4548C76.9739 46.0465 77.1715 45.5759 77.257 45.079C77.3424 44.5821 77.3135 44.0721 77.1723 43.5882C77.0975 43.3288 76.9855 43.0817 76.84 42.8546Z" fill="#F2662B"/>
<path d="M90.4419 37.2444C89.605 36.7368 88.6438 36.4736 87.6662 36.4843C86.9025 36.4749 86.147 36.6427 85.4584 36.9748C84.7952 37.2964 84.2164 37.7699 83.7687 38.3572V36.7507H81.3315V51.9995H83.7687V46.2426C84.2185 46.8326 84.7985 47.3096 85.4631 47.636C86.1502 47.9672 86.9042 48.1345 87.6662 48.125C88.6439 48.1364 89.6053 47.8731 90.4419 47.3648C91.2742 46.8595 91.9521 46.134 92.4016 45.2677C92.8683 44.3503 93.1116 43.3348 93.1116 42.3046C93.1116 41.2744 92.8683 40.2589 92.4016 39.3415C91.9515 38.4758 91.2737 37.7504 90.4419 37.2444ZM89.6259 44.7677C88.9731 45.406 88.0982 45.7631 87.1872 45.7631C86.2763 45.7631 85.4013 45.406 84.7485 44.7677C84.1194 44.1024 83.7687 43.2199 83.7687 42.3023C83.7687 41.3847 84.1194 40.5021 84.7485 39.8368C85.3994 39.1949 86.2751 38.8353 87.1872 38.8353C88.0994 38.8353 88.975 39.1949 89.6259 39.8368C90.2522 40.5036 90.6011 41.3856 90.6011 42.3023C90.6011 43.219 90.2522 44.101 89.6259 44.7677Z" fill="#F2662B"/>
<path d="M99.4998 36.3604H97.0642V47.4698H99.4998V36.3604Z" fill="#F2662B"/>
<path d="M107.72 33.7021H105.294V36.5861H103.422V38.7929H105.294V44.4354C105.294 45.5419 105.591 46.404 106.185 47.0215C106.779 47.6391 107.658 47.9473 108.822 47.9463C109.525 47.9582 110.22 47.8013 110.85 47.4886V45.2191C110.381 45.461 109.863 45.5919 109.335 45.6015C108.819 45.6015 108.423 45.473 108.143 45.2128C107.864 44.9526 107.725 44.5702 107.725 44.0592V38.7929H110.846V36.5861H107.725L107.72 33.7021Z" fill="#F2662B"/>
<path d="M122.877 38.3324C121.91 37.0984 120.617 36.4814 119 36.4814C118.024 36.4691 117.064 36.7293 116.227 37.233C115.39 37.7366 114.709 38.464 114.26 39.334C113.797 40.2544 113.555 41.2713 113.555 42.3025C113.555 43.3338 113.797 44.3506 114.26 45.2711C114.71 46.1405 115.391 46.8674 116.228 47.3707C117.065 47.8741 118.024 48.1342 119 48.1221C120.61 48.1221 121.902 47.5014 122.877 46.2601V47.8619H125.313V36.7525H122.877V38.3324ZM121.908 44.7586C121.593 45.0848 121.215 45.3418 120.796 45.5131C120.377 45.6844 119.928 45.7664 119.476 45.7538C119.021 45.7667 118.568 45.6849 118.146 45.5136C117.725 45.3423 117.343 45.0853 117.024 44.7586C116.395 44.0921 116.044 43.2085 116.044 42.29C116.044 41.3715 116.395 40.4879 117.024 39.8214C117.343 39.495 117.725 39.2382 118.147 39.0669C118.568 38.8957 119.021 38.8137 119.476 38.8261C119.927 38.8138 120.377 38.896 120.796 39.0673C121.214 39.2386 121.593 39.4954 121.908 39.8214C122.531 40.4913 122.877 41.3736 122.877 42.29C122.877 43.2064 122.531 44.0887 121.908 44.7586Z" fill="#F2662B"/>
<path d="M132.497 31.873H130.062V47.5685H132.497V31.873Z" fill="#F2662B"/>
<path d="M46.6868 39.081H39.3457V32.8257H36.7712V47.8613H39.3457V41.5182H46.6868V47.8613H49.2394V32.8257H46.6868V39.081Z" fill="#F2662B"/>
<path d="M98.2835 34.9961C99.1064 34.9961 99.7736 34.3259 99.7736 33.4993C99.7736 32.6726 99.1064 32.0024 98.2835 32.0024C97.4606 32.0024 96.7935 32.6726 96.7935 33.4993C96.7935 34.3259 97.4606 34.9961 98.2835 34.9961Z" fill="#F2662B"/>
</svg>
