<svg width="295" height="70" viewBox="0 0 295 70" fill="none" xmlns="http://www.w3.org/2000/svg">
<path d="M48.7162 32.9214C48.7149 28.8514 47.6763 24.8481 45.6974 21.2847C43.7184 17.7213 40.8636 14.714 37.3991 12.543C33.9345 10.3721 29.9731 9.10836 25.8843 8.86963C21.7955 8.63089 17.7124 9.42495 14.0159 11.1778C10.3193 12.9306 7.12967 15.585 4.74438 18.8936C2.35909 22.2021 0.85586 26.0571 0.374864 30.0988C-0.106132 34.1406 0.450776 38.2376 1.99365 42.0077C3.53653 45.7779 6.01512 49.0984 9.19829 51.6596V32.3077C9.19829 28.4607 23.2089 19.5546 24.5554 19.1968C25.9019 18.8389 31.6786 22.6859 33.2106 23.4731C34.7426 24.2603 41.4228 28.3761 40.5324 29.545C39.642 30.7138 37.2916 29.803 35.4999 29.005C33.7082 28.207 25.0879 23.5598 24.4616 23.8374C23.8353 24.115 19.0057 28.027 17.5501 31.6896C16.0945 35.3523 19.0581 38.7785 23.102 38.3362C27.1459 37.8938 31.2487 31.9108 32.9226 30.8916C35.31 29.4647 36.9293 32.4096 36.9293 32.4096C29.9677 35.8012 30.6464 43.9028 26.7902 45.5205C22.934 47.1382 20.78 49.6255 20.78 51.1348V56.7513C26.1021 57.5611 31.544 56.5859 36.2463 53.9799L47.2016 56.5821L45.2113 45.3882C47.5056 41.6296 48.7179 37.3174 48.7162 32.9214ZM36.495 22.8594C36.3361 23.0434 36.1136 23.1617 35.8713 23.191C35.629 23.2203 35.3844 23.1585 35.1856 23.0177L29.5661 19.8755C30.9017 19.728 34.8037 19.2249 36.447 20.5608C37.44 21.3718 36.9948 22.2696 36.4885 22.8594H36.495Z" fill="#F2662B"/>
<path d="M164.514 22.7172L159.901 45.8879L155.414 45.4021L155.916 21.7891L164.514 22.7172Z" fill="#145A35"/>
<path d="M156.74 56.5412C159.019 56.5412 160.867 54.7053 160.867 52.4405C160.867 50.1758 159.019 48.3398 156.74 48.3398C154.461 48.3398 152.613 50.1758 152.613 52.4405C152.613 54.7053 154.461 56.5412 156.74 56.5412Z" fill="#F2662B"/>
<path d="M63.9567 52.446C60.5246 52.446 57.6592 51.335 55.3604 49.113C53.0617 46.891 51.9116 44.1319 51.9102 40.8357C51.9102 37.5396 53.0603 34.7805 55.3604 32.5585C57.6606 30.3365 60.526 29.2262 63.9567 29.2276C66.0651 29.2002 68.1458 29.7078 70.0018 30.7022C71.7649 31.644 73.2401 33.0403 74.2726 34.7443L68.7207 38.0991C68.2575 37.2714 67.5792 36.5824 66.7566 36.104C65.9092 35.6066 64.9409 35.3494 63.9567 35.3602C63.228 35.3376 62.5026 35.4656 61.8264 35.7363C61.1502 36.0069 60.5379 36.4142 60.0285 36.9324C59.0267 37.9883 58.4687 39.3846 58.4687 40.8357C58.4687 42.2869 59.0267 43.6832 60.0285 44.7391C60.5378 45.2574 61.1501 45.6647 61.8263 45.9354C62.5025 46.206 63.228 46.334 63.9567 46.3113C64.9399 46.3225 65.9075 46.066 66.7545 45.5696C67.577 45.0913 68.2553 44.4023 68.7186 43.5746L74.2704 46.9076C73.2433 48.6214 71.7672 50.0259 69.9996 50.9714C68.1442 51.9655 66.0644 52.473 63.9567 52.446Z" fill="#145A35"/>
<path d="M89.9892 29.5062C92.5513 29.619 94.5802 30.4762 96.0758 32.0781C97.5714 33.6799 98.2639 35.753 98.1534 38.2974L97.5729 51.8789L91.1983 51.5948L91.6806 40.1602C91.7387 38.8186 91.3947 37.7271 90.6483 36.8857C89.9019 36.0443 88.8835 35.5969 87.593 35.5434C86.2109 35.4826 85.0761 35.8441 84.1886 36.6276C83.3011 37.4112 82.8261 38.4846 82.7635 39.8479L82.2332 51.8702L75.8477 51.5948L77.2247 20.3203L83.6059 20.6044L83.0996 32.0781C84.9764 30.2464 87.2729 29.3891 89.9892 29.5062Z" fill="#145A35"/>
<path d="M139.778 31.3984C142.855 31.3984 145.418 32.5051 147.468 34.7185C149.518 36.9318 150.543 39.6945 150.543 43.0066C150.543 46.3172 149.518 49.0799 147.468 51.2947C145.418 53.5095 142.855 54.6168 139.778 54.6168C137.088 54.6168 134.846 53.7039 133.052 51.878V62.1915H126.664V31.9276H133.052V34.1351C134.846 32.3092 137.088 31.397 139.778 31.3984ZM134.61 46.9121C135.659 47.9193 137.06 48.4823 138.519 48.4823C139.977 48.4823 141.378 47.9193 142.427 46.9121C143.427 45.8552 143.984 44.4593 143.984 43.0087C143.984 41.5582 143.427 40.1623 142.427 39.1054C141.378 38.0982 139.977 37.5352 138.519 37.5352C137.06 37.5352 135.659 38.0982 134.61 39.1054C133.61 40.1623 133.053 41.5582 133.053 43.0087C133.053 44.4593 133.61 45.8552 134.61 46.9121Z" fill="#145A35"/>
<path d="M115.293 29.5454L115.866 41.9493C115.925 43.1912 115.594 44.2082 114.876 45.0005C114.157 45.7927 113.171 46.2163 111.919 46.2712C110.667 46.3305 109.644 45.9987 108.848 45.2759C108.052 44.553 107.625 43.5699 107.567 42.3267L106.993 29.9162L100.625 30.2154L101.238 43.4868C101.369 46.3146 102.439 48.5431 104.446 50.1724C106.452 51.801 108.505 52.5426 111.679 52.3995C113.237 52.3279 115.565 51.2718 116.399 50.4673L116.545 52.2021L122.732 51.9137L122.296 42.5218L122.169 39.7873L121.674 29.2656L115.293 29.5454Z" fill="#145A35"/>
<path d="M214.546 33.1875H218.496L212.523 49.7117H208.75L204.8 37.5246L200.817 49.7117H197.022L191.066 33.1875H195.143L199.012 45.1382L202.962 33.1875H206.69L210.657 45.1686L214.546 33.1875Z" fill="#F2662B"/>
<path d="M179.417 33.6445H176.379V36.6631H179.417V33.6445Z" fill="#F2662B"/>
<path d="M179.417 40.6172H176.379V43.6358H179.417V40.6172Z" fill="#F2662B"/>
<path d="M179.417 47.5898H176.379V50.6084H179.417V47.5898Z" fill="#F2662B"/>
<path d="M230.595 50.1053C228.058 50.1053 225.94 49.277 224.24 47.6202C222.541 45.9634 221.691 43.9055 221.691 41.4464C221.691 38.9887 222.541 36.9315 224.24 35.2748C225.94 33.618 228.058 32.7896 230.595 32.7896C232.179 32.7718 233.739 33.1618 235.126 33.9216C236.462 34.6496 237.572 35.7283 238.334 37.04C239.096 38.3854 239.497 39.9034 239.497 41.4475C239.497 42.9916 239.096 44.5096 238.334 45.855C237.572 47.1672 236.462 48.2454 235.124 48.9712C233.738 49.7314 232.178 50.1221 230.595 50.1053ZM226.916 45.1177C227.394 45.6018 227.968 45.9829 228.601 46.2373C229.234 46.4918 229.913 46.6141 230.595 46.5967C231.275 46.6154 231.95 46.4935 232.58 46.2389C233.209 45.9843 233.778 45.6025 234.251 45.1177C235.186 44.1208 235.707 42.8084 235.707 41.4453C235.707 40.0822 235.186 38.7698 234.251 37.7729C233.778 37.2881 233.209 36.9063 232.58 36.6517C231.95 36.3971 231.275 36.2753 230.595 36.294C229.912 36.277 229.233 36.4004 228.599 36.6564C227.966 36.9124 227.393 37.2954 226.916 37.7816C225.965 38.7689 225.434 40.0829 225.434 41.4497C225.434 42.8164 225.965 44.1304 226.916 45.1177Z" fill="#F2662B"/>
<path d="M254.223 32.9219H254.843V36.6582H254.223C252.609 36.6582 251.342 37.1093 250.424 38.0114C249.506 38.9135 249.046 40.1344 249.045 41.674V49.7149H245.383V33.1908H249.045V35.613C250.375 33.8204 252.101 32.9233 254.223 32.9219Z" fill="#F2662B"/>
<path d="M270.854 49.7114L265.566 43.6178L263.82 45.5023V49.7114H260.16V26.3672H263.824V40.6426L270.705 33.1872H275.467L268.156 40.8963L275.69 49.7114H270.854Z" fill="#F2662B"/>
<path d="M186.112 33.6445H183.074V36.6631H186.112V33.6445Z" fill="#F2662B"/>
<path d="M186.112 40.6172H183.074V43.6358H186.112V40.6172Z" fill="#F2662B"/>
<path d="M191.78 40.6172H188.742V43.6358H191.78V40.6172Z" fill="#F2662B"/>
<path d="M186.112 47.5898H183.074V50.6084H186.112V47.5898Z" fill="#F2662B"/>
<path d="M191.78 47.5898H188.742V50.6084H191.78V47.5898Z" fill="#F2662B"/>
<path d="M196.997 26.168H192.008V28.8634H196.997C197.058 28.8634 197.118 28.8755 197.175 28.8989C197.231 28.9222 197.282 28.9565 197.325 28.9996C197.368 29.0428 197.402 29.094 197.425 29.1502C197.448 29.2065 197.46 29.2668 197.459 29.3275V33.1875H200.17V29.3275C200.169 28.491 199.834 27.689 199.24 27.0969C198.645 26.5048 197.838 26.1708 196.997 26.168Z" fill="#F2662B"/>
<path d="M197.456 54.3804C197.455 54.4714 197.418 54.5586 197.353 54.6228C197.288 54.687 197.2 54.723 197.109 54.723H173.43C173.385 54.7236 173.339 54.7151 173.297 54.6982C173.254 54.6813 173.216 54.6562 173.183 54.6243C173.15 54.5925 173.124 54.5545 173.106 54.5126C173.089 54.4708 173.079 54.4258 173.079 54.3804V29.2255C173.079 29.1795 173.088 29.134 173.105 29.0915C173.123 29.049 173.149 29.0104 173.181 28.9779C173.214 28.9455 173.253 28.9198 173.295 28.9023C173.338 28.8849 173.384 28.876 173.43 28.8763H180.324V29.7437C180.324 30.025 180.437 30.2947 180.637 30.4936C180.837 30.6924 181.108 30.8041 181.391 30.8041C181.675 30.8041 181.946 30.6924 182.146 30.4936C182.346 30.2947 182.459 30.025 182.459 29.7437V28.8763V26.17V25.3026C182.459 25.0214 182.346 24.7516 182.146 24.5528C181.946 24.3539 181.675 24.2422 181.391 24.2422C181.108 24.2422 180.837 24.3539 180.637 24.5528C180.437 24.7516 180.324 25.0214 180.324 25.3026V26.17H173.43C172.621 26.174 171.846 26.4951 171.274 27.0636C170.702 27.6321 170.379 28.402 170.375 29.2059V54.3608C170.375 55.166 170.697 55.9382 171.27 56.5076C171.843 57.0769 172.62 57.3968 173.43 57.3968H197.109C197.919 57.3968 198.696 57.0769 199.269 56.5076C199.842 55.9382 200.164 55.166 200.164 54.3608V51.3618H197.456V54.3804Z" fill="#F2662B"/>
<path d="M184.681 29.7336C184.674 29.8767 184.697 30.0197 184.748 30.1539C184.798 30.288 184.876 30.4106 184.976 30.5142C185.075 30.6178 185.195 30.7002 185.328 30.7565C185.46 30.8129 185.603 30.8419 185.747 30.8419C185.891 30.8419 186.034 30.8129 186.167 30.7565C186.299 30.7002 186.419 30.6178 186.518 30.5142C186.618 30.4106 186.696 30.288 186.746 30.1539C186.797 30.0197 186.82 29.8767 186.813 29.7336V25.3054C186.801 25.0328 186.683 24.7754 186.484 24.5868C186.286 24.3982 186.022 24.293 185.747 24.293C185.472 24.293 185.208 24.3982 185.01 24.5868C184.811 24.7754 184.693 25.0328 184.681 25.3054V26.1728H183.293V28.8683H184.681V29.7336Z" fill="#F2662B"/>
<path d="M189.041 29.7307C189.041 30.012 189.153 30.2817 189.353 30.4805C189.553 30.6794 189.825 30.7911 190.108 30.7911C190.391 30.7911 190.662 30.6794 190.863 30.4805C191.063 30.2817 191.175 30.012 191.175 29.7307V25.3026C191.175 25.0214 191.063 24.7516 190.863 24.5528C190.662 24.3539 190.391 24.2422 190.108 24.2422C189.825 24.2422 189.553 24.3539 189.353 24.5528C189.153 24.7516 189.041 25.0214 189.041 25.3026V26.17H187.648V28.8655H189.041V29.7307Z" fill="#F2662B"/>
</svg>
