<svg width="336" height="82" viewBox="0 0 336 82" fill="none" xmlns="http://www.w3.org/2000/svg">
<path d="M58.5792 38.713C58.5776 33.8264 57.3289 29.0197 54.9495 24.7413C52.5701 20.4629 49.1376 16.852 44.972 14.2455C40.8064 11.639 36.0434 10.1216 31.1272 9.83499C26.2109 9.54835 21.3016 10.5017 16.8571 12.6063C12.4125 14.7108 8.57738 17.8979 5.70941 21.8704C2.84145 25.8428 1.03403 30.4713 0.455701 35.3241C-0.122627 40.1769 0.546974 45.096 2.40206 49.6227C4.25715 54.1493 7.2373 58.1361 11.0646 61.2112V37.9761C11.0646 33.3572 27.9104 22.664 29.5294 22.2344C31.1483 21.8048 38.0939 26.4237 39.936 27.3688C41.778 28.3139 49.8099 33.2557 48.7393 34.6591C47.6687 36.0624 44.8428 34.9689 42.6885 34.0108C40.5342 33.0526 30.1696 27.4729 29.4165 27.8062C28.6635 28.1395 22.8566 32.8365 21.1065 37.2341C19.3563 41.6317 22.9196 45.7455 27.7818 45.2143C32.644 44.6832 37.577 37.4997 39.5896 36.2759C42.4602 34.5627 44.4072 38.0985 44.4072 38.0985C36.0368 42.1706 36.8528 51.8979 32.2163 53.8403C27.5798 55.7826 24.9899 58.769 24.9899 60.5812V67.3247C31.389 68.297 37.9321 67.1261 43.5859 63.9972L56.7581 67.1216L54.3651 53.6814C57.1237 49.1686 58.5813 43.9911 58.5792 38.713ZM43.885 26.632C43.6939 26.8529 43.4263 26.995 43.135 27.0301C42.8437 27.0653 42.5496 26.9911 42.3106 26.822L35.554 23.0493C37.1598 22.8723 41.8514 22.2682 43.8273 23.8721C45.0212 24.8458 44.4859 25.9238 43.8771 26.632H43.885Z" fill="#F2662B"/>
<path d="M197.813 26.4464L192.266 54.2666L186.871 53.6834L187.475 25.332L197.813 26.4464Z" fill="white"/>
<path d="M188.462 67.0658C191.202 67.0658 193.424 64.8615 193.424 62.1423C193.424 59.4231 191.202 57.2188 188.462 57.2188C185.722 57.2188 183.5 59.4231 183.5 62.1423C183.5 64.8615 185.722 67.0658 188.462 67.0658Z" fill="#F2662B"/>
<path d="M76.91 62.1404C72.7834 62.1404 69.3381 60.8065 66.5743 58.1386C63.8104 55.4707 62.4275 52.158 62.4258 48.2004C62.4258 44.2428 63.8086 40.9301 66.5743 38.2622C69.3399 35.5943 72.7852 34.2612 76.91 34.263C79.4451 34.2301 81.9468 34.8395 84.1784 36.0335C86.2982 37.1643 88.072 38.8407 89.3134 40.8867L82.6381 44.9146C82.0811 43.9208 81.2656 43.0936 80.2765 42.5192C79.2576 41.922 78.0933 41.6132 76.91 41.6262C76.0339 41.599 75.1617 41.7527 74.3486 42.0777C73.5356 42.4026 72.7994 42.8917 72.1869 43.5138C70.9824 44.7816 70.3115 46.4581 70.3115 48.2004C70.3115 49.9427 70.9824 51.6192 72.1869 52.887C72.7993 53.5093 73.5354 53.9984 74.3485 54.3234C75.1616 54.6483 76.0339 54.802 76.91 54.7747C78.0922 54.7881 79.2556 54.4802 80.2739 53.8842C81.263 53.3099 82.0785 52.4826 82.6355 51.4888L89.3108 55.4907C88.0758 57.5483 86.301 59.2347 84.1757 60.3699C81.9449 61.5635 79.4442 62.1729 76.91 62.1404Z" fill="white"/>
<path d="M108.199 34.6073C111.279 34.7426 113.718 35.772 115.517 37.6952C117.315 39.6184 118.148 42.1075 118.015 45.1625L117.317 61.4693L109.652 61.1282L110.232 47.3991C110.302 45.7883 109.888 44.4778 108.991 43.4675C108.094 42.4573 106.869 41.9201 105.317 41.8559C103.656 41.783 102.291 42.2169 101.224 43.1577C100.157 44.0985 99.5858 45.3873 99.5106 47.0241L98.873 61.4589L91.1953 61.1282L92.851 23.5781L100.523 23.9192L99.9147 37.6952C102.171 35.496 104.933 34.4667 108.199 34.6073Z" fill="white"/>
<path d="M168.064 36.8789C171.764 36.8789 174.846 38.2076 177.311 40.8651C179.776 43.5226 181.008 46.8397 181.008 50.8163C181.008 54.7913 179.776 58.1083 177.311 60.7675C174.846 63.4268 171.764 64.7564 168.064 64.7564C164.83 64.7564 162.134 63.6602 159.977 61.4679V73.851H152.297V37.5142H159.977V40.1647C162.134 37.9725 164.83 36.8772 168.064 36.8789ZM161.851 55.5055C163.112 56.7149 164.797 57.3908 166.55 57.3908C168.304 57.3908 169.989 56.7149 171.25 55.5055C172.452 54.2366 173.121 52.5605 173.121 50.8189C173.121 49.0773 172.452 47.4013 171.25 46.1323C169.989 44.923 168.304 44.247 166.55 44.247C164.797 44.247 163.112 44.923 161.851 46.1323C160.649 47.4013 159.979 49.0773 159.979 50.8189C159.979 52.5605 160.649 54.2366 161.851 55.5055Z" fill="white"/>
<path d="M138.624 34.6523L139.314 49.5453C139.384 51.0363 138.987 52.2574 138.123 53.2086C137.259 54.1598 136.073 54.6684 134.567 54.7344C133.063 54.8055 131.832 54.4072 130.875 53.5393C129.918 52.6714 129.405 51.4911 129.335 49.9983L128.645 35.0975L120.988 35.4568L121.726 51.3913C121.883 54.7864 123.169 57.4621 125.583 59.4184C127.994 61.3737 130.463 62.2642 134.279 62.0923C136.152 62.0064 138.952 60.7384 139.954 59.7725L140.13 61.8554L147.569 61.5091L147.044 50.2326L146.892 46.9494L146.296 34.3164L138.624 34.6523Z" fill="white"/>
<path d="M224.385 34.815C222.229 33.6621 219.818 33.0586 217.369 33.0586C214.92 33.0586 212.509 33.6621 210.353 34.815C208.292 35.9466 206.585 37.6182 205.416 39.6473C204.382 41.4907 203.778 43.5414 203.651 45.6475C203.523 47.7537 203.874 49.8614 204.679 51.8145C205.336 53.4221 206.316 54.8802 207.559 56.0997C208.803 57.3192 210.284 58.2747 211.911 58.908C215.41 60.2935 219.312 60.2935 222.811 58.908C224.444 58.2626 225.933 57.3045 227.192 56.0882C228.429 54.8682 229.408 53.4151 230.071 51.8145C230.78 50.1296 231.139 48.3202 231.128 46.4944C231.157 44.0936 230.536 41.729 229.331 39.6473C228.158 37.6184 226.447 35.9471 224.385 34.815ZM224.36 52.4804V49.4972C224.354 48.748 224.048 48.0318 223.511 47.5052C222.974 46.9786 222.249 46.6845 221.494 46.6871H220.719C219.969 46.6909 219.251 46.9882 218.72 47.5143C218.19 48.0403 217.889 48.7529 217.885 49.4972V55.5954C217.708 55.5954 217.533 55.6198 217.354 55.6198C217.174 55.6198 216.929 55.6052 216.72 55.593V49.4947C216.72 48.4239 217.111 47.1774 218.138 46.6847H216.902C216.152 46.6891 215.434 46.9866 214.904 47.5127C214.374 48.0387 214.074 48.7508 214.07 49.4947V55.0441C213.733 54.9217 213.405 54.7791 213.086 54.6173V49.4947C213.086 48.4239 213.477 47.1774 214.505 46.6847H213.239C212.489 46.6891 211.771 46.9866 211.241 47.5127C210.711 48.0387 210.411 48.7508 210.407 49.4947V52.4853C208.981 50.8388 208.261 48.841 208.261 46.492C208.261 43.89 209.128 41.724 210.864 39.9937C212.6 38.2634 214.764 37.3966 217.356 37.3934C219.961 37.3934 222.136 38.2601 223.883 39.9937C225.63 41.7272 226.504 43.8933 226.504 46.492C226.504 48.841 225.783 50.8339 224.36 52.4804Z" fill="#F2662B"/>
<path d="M256.568 59.4884V47.4114C256.568 45.1347 255.867 43.3036 254.466 41.9181C253.065 40.5326 251.216 39.8398 248.92 39.8398C246.164 39.8398 243.991 40.8204 242.401 42.7816V40.3009H238.141V59.4884H242.401V48.8652C242.401 47.3691 242.87 46.1682 243.807 45.2624C244.744 44.3566 245.979 43.9045 247.512 43.9062C248.969 43.9062 250.136 44.3542 251.012 45.2502C251.889 46.1462 252.328 47.3277 252.328 48.7945V59.4933L256.568 59.4884Z" fill="#F2662B"/>
<path d="M268.561 32.375H264.301V59.4829H268.561V32.375Z" fill="#F2662B"/>
<path d="M280.877 40.3047H276.617V59.4922H280.877V40.3047Z" fill="#F2662B"/>
<path d="M278.739 31.712C278.383 31.7029 278.029 31.765 277.698 31.8945C277.367 32.024 277.066 32.2182 276.812 32.4658C276.314 32.9759 276.035 33.6582 276.035 34.3684C276.035 35.0786 276.314 35.761 276.812 36.2711C277.063 36.5233 277.364 36.7218 277.695 36.8543C278.026 36.9869 278.382 37.0507 278.739 37.0419C279.098 37.0519 279.456 36.9896 279.79 36.8588C280.124 36.728 280.428 36.5314 280.683 36.2808C281.183 35.7697 281.463 35.0855 281.463 34.3733C281.463 33.6611 281.183 32.9769 280.683 32.4658C280.427 32.2172 280.122 32.0224 279.788 31.8929C279.454 31.7634 279.097 31.7019 278.739 31.712Z" fill="#F2662B"/>
<path d="M299.702 39.8398C296.947 39.8398 294.773 40.8204 293.182 42.7816V40.3009H288.922V59.4884H293.182V48.8652C293.182 47.3691 293.651 46.1682 294.588 45.2624C295.526 44.3566 296.761 43.9029 298.293 43.9013C299.748 43.9013 300.915 44.3493 301.794 45.2453C302.672 46.1414 303.11 47.3228 303.109 48.7896V59.4884H307.359V47.4114C307.359 45.1347 306.659 43.3036 305.257 41.9181C303.856 40.5326 302.004 39.8398 299.702 39.8398Z" fill="#F2662B"/>
<path d="M324.141 39.8405C322.324 39.8196 320.534 40.2695 318.946 41.1456C317.41 41.9871 316.135 43.2296 315.259 44.7386C314.365 46.2836 313.905 48.0383 313.927 49.8197C313.927 52.7013 314.942 55.1089 316.972 57.0425C319.003 58.976 321.55 59.9444 324.613 59.9477C326.335 59.9618 328.039 59.5978 329.603 58.8817C331.096 58.2165 332.408 57.2081 333.431 55.9399L330.562 53.5006C329.912 54.3146 329.077 54.9642 328.126 55.3959C327.071 55.8989 325.915 56.1558 324.746 56.1472C323.302 56.1866 321.886 55.7509 320.719 54.9081C319.611 54.0973 318.832 52.9209 318.521 51.5906H334.193C334.267 51.0425 334.304 50.4899 334.303 49.9368C334.303 47.0438 333.336 44.6386 331.403 42.7213C329.469 40.8041 327.048 39.8438 324.141 39.8405ZM318.472 48.1342C318.775 46.8562 319.495 45.7132 320.52 44.8826C321.531 44.0683 322.801 43.6362 324.104 43.6629C325.418 43.6363 326.699 44.0679 327.725 44.8826C328.756 45.7043 329.472 46.852 329.753 48.1342H318.472Z" fill="#F2662B"/>
<path d="M217.166 42.1602C216.875 42.1602 216.589 42.246 216.347 42.4068C216.104 42.5676 215.915 42.7962 215.804 43.0636C215.692 43.3311 215.663 43.6254 215.72 43.9093C215.777 44.1932 215.917 44.454 216.123 44.6586C216.33 44.8633 216.593 45.0027 216.879 45.0592C217.165 45.1157 217.461 45.0867 217.731 44.9759C218 44.8651 218.231 44.6775 218.393 44.4369C218.555 44.1962 218.641 43.9132 218.641 43.6237C218.641 43.2356 218.486 42.8633 218.209 42.5888C217.933 42.3144 217.558 42.1602 217.166 42.1602Z" fill="#F2662B"/>
<path d="M221.123 42.1602C220.832 42.1602 220.547 42.246 220.304 42.4068C220.061 42.5676 219.872 42.7962 219.761 43.0636C219.649 43.3311 219.62 43.6254 219.677 43.9093C219.734 44.1932 219.874 44.454 220.08 44.6586C220.287 44.8633 220.55 45.0027 220.836 45.0592C221.122 45.1157 221.418 45.0867 221.688 44.9759C221.957 44.8651 222.188 44.6775 222.35 44.4369C222.512 44.1962 222.598 43.9132 222.598 43.6237C222.598 43.2356 222.443 42.8633 222.166 42.5888C221.89 42.3144 221.515 42.1602 221.123 42.1602Z" fill="#F2662B"/>
<path d="M266.32 70.8042C264.158 70.7689 262.054 70.1076 260.267 68.9015C258.479 67.6954 257.086 65.9971 256.258 64.0156H252.836C253.746 66.8661 255.534 69.3612 257.95 71.149C260.365 72.9368 263.285 73.9271 266.298 73.9802H266.418C269.453 73.9584 272.403 72.982 274.844 71.1915C277.284 69.401 279.09 66.8886 280 64.0156H276.578C275.756 66.0404 274.337 67.7716 272.506 68.9829C270.676 70.1941 268.52 70.8289 266.32 70.8042Z" fill="#F2662B"/>
</svg>
