<svg width="27" height="21" viewBox="0 0 27 21" fill="none" xmlns="http://www.w3.org/2000/svg">
<path d="M25.1428 0.407227H1.14282C0.877606 0.407227 0.623252 0.512584 0.435715 0.70012C0.248179 0.887656 0.142822 1.14201 0.142822 1.40723V18.4072C0.142822 18.9377 0.353536 19.4464 0.728609 19.8214C1.10368 20.1965 1.61239 20.4072 2.14282 20.4072H24.1428C24.6733 20.4072 25.182 20.1965 25.557 19.8214C25.9321 19.4464 26.1428 18.9377 26.1428 18.4072V1.40723C26.1428 1.14201 26.0375 0.887656 25.8499 0.70012C25.6624 0.512584 25.408 0.407227 25.1428 0.407227ZM9.48157 10.4072L2.14282 17.1335V3.68098L9.48157 10.4072ZM10.9616 11.7635L12.4616 13.1447C12.6461 13.3141 12.8874 13.4081 13.1378 13.4081C13.3883 13.4081 13.6296 13.3141 13.8141 13.1447L15.3141 11.7635L22.5641 18.4072H3.71407L10.9616 11.7635ZM16.8041 10.4072L24.1428 3.67973V17.1347L16.8041 10.4072Z" fill="white"/>
</svg>
