<svg width="410" height="64" viewBox="0 0 410 64" fill="none" xmlns="http://www.w3.org/2000/svg">
<path d="M62.7649 31.938C62.7632 26.6526 61.4234 21.4537 58.8705 16.8261C56.3176 12.1985 52.6346 8.29303 48.1652 5.47377C43.6957 2.65451 38.5853 1.01334 33.3105 0.703312C28.0357 0.39328 22.7683 1.42448 17.9995 3.70075C13.2307 5.97702 9.1159 9.42422 6.03874 13.7209C2.96159 18.0175 1.02233 23.0237 0.401817 28.2726C-0.218696 33.5214 0.499747 38.8419 2.49015 43.738C4.48055 48.6341 7.67808 52.9463 11.7845 56.2724V31.141C11.7845 26.1452 29.8591 14.5793 31.599 14.1146C33.3389 13.6499 40.7855 18.6458 42.7647 19.6681C44.7438 20.6903 53.356 26.0354 52.2073 27.5533C51.0587 29.0712 48.0294 27.8884 45.7151 26.852C43.4009 25.8157 32.2831 19.7835 31.4695 20.1327C30.6558 20.4819 24.4311 25.5735 22.5533 30.33C20.6754 35.0865 24.4987 39.536 29.7155 38.9615C34.9324 38.387 40.228 30.6172 42.3846 29.2936C45.4646 27.4406 47.5536 31.265 47.5536 31.265C38.5726 35.6694 39.451 46.1905 34.4734 48.2914C29.4959 50.3922 26.7284 53.6083 26.7284 55.5683V62.8622C33.5945 63.9226 40.6181 62.6641 46.6892 59.2856L60.8223 62.665L58.2603 48.1337C61.2164 43.2497 62.7746 37.6474 62.7649 31.938ZM46.9989 18.8711C46.7942 19.1106 46.5071 19.2647 46.1943 19.3027C45.8816 19.3408 45.5659 19.2601 45.3097 19.0767L38.0602 14.9961C39.7832 14.8046 44.817 14.1512 46.937 15.886C48.2208 16.9392 47.6465 18.1051 46.9989 18.8711Z" fill="#F2662B"/>
<path d="M218.888 9.27548L212.606 41.0142L206.499 40.3488L207.182 8.00415L218.888 9.27548Z" fill="white"/>
<path d="M208.312 55.6139C211.415 55.6139 213.93 53.0991 213.93 49.9969C213.93 46.8947 211.415 44.3799 208.312 44.3799C205.21 44.3799 202.695 46.8947 202.695 49.9969C202.695 53.0991 205.21 55.6139 208.312 55.6139Z" fill="#F2662B"/>
<path d="M82.0089 49.9947C77.3354 49.9947 73.4343 48.4728 70.3054 45.4292C67.1765 42.3855 65.6111 38.6062 65.6091 34.0912C65.6091 29.5762 67.1746 25.7968 70.3054 22.7531C73.4362 19.7095 77.3374 18.1886 82.0089 18.1906C84.8778 18.1535 87.7087 18.8487 90.234 20.2105C92.6347 21.5005 94.6437 23.4131 96.0502 25.7473L88.4904 30.3425C87.8611 29.2079 86.9376 28.2638 85.817 27.6098C84.6643 26.9293 83.3474 26.5769 82.0089 26.5909C81.0212 26.5639 80.0385 26.7413 79.1225 27.1118C78.2065 27.4824 77.377 28.0382 76.6859 28.7444C75.3243 30.1918 74.5662 32.104 74.5662 34.0912C74.5662 36.0783 75.3243 37.9905 76.6859 39.4379C77.3771 40.1437 78.2068 40.6991 79.1228 41.0691C80.0388 41.4392 81.0214 41.616 82.0089 41.5884C83.3472 41.6035 84.6641 41.2522 85.817 40.5726C86.9376 39.9185 87.8611 38.9744 88.4904 37.8398L96.0502 42.4053C94.6509 44.7529 92.6407 46.6768 90.234 47.9718C87.709 49.3347 84.878 50.0309 82.0089 49.9947Z" fill="white"/>
<path d="M117.45 18.5865C120.935 18.741 123.697 19.9153 125.734 22.1094C127.772 24.3035 128.715 27.1432 128.562 30.6285L127.778 49.2321L119.096 48.843L119.749 33.1712C119.828 31.3335 119.36 29.8384 118.344 28.6859C117.328 27.5334 115.942 26.9205 114.185 26.8472C112.308 26.764 110.763 27.2591 109.551 28.3324C108.34 29.4057 107.693 30.883 107.612 32.7642L106.893 49.2321L98.1985 48.843L100.076 6.00391L108.758 6.38412L108.072 22.1094C110.623 19.6004 113.749 18.4261 117.45 18.5865Z" fill="white"/>
<path d="M185.22 21.1726C189.405 21.1726 192.893 22.6885 195.685 25.7203C198.478 28.7521 199.874 32.5364 199.874 37.0732C199.874 41.608 198.478 45.3922 195.685 48.426C192.893 51.4598 189.405 52.9767 185.22 52.9767C181.559 52.9767 178.506 51.7261 176.063 49.225V63.3523H167.371V21.8974H176.063V24.9213C178.504 22.4202 181.557 21.1706 185.22 21.1726ZM178.183 42.4228C179.611 43.8027 181.519 44.574 183.505 44.574C185.491 44.574 187.399 43.8027 188.827 42.4228C190.187 40.9752 190.945 39.063 190.945 37.0761C190.945 35.0892 190.187 33.1771 188.827 31.7294C187.399 30.3496 185.491 29.5783 183.505 29.5783C181.519 29.5783 179.611 30.3496 178.183 31.7294C176.823 33.1771 176.065 35.0892 176.065 37.0761C176.065 39.063 176.823 40.9752 178.183 42.4228Z" fill="white"/>
<path d="M151.879 18.6302L152.66 35.6209C152.737 37.322 152.287 38.7151 151.309 39.8003C150.33 40.8855 148.99 41.4657 147.287 41.5409C145.582 41.6221 144.187 41.1677 143.104 40.1775C142.021 39.1874 141.441 37.8408 141.364 36.1378L140.582 19.1382L131.897 19.5362L132.734 37.7151C132.913 41.5885 134.367 44.641 137.098 46.8728C139.828 49.1036 142.626 50.1194 146.942 49.9234C149.063 49.8254 152.232 48.3788 153.37 47.2768L153.566 49.6531L161.99 49.258L161.396 36.3932L161.224 32.6476L160.561 18.2471L151.879 18.6302Z" fill="white"/>
<path d="M264.562 34.3393L266.454 38.7949L269.314 29.6639L272.163 41.501L274.373 34.2948L276.155 38.584L277.124 36.9147H281.93C281.778 35.3834 281.302 33.9021 280.534 32.569C279.563 30.8991 278.157 29.5251 276.464 28.5946C274.709 27.6296 272.734 27.1334 270.731 27.1539C267.519 27.1539 264.835 28.2104 262.678 30.3233C260.819 32.1203 259.691 34.5426 259.512 37.1226H263.076L264.562 34.3393Z" fill="#F2662B"/>
<path d="M275.974 41.8022L274.587 38.5021L271.991 46.9173L269.131 35.0149L266.644 42.934L264.402 37.6437L263.906 38.5556H259.491C259.501 39.9558 259.791 41.34 260.343 42.6269C260.895 43.9138 261.698 45.0776 262.705 46.0499C264.862 48.1629 267.546 49.2184 270.758 49.2164C272.762 49.2427 274.738 48.7462 276.491 47.7757C278.186 46.8496 279.594 45.4759 280.561 43.8043C281.521 42.1461 282.026 40.2638 282.025 38.3477H277.976L275.974 41.8022Z" fill="#F2662B"/>
<path d="M303.866 39.3047C303.577 38.8974 303.226 38.5377 302.826 38.2383C302.439 37.9363 302.028 37.6662 301.597 37.4304C301.127 37.1916 300.638 36.9928 300.135 36.8363C299.541 36.6402 299.057 36.4917 298.65 36.3907C298.243 36.2897 297.759 36.1709 297.147 36.0372C296.609 35.9184 296.196 35.8204 295.908 35.7402C295.62 35.66 295.264 35.5649 294.839 35.4432C294.507 35.3514 294.186 35.226 293.88 35.0689C293.645 34.9365 293.42 34.7886 293.205 34.6263C292.991 34.4762 292.82 34.2709 292.712 34.0322C292.615 33.8032 292.566 33.5563 292.57 33.3074C292.57 32.6104 292.923 32.0787 293.63 31.7123C294.471 31.3206 295.394 31.1343 296.321 31.1688C298.34 31.1598 300.293 31.8923 301.808 33.2272L304.246 29.9598C301.996 28.0927 299.149 27.0974 296.226 27.1557C294.798 27.1334 293.377 27.3689 292.032 27.8508C290.838 28.2823 289.791 29.0409 289.008 30.04C288.217 31.0671 287.804 32.3353 287.838 33.6312C287.823 34.7496 288.133 35.8483 288.729 36.7947C289.013 37.2158 289.368 37.5846 289.777 37.8848C290.169 38.1857 290.584 38.4549 291.019 38.6898C291.49 38.9246 291.979 39.1232 292.48 39.2839C293.075 39.4819 293.57 39.6334 293.966 39.7384C294.358 39.8393 294.857 39.9641 295.481 40.1126C296.104 40.2611 296.58 40.38 296.921 40.475C297.263 40.5701 297.664 40.6948 298.109 40.8582C298.478 40.9761 298.828 41.1451 299.149 41.3602C299.384 41.5395 299.585 41.7587 299.743 42.0077C299.913 42.2649 300.001 42.5672 299.996 42.8751C299.996 43.5999 299.607 44.1672 298.828 44.5771C297.906 45.0198 296.892 45.2366 295.87 45.2098C294.712 45.2314 293.561 45.0233 292.485 44.5976C291.408 44.1719 290.426 43.537 289.596 42.7295L287.196 45.997C289.605 48.1337 292.73 49.2854 295.95 49.2228C297.47 49.2462 298.981 48.9864 300.406 48.4565C301.655 47.9923 302.749 47.1852 303.56 46.1277C304.121 45.3539 304.497 44.4619 304.66 43.5202C304.823 42.5784 304.768 41.612 304.499 40.6948C304.356 40.2033 304.143 39.735 303.866 39.3047Z" fill="#F2662B"/>
<path d="M329.768 28.6762C328.175 27.7142 326.345 27.2153 324.484 27.2356C323.03 27.2177 321.591 27.5359 320.281 28.1653C319.018 28.7747 317.916 29.6721 317.064 30.7852V27.7405H312.424V56.6395H317.064V45.7293C317.92 46.8475 319.024 47.7514 320.29 48.37C321.598 48.9976 323.033 49.3147 324.484 49.2967C326.345 49.3184 328.175 48.8194 329.768 47.8561C331.353 46.8983 332.643 45.5234 333.499 43.8817C334.387 42.1431 334.851 40.2185 334.851 38.2661C334.851 36.3137 334.387 34.3892 333.499 32.6506C332.642 31.0098 331.352 29.6352 329.768 28.6762ZM328.215 42.9341C326.972 44.1437 325.306 44.8204 323.572 44.8204C321.838 44.8204 320.172 44.1437 318.929 42.9341C317.731 41.6733 317.064 40.0007 317.064 38.2617C317.064 36.5227 317.731 34.8501 318.929 33.5893C320.168 32.3727 321.835 31.6911 323.572 31.6911C325.308 31.6911 326.976 32.3727 328.215 33.5893C329.407 34.8528 330.071 36.5244 330.071 38.2617C330.071 39.999 329.407 41.6706 328.215 42.9341Z" fill="#F2662B"/>
<path d="M347.01 27.0037H342.374V48.0578H347.01V27.0037Z" fill="#F2662B"/>
<path d="M362.661 21.9622H358.042V27.4277H354.477V31.61H358.042V42.3034C358.042 44.4005 358.607 46.0343 359.738 47.2046C360.868 48.3749 362.542 48.9591 364.758 48.9571C366.096 48.9797 367.42 48.6823 368.619 48.0898V43.7886C367.726 44.2472 366.739 44.4951 365.735 44.5134C364.752 44.5134 363.997 44.2698 363.466 43.7768C362.934 43.2837 362.67 42.5589 362.67 41.5906V31.61H368.61V27.4277H362.67L362.661 21.9622Z" fill="#F2662B"/>
<path d="M391.512 30.7369C389.67 28.3982 387.209 27.2288 384.13 27.2288C382.273 27.2055 380.445 27.6986 378.852 28.6532C377.259 29.6078 375.962 30.9863 375.106 32.6349C374.225 34.3794 373.765 36.3064 373.765 38.2609C373.765 40.2153 374.225 42.1424 375.106 43.8868C375.963 45.5345 377.26 46.912 378.853 47.866C380.446 48.82 382.273 49.3129 384.13 49.29C387.196 49.29 389.656 48.1137 391.512 45.7611V48.7969H396.148V27.7427H391.512V30.7369ZM389.667 42.9155C389.068 43.5338 388.347 44.0207 387.55 44.3454C386.753 44.6701 385.897 44.8255 385.036 44.8017C384.17 44.826 383.309 44.6709 382.506 44.3463C381.703 44.0217 380.975 43.5346 380.37 42.9155C379.172 41.6523 378.504 39.9779 378.504 38.2371C378.504 36.4964 379.172 34.8219 380.37 33.5587C380.976 32.9402 381.703 32.4534 382.506 32.1289C383.309 31.8043 384.17 31.649 385.036 31.6725C385.897 31.6492 386.752 31.8049 387.55 32.1296C388.347 32.4542 389.068 32.9409 389.667 33.5587C390.852 34.8283 391.511 36.5003 391.511 38.2371C391.511 39.9739 390.852 41.6459 389.667 42.9155Z" fill="#F2662B"/>
<path d="M409.815 18.4956H405.178V48.2412H409.815V18.4956Z" fill="#F2662B"/>
<path d="M246.46 32.1603H232.484V20.3054H227.583V48.8004H232.484V36.7792H246.46V48.8004H251.319V20.3054H246.46V32.1603Z" fill="#F2662B"/>
<path d="M344.7 24.4139C346.266 24.4139 347.537 23.1439 347.537 21.5772C347.537 20.0105 346.266 18.7405 344.7 18.7405C343.133 18.7405 341.863 20.0105 341.863 21.5772C341.863 23.1439 343.133 24.4139 344.7 24.4139Z" fill="#F2662B"/>
</svg>
