<svg width="304" height="61" viewBox="0 0 304 61" fill="none" xmlns="http://www.w3.org/2000/svg">
<g clip-path="url(#clip0_1_11873)">
<path d="M53.1287 27.6262C53.1272 23.1576 51.9941 18.7621 49.8351 14.8497C47.6761 10.9372 44.5615 7.63525 40.7816 5.25167C37.0018 2.86809 32.6799 1.48054 28.219 1.21842C23.758 0.9563 19.3034 1.82814 15.2704 3.75265C11.2374 5.67715 7.75748 8.59164 5.15512 12.2243C2.55275 15.857 0.912711 20.0895 0.387941 24.5272C-0.136829 28.9649 0.470761 33.4633 2.15405 37.6027C3.83734 41.7422 6.5415 45.3879 10.0144 48.2V26.9524C10.0144 22.7286 25.3001 12.95 26.7691 12.5572C28.2382 12.1643 34.5406 16.3881 36.212 17.2524C37.8834 18.1167 45.1715 22.6358 44.2001 23.9191C43.2287 25.2024 40.6644 24.2024 38.7096 23.3262C36.7548 22.45 27.3501 17.3477 26.6667 17.6524C25.9834 17.9572 20.7144 22.2524 19.1263 26.2739C17.5382 30.2953 20.7715 34.0572 25.1834 33.5715C29.5953 33.0858 34.0715 26.5167 35.8977 25.3977C38.5025 23.831 40.2691 27.0643 40.2691 27.0643C32.6739 30.7881 33.4144 39.6834 29.2072 41.4596C25.0001 43.2358 22.6501 45.9667 22.6501 47.6238V53.7905C28.4565 54.6796 34.3937 53.609 39.5239 50.7477L51.4763 53.6048L49.3048 41.3143C51.808 37.1875 53.1306 32.4529 53.1287 27.6262ZM39.7953 16.5786C39.6219 16.7807 39.3791 16.9106 39.1148 16.9427C38.8504 16.9749 38.5836 16.907 38.3667 16.7524L32.2358 13.3024C33.6929 13.1405 37.9501 12.5881 39.7429 14.0548C40.8263 14.9453 40.3406 15.931 39.7882 16.5786H39.7953Z" fill="#F2662B"/>
<path d="M179.469 16.4119L174.436 41.8523L169.541 41.319L170.088 15.3928L179.469 16.4119Z" fill="#115934"/>
<path d="M170.988 53.5572C173.475 53.5572 175.491 51.5415 175.491 49.0549C175.491 46.5683 173.475 44.5525 170.988 44.5525C168.502 44.5525 166.486 46.5683 166.486 49.0549C166.486 51.5415 168.502 53.5572 170.988 53.5572Z" fill="#F2662B"/>
<path d="M69.762 49.0548C66.0176 49.0548 62.8914 47.835 60.3834 45.3953C57.8755 42.9556 56.6207 39.9262 56.6191 36.3072C56.6191 32.6881 57.8739 29.6588 60.3834 27.2191C62.8929 24.7794 66.0191 23.5604 69.762 23.5619C72.0623 23.5319 74.3323 24.0891 76.3572 25.181C78.2808 26.2151 79.8903 27.7481 81.0168 29.6191L74.9596 33.3024C74.4542 32.3936 73.7142 31.6372 72.8168 31.1119C71.8922 30.5658 70.8357 30.2834 69.762 30.2953C68.967 30.2704 68.1756 30.411 67.4378 30.7082C66.7001 31.0053 66.0321 31.4525 65.4763 32.0215C64.3833 33.1808 63.7746 34.7139 63.7746 36.3072C63.7746 37.9005 64.3833 39.4336 65.4763 40.5929C66.032 41.1619 66.6999 41.6092 67.4377 41.9064C68.1755 42.2036 68.967 42.3441 69.762 42.3191C70.8347 42.3314 71.8903 42.0498 72.8144 41.5048C73.7118 40.9796 74.4519 40.2231 74.9572 39.3143L81.0144 42.9739C79.8937 44.8555 78.2833 46.3976 76.3549 47.4358C74.3306 48.5272 72.0615 49.0845 69.762 49.0548Z" fill="#115934"/>
<path d="M98.1546 23.8762C100.95 24.0001 103.163 24.9413 104.795 26.7001C106.427 28.4588 107.182 30.735 107.062 33.5286L106.428 48.4405L99.4737 48.1286L99.9999 35.5739C100.063 34.1008 99.688 32.9024 98.8737 31.9786C98.0594 31.0548 96.9483 30.5635 95.5404 30.5048C94.0324 30.4381 92.7943 30.835 91.8261 31.6953C90.8578 32.5556 90.3396 33.7342 90.2713 35.231L89.6927 48.431L82.7261 48.1286L84.2285 13.7905L91.1904 14.1024L90.638 26.7001C92.6856 24.6889 95.1912 23.7477 98.1546 23.8762Z" fill="#115934"/>
<path d="M152.479 25.9478C155.836 25.9478 158.633 27.1628 160.869 29.593C163.106 32.0232 164.224 35.0565 164.224 38.693C164.224 42.3279 163.106 45.3612 160.869 47.793C158.633 50.2247 155.836 51.4406 152.479 51.4406C149.544 51.4406 147.098 50.4382 145.14 48.4335V59.7573H138.171V26.5287H145.14V28.9525C147.098 26.9478 149.544 25.9462 152.479 25.9478ZM146.84 42.9811C147.985 44.087 149.514 44.7051 151.105 44.7051C152.696 44.7051 154.225 44.087 155.369 42.9811C156.46 41.8207 157.067 40.288 157.067 38.6954C157.067 37.1028 156.46 35.5701 155.369 34.4097C154.225 33.3038 152.696 32.6856 151.105 32.6856C149.514 32.6856 147.985 33.3038 146.84 34.4097C145.75 35.5701 145.142 37.1028 145.142 38.6954C145.142 40.288 145.75 41.8207 146.84 42.9811Z" fill="#115934"/>
<path d="M125.764 23.9121L126.391 37.5312C126.454 38.8947 126.094 40.0113 125.31 40.8812C124.525 41.751 123.45 42.2161 122.083 42.2764C120.718 42.3415 119.602 41.9772 118.733 41.1836C117.865 40.3899 117.399 39.3105 117.336 37.9455L116.71 24.3193L109.762 24.6478L110.431 39.2193C110.574 42.324 111.741 44.7709 113.931 46.5597C116.119 48.3478 118.36 49.1621 121.821 49.005C123.521 48.9264 126.062 47.7669 126.971 46.8836L127.131 48.7883L133.881 48.4716L133.405 38.1597L133.267 35.1574L132.726 23.605L125.764 23.9121Z" fill="#115934"/>
<path d="M203.599 24.0647C201.643 23.0104 199.455 22.4585 197.233 22.4585C195.011 22.4585 192.823 23.0104 190.867 24.0647C188.997 25.0995 187.447 26.6281 186.387 28.4836C185.449 30.1693 184.901 32.0446 184.785 33.9706C184.669 35.8966 184.988 37.824 185.718 39.6101C186.314 41.0802 187.204 42.4135 188.332 43.5287C189.46 44.6439 190.804 45.5177 192.281 46.0968C195.456 47.3637 198.996 47.3637 202.171 46.0968C203.653 45.5066 205.004 44.6304 206.146 43.5181C207.269 42.4025 208.157 41.0738 208.759 39.6101C209.402 38.0693 209.728 36.4147 209.718 34.745C209.744 32.5496 209.181 30.3872 208.087 28.4836C207.023 26.6282 205.471 25.0999 203.599 24.0647ZM203.577 40.219V37.4909C203.571 36.8058 203.294 36.1509 202.807 35.6694C202.319 35.1878 201.661 34.9189 200.976 34.9212H200.273C199.593 34.9248 198.941 35.1965 198.459 35.6776C197.978 36.1587 197.705 36.8103 197.701 37.4909V43.0676C197.541 43.0676 197.382 43.0899 197.219 43.0899C197.057 43.0899 196.834 43.0765 196.644 43.0653V37.4887C196.644 36.5095 196.999 35.3696 197.931 34.919H196.809C196.129 34.9231 195.478 35.1952 194.997 35.6762C194.515 36.1572 194.243 36.8085 194.239 37.4887V42.5634C193.934 42.4515 193.636 42.3211 193.347 42.1731V37.4887C193.347 36.5095 193.702 35.3696 194.634 34.919H193.485C192.805 34.9231 192.154 35.1952 191.673 35.6762C191.192 36.1572 190.92 36.8085 190.916 37.4887V40.2235C189.622 38.7178 188.968 36.8909 188.968 34.7428C188.968 32.3634 189.756 30.3826 191.331 28.8004C192.905 27.2181 194.869 26.4255 197.222 26.4225C199.585 26.4225 201.559 27.2151 203.144 28.8004C204.729 30.3856 205.522 32.3664 205.522 34.7428C205.522 36.8909 204.868 38.7133 203.577 40.219Z" fill="#F2662B"/>
<path d="M232.797 46.627V35.5831C232.797 33.5012 232.161 31.8267 230.889 30.5597C229.618 29.2927 227.94 28.6592 225.857 28.6592C223.356 28.6592 221.384 29.5559 219.941 31.3493V29.0808H216.076V46.627H219.941V36.9126C219.941 35.5444 220.367 34.4462 221.217 33.6179C222.068 32.7896 223.188 32.3762 224.579 32.3777C225.901 32.3777 226.96 32.7874 227.755 33.6067C228.551 34.4261 228.949 35.5065 228.949 36.8479V46.6315L232.797 46.627Z" fill="#F2662B"/>
<path d="M243.686 21.8354H239.82V46.6246H243.686V21.8354Z" fill="#F2662B"/>
<path d="M254.859 29.0808H250.994V46.6271H254.859V29.0808Z" fill="#F2662B"/>
<path d="M252.925 21.2249C252.602 21.2166 252.281 21.2733 251.981 21.3917C251.68 21.5101 251.407 21.6878 251.176 21.9141C250.724 22.3806 250.472 23.0046 250.472 23.654C250.472 24.3035 250.724 24.9275 251.176 25.3939C251.404 25.6246 251.677 25.8061 251.978 25.9273C252.279 26.0485 252.601 26.1069 252.925 26.0988C253.251 26.108 253.575 26.051 253.879 25.9314C254.182 25.8118 254.458 25.632 254.69 25.4029C255.143 24.9354 255.397 24.3098 255.397 23.6585C255.397 23.0072 255.143 22.3816 254.69 21.9141C254.457 21.6868 254.18 21.5087 253.877 21.3902C253.574 21.2718 253.25 21.2156 252.925 21.2249Z" fill="#F2662B"/>
<path d="M271.948 28.6592C269.448 28.6592 267.476 29.5559 266.032 31.3493V29.0808H262.167V46.627H266.032V36.9126C266.032 35.5444 266.458 34.4462 267.308 33.6179C268.159 32.7896 269.28 32.3747 270.67 32.3732C271.99 32.3732 273.049 32.7829 273.846 33.6023C274.643 34.4217 275.041 35.5021 275.04 36.8434V46.627H278.897V35.5831C278.897 33.5012 278.261 31.8267 276.989 30.5597C275.718 29.2927 274.037 28.6592 271.948 28.6592Z" fill="#F2662B"/>
<path d="M294.112 28.6598C292.464 28.6407 290.839 29.0521 289.398 29.8532C288.004 30.6227 286.847 31.759 286.052 33.1389C285.241 34.5518 284.824 36.1563 284.843 37.7854C284.843 40.4205 285.765 42.6222 287.607 44.3903C289.45 46.1585 291.761 47.044 294.54 47.047C296.103 47.0599 297.649 46.7271 299.068 46.0722C300.423 45.4639 301.614 44.5417 302.541 43.3821L299.938 41.1514C299.349 41.8958 298.591 42.4898 297.728 42.8846C296.771 43.3445 295.722 43.5795 294.661 43.5717C293.351 43.6077 292.066 43.2092 291.007 42.4385C290.002 41.6971 289.295 40.6213 289.013 39.4048H303.233C303.3 38.9035 303.334 38.3983 303.333 37.8925C303.333 35.2469 302.456 33.0475 300.701 31.2942C298.946 29.5409 296.75 28.6628 294.112 28.6598ZM288.968 36.244C289.243 35.0754 289.896 34.0302 290.826 33.2706C291.744 32.5259 292.896 32.1308 294.078 32.1552C295.27 32.1309 296.433 32.5256 297.364 33.2706C298.3 34.022 298.949 35.0715 299.204 36.244H288.968Z" fill="#F2662B"/>
<path d="M197.061 30.7766C196.796 30.7766 196.538 30.8551 196.317 31.0022C196.097 31.1492 195.926 31.3583 195.825 31.6028C195.723 31.8474 195.697 32.1165 195.748 32.3761C195.8 32.6357 195.927 32.8742 196.115 33.0614C196.302 33.2486 196.54 33.376 196.8 33.4277C197.06 33.4793 197.329 33.4528 197.573 33.3515C197.818 33.2502 198.027 33.0787 198.174 32.8586C198.321 32.6385 198.399 32.3797 198.399 32.115C198.399 31.76 198.258 31.4196 198.007 31.1686C197.756 30.9176 197.416 30.7766 197.061 30.7766Z" fill="#F2662B"/>
<path d="M200.639 30.7766C200.375 30.7766 200.116 30.8551 199.896 31.0022C199.676 31.1492 199.504 31.3583 199.403 31.6028C199.302 31.8474 199.275 32.1165 199.327 32.3761C199.378 32.6357 199.506 32.8742 199.693 33.0614C199.88 33.2486 200.119 33.376 200.378 33.4277C200.638 33.4793 200.907 33.4528 201.152 33.3515C201.396 33.2502 201.605 33.0787 201.752 32.8586C201.899 32.6385 201.978 32.3797 201.978 32.115C201.978 31.76 201.837 31.4196 201.586 31.1686C201.335 30.9176 200.994 30.7766 200.639 30.7766Z" fill="#F2662B"/>
<path d="M241.665 56.9759C239.704 56.9437 237.795 56.3389 236.173 55.236C234.55 54.1331 233.286 52.5801 232.535 50.7681H229.43C230.255 53.3747 231.878 55.6564 234.07 57.2913C236.262 58.9261 238.911 59.8317 241.645 59.8802H241.754C244.508 59.8603 247.185 58.9675 249.4 57.3302C251.614 55.6928 253.252 53.3953 254.079 50.7681H250.973C250.227 52.6196 248.939 54.2028 247.279 55.3104C245.618 56.418 243.661 56.9985 241.665 56.9759Z" fill="#F2662B"/>
</g>
<defs>
<clipPath id="clip0_1_11873">
<rect width="303.333" height="59.0476" fill="white" transform="translate(0 0.98584)"/>
</clipPath>
</defs>
</svg>
