<svg width="295" height="70" viewBox="0 0 295 70" fill="none" xmlns="http://www.w3.org/2000/svg">
<path d="M48.9366 33.6397C48.9356 29.4428 47.8938 25.3144 45.9082 21.6397C43.9226 17.9649 41.0579 14.8635 37.5813 12.6246C34.1047 10.3857 30.1295 9.08227 26.0263 8.83585C21.9231 8.58943 17.8256 9.40805 14.1159 11.2154C10.4063 13.0227 7.2053 15.7599 4.81151 19.1716C2.41771 22.5833 0.909077 26.5585 0.426297 30.7264C-0.0564841 34.8943 0.502314 39.1191 2.05058 43.0069C3.59884 46.8947 6.08614 50.3189 9.28051 52.96V33.0046C9.28051 29.04 23.338 19.8539 24.6914 19.4871C26.0448 19.1204 31.8373 23.0851 33.3768 23.8968C34.9164 24.7085 41.6155 28.9505 40.722 30.158C39.8285 31.3655 37.4764 30.4219 35.6719 29.59C33.8674 28.7582 25.2235 23.9773 24.5906 24.2568C23.9577 24.5364 19.1157 28.5771 17.655 32.3517C16.1943 36.1263 19.1682 39.6639 23.2263 39.2077C27.2843 38.7515 31.4036 32.5798 33.0812 31.5288C35.4748 30.0596 37.0998 33.0941 37.0998 33.0941C30.1137 36.5914 30.797 44.9457 26.9251 46.6138C23.0533 48.282 20.9071 50.8446 20.9071 52.3987V58.1881C26.2464 59.0343 31.7095 58.0355 36.4296 55.3504L47.4233 58.0338L45.426 46.4931C47.7255 42.6171 48.9397 38.1714 48.9366 33.6397ZM36.6727 23.2618C36.5141 23.4528 36.2908 23.5758 36.0474 23.6065C35.8039 23.6372 35.5581 23.5732 35.3587 23.4272L29.7108 20.1982C31.0511 20.0462 34.9667 19.5274 36.6158 20.9049C37.621 21.73 37.1742 22.658 36.664 23.2618H36.6727Z" fill="#F2662B"/>
<path d="M165.134 23.1094L160.503 47.0004L156 46.5017L156.506 22.1523L165.134 23.1094Z" fill="#145A35"/>
<path d="M157.337 57.9962C159.624 57.9962 161.478 56.103 161.478 53.7676C161.478 51.4322 159.624 49.5391 157.337 49.5391C155.049 49.5391 153.195 51.4322 153.195 53.7676C153.195 56.103 155.049 57.9962 157.337 57.9962Z" fill="#F2662B"/>
<path d="M64.2215 53.7666C60.7774 53.7666 57.9012 52.6217 55.593 50.3319C53.2847 48.0421 52.1314 45.197 52.1328 41.7965C52.1328 38.3976 53.2862 35.5525 55.593 33.2612C57.8997 30.9699 60.7759 29.822 64.2215 29.8175C66.3369 29.789 68.4244 30.3132 70.2855 31.3403C72.056 32.3106 73.5374 33.7506 74.5735 35.5085L69.0088 38.9857C68.5448 38.1315 67.8639 37.4209 67.0378 36.9285C66.1883 36.4152 65.2172 36.1499 64.2302 36.1615C63.5025 36.1405 62.7783 36.2735 62.1033 36.5521C61.4283 36.8307 60.817 37.2489 60.308 37.7804C59.3037 38.8697 58.7444 40.3094 58.7444 41.8055C58.7444 43.3016 59.3037 44.7412 60.308 45.8305C60.817 46.362 61.4283 46.7803 62.1033 47.0589C62.7783 47.3375 63.5025 47.4705 64.2302 47.4495C65.2175 47.4588 66.1884 47.192 67.0378 46.678C67.8634 46.185 68.5442 45.4745 69.0088 44.6208L74.5822 48.0555C73.5518 49.8238 72.0695 51.2724 70.2943 52.246C68.4303 53.274 66.3397 53.7975 64.2215 53.7666Z" fill="#145A35"/>
<path d="M90.3481 30.1364C92.9176 30.2512 94.9536 31.1344 96.4559 32.7862C97.9582 34.438 98.6532 36.5757 98.5407 39.1995L97.9648 53.2067L91.5657 52.9204L92.0475 41.1226C92.1059 39.7361 91.7613 38.6106 91.0138 37.746C90.2663 36.8813 89.2443 36.4192 87.9478 36.3596C86.5638 36.297 85.425 36.6734 84.5315 37.4888C83.638 38.3043 83.162 39.4112 83.1036 40.8095L82.5715 53.2067L76.168 52.9204L77.5498 20.6641L83.9511 20.9525L83.4453 32.7795C85.3199 30.8952 87.6208 30.0141 90.3481 30.1364Z" fill="#145A35"/>
<path d="M140.316 32.0665C143.402 32.0665 145.974 33.2084 148.031 35.4922C150.088 37.7761 151.117 40.6249 151.119 44.0388C151.119 47.4511 150.09 50.3 148.031 52.5853C145.973 54.8707 143.401 56.0118 140.316 56.0088C137.615 56.0088 135.364 55.0682 133.564 53.1868V63.8219H127.156V32.6143H133.564V34.8907C135.364 33.0004 137.615 32.059 140.316 32.0665ZM135.13 48.0661C136.182 49.1047 137.589 49.6853 139.052 49.6853C140.516 49.6853 141.922 49.1047 142.974 48.0661C143.978 46.9762 144.536 45.5368 144.536 44.041C144.536 42.5452 143.978 41.1058 142.974 40.0159C141.922 38.9773 140.516 38.3968 139.052 38.3968C137.589 38.3968 136.182 38.9773 135.13 40.0159C134.126 41.1053 133.566 42.5449 133.566 44.041C133.566 45.5371 134.126 46.9767 135.13 48.0661Z" fill="#145A35"/>
<path d="M115.741 30.1596L116.311 42.9481C116.368 44.2316 116.036 45.2804 115.314 46.0944C114.593 46.9083 113.605 47.3458 112.349 47.407C111.092 47.4651 110.064 47.1222 109.266 46.3783C108.467 45.6344 108.042 44.6215 107.989 43.3394L107.413 30.5509L101.012 30.8506L101.638 44.5358C101.769 47.4517 102.842 49.7497 104.855 51.4298C106.87 53.1091 108.931 53.8739 112.115 53.7241C113.679 53.6503 116.013 52.5613 116.852 51.7339L116.996 53.5228L123.207 53.2277L122.769 43.5407L122.642 40.7209L122.152 29.8555L115.741 30.1596Z" fill="#145A35"/>
<path d="M171.89 34.953C172.667 34.1751 173.588 33.5629 174.6 33.1521C175.69 32.7137 176.854 32.4948 178.026 32.5075C179.198 32.4978 180.359 32.7411 181.433 33.2215C182.52 33.7201 183.498 34.4356 184.31 35.3258L186.93 32.7792C185.843 31.511 184.484 30.5172 182.958 29.8755C181.327 29.1987 179.58 28.8615 177.82 28.8839C176.134 28.8683 174.459 29.1737 172.883 29.7843C171.41 30.3543 170.065 31.2203 168.926 32.331C167.804 33.4306 166.916 34.7538 166.315 36.2184C165.072 39.3541 165.072 42.8607 166.315 45.9964C166.916 47.4679 167.806 48.7981 168.929 49.9048C170.053 51.0114 171.388 51.871 172.85 52.4305C174.432 53.0374 176.111 53.3374 177.801 53.315C179.574 53.3374 181.334 52.9905 182.972 52.2956C184.491 51.6443 185.845 50.6478 186.93 49.382L184.304 46.8354C183.499 47.7426 182.52 48.4711 181.427 48.9754C180.353 49.4542 179.192 49.6968 178.02 49.6875C176.848 49.7011 175.684 49.4822 174.594 49.0429C173.585 48.6369 172.666 48.0279 171.892 47.252C171.118 46.4762 170.505 45.5494 170.089 44.5267C169.224 42.3259 169.224 39.8691 170.089 37.6682C170.507 36.65 171.119 35.7269 171.89 34.953Z" fill="#F2662B"/>
<path d="M193.276 27.7891H189.418V52.9819H193.276V27.7891Z" fill="#F2662B"/>
<path d="M200.631 34.8867H196.773V52.983H200.631V34.8867Z" fill="#F2662B"/>
<path d="M217.983 35.5343C216.791 34.9487 215.481 34.6579 214.159 34.6854C212.742 34.6598 211.34 34.9793 210.068 35.6176C209.289 36.0188 208.599 36.5799 208.042 37.2657V34.8857H204.316V52.984H208.174V43.7494C208.174 42.5276 208.39 41.5036 208.823 40.6771C209.226 39.8805 209.858 39.2292 210.635 38.8108C211.457 38.3805 212.371 38.1645 213.294 38.1821C214.692 38.1821 215.772 38.5953 216.536 39.4217C217.3 40.2481 217.683 41.4758 217.684 43.1048V52.986H221.608V42.6288C221.608 40.82 221.284 39.3265 220.637 38.1483C220.032 37.0224 219.107 36.1107 217.983 35.5343Z" fill="#F2662B"/>
<path d="M228.572 34.8867H224.715V52.983H228.572V34.8867Z" fill="#F2662B"/>
<path d="M248.514 38.7924C247.865 37.4726 246.823 36.397 245.538 35.7201C244.243 35.0299 242.742 34.6848 241.034 34.6848C239.327 34.6583 237.641 35.0674 236.129 35.8748C234.722 36.6233 233.547 37.7581 232.737 39.1514C231.941 40.613 231.523 42.2578 231.523 43.9303C231.523 45.6028 231.941 47.2476 232.737 48.7092C233.542 50.1103 234.718 51.2514 236.129 52.0016C237.641 52.8101 239.327 53.2192 241.034 53.1917C242.739 53.1917 244.24 52.8413 245.538 52.1405C246.815 51.459 247.854 50.3915 248.514 49.0841L245.555 47.2515C245.064 48.0511 244.376 48.706 243.561 49.1515C242.768 49.5635 241.888 49.7732 240.999 49.7624C240.007 49.7757 239.029 49.5307 238.157 49.0504C237.312 48.5848 236.614 47.8839 236.144 47.0293C235.637 46.0778 235.385 45.0063 235.414 43.9234C235.384 42.8454 235.636 41.7787 236.144 40.8333C236.619 39.9868 237.316 39.2929 238.157 38.8301C239.029 38.3498 240.007 38.1047 240.999 38.118C241.89 38.1078 242.77 38.3232 243.561 38.7448C244.374 39.2016 245.061 39.8623 245.555 40.6647L248.514 38.7924Z" fill="#F2662B"/>
<path d="M241.886 47.8518V44.8291H244.846V43.05H241.886V40.0273H240.146V43.05H237.184V44.8291H240.146V47.8518H241.886Z" fill="#F2662B"/>
<path d="M241.012 27.7623L246.935 33.4982H251.212L241.012 23.625L235.981 28.4962V26.2887H233.971V30.4419L230.812 33.4982H235.088L241.012 27.7623Z" fill="#F2662B"/>
<path d="M198.708 32.3753C200.028 32.3753 201.099 31.2821 201.099 29.9337C201.099 28.5853 200.028 27.4922 198.708 27.4922C197.387 27.4922 196.316 28.5853 196.316 29.9337C196.316 31.2821 197.387 32.3753 198.708 32.3753Z" fill="#F2662B"/>
<path d="M226.645 32.3753C227.966 32.3753 229.036 31.2821 229.036 29.9337C229.036 28.5853 227.966 27.4922 226.645 27.4922C225.324 27.4922 224.254 28.5853 224.254 29.9337C224.254 31.2821 225.324 32.3753 226.645 32.3753Z" fill="#F2662B"/>
</svg>
