<svg width="155" height="68" viewBox="0 0 155 68" fill="none" xmlns="http://www.w3.org/2000/svg">
<path d="M44.4489 22.2239C44.4477 18.4697 43.4961 14.777 41.6828 11.4901C39.8695 8.2032 37.2536 5.42916 34.0791 3.42668C30.9045 1.42419 27.2747 0.258495 23.5281 0.0382833C19.7815 -0.181928 16.0402 0.55052 12.653 2.16733C9.26588 3.78413 6.34321 6.23263 4.15757 9.2845C1.97193 12.3364 0.594522 15.8922 0.153785 19.6204C-0.286951 23.3485 0.223343 27.1277 1.63708 30.6053C3.05082 34.0829 5.32195 37.1458 8.23869 39.5083V21.6578C8.23869 18.1093 21.0766 9.89419 22.3124 9.56415C23.5482 9.2341 28.8374 12.7826 30.2432 13.5087C31.6489 14.2348 37.766 18.0313 36.9501 19.1095C36.1342 20.1876 33.9826 19.3475 32.3388 18.6114C30.6951 17.8753 22.7984 13.5907 22.2205 13.8387C21.6425 14.0868 17.2213 17.7033 15.8875 21.0817C14.5537 24.4602 17.2692 27.6206 20.9747 27.2126C24.6801 26.8045 28.4415 21.2858 29.9732 20.3456C32.1609 19.0294 33.6446 21.7458 33.6446 21.7458C27.2656 24.8742 27.8895 32.3473 24.3541 33.8395C20.8187 35.3317 18.853 37.616 18.853 39.0082V44.1889C23.7298 44.9421 28.7185 44.0482 33.0307 41.6485L43.0691 44.0489L41.2494 33.7275C43.349 30.2584 44.4558 26.2792 44.4489 22.2239ZM33.2507 12.9426C33.1053 13.1128 32.9014 13.2222 32.6792 13.2492C32.4571 13.2763 32.2328 13.2189 32.0509 13.0886L26.9017 10.1902C28.1255 10.0542 31.7009 9.59015 33.2067 10.8223C34.1186 11.5704 33.7106 12.3985 33.2507 12.9426Z" fill="#F2662B"/>
<path d="M154.807 3.43914L150.345 25.9827L146.007 25.5101L146.492 2.53613L154.807 3.43914Z" fill="#145A35"/>
<path d="M146.374 36.6015C148.577 36.6015 150.363 34.8152 150.363 32.6118C150.363 30.4083 148.577 28.6221 146.374 28.6221C144.17 28.6221 142.384 30.4083 142.384 32.6118C142.384 34.8152 144.17 36.6015 146.374 36.6015Z" fill="#F2662B"/>
<path d="M59.291 32.1916C55.9715 32.1916 53.2006 31.1107 50.9782 28.9488C48.7559 26.7869 47.644 24.1025 47.6426 20.8955C47.6426 17.6886 48.7545 15.0042 50.9782 12.8423C53.202 10.6804 55.9729 9.60018 59.291 9.60159C61.3287 9.57522 63.3394 10.069 65.1331 11.0363C66.8382 11.9526 68.2652 13.311 69.2642 14.969L63.8946 18.2329C63.4477 17.427 62.7917 16.7565 61.9958 16.2919C61.177 15.8085 60.2417 15.5583 59.291 15.5682C58.5894 15.549 57.8914 15.675 57.2408 15.9382C56.5902 16.2014 56.001 16.5962 55.5102 17.0978C54.5431 18.1259 54.0046 19.4841 54.0046 20.8955C54.0046 22.307 54.5431 23.6652 55.5102 24.6932C56.0011 25.1946 56.5904 25.589 57.241 25.8519C57.8916 26.1148 58.5895 26.2403 59.291 26.2208C60.2415 26.2314 61.1769 25.9819 61.9958 25.4992C62.7917 25.0346 63.4477 24.3641 63.8946 23.5581L69.2642 26.801C68.2703 28.4684 66.8425 29.8349 65.1331 30.7548C63.3396 31.7228 61.3289 32.2173 59.291 32.1916Z" fill="#145A35"/>
<path d="M84.1421 10.5681C86.6176 10.6778 88.5791 11.5119 90.0264 13.0704C91.4738 14.6289 92.1433 16.6459 92.035 19.1214L91.478 32.3353L85.311 32.0589L85.7751 20.9274C85.8314 19.6221 85.4987 18.5602 84.7772 17.7416C84.0556 16.9229 83.071 16.4876 81.8234 16.4356C80.49 16.3765 79.3929 16.7281 78.5321 17.4905C77.6712 18.2528 77.212 19.3021 77.1543 20.6384L76.6437 32.3353L70.4683 32.0589L71.8017 1.63086L77.9687 1.90092L77.4814 13.0704C79.293 11.2883 81.5132 10.4542 84.1421 10.5681Z" fill="#145A35"/>
<path d="M130.969 11.9561C133.941 11.9561 136.418 13.0328 138.402 15.1862C140.385 17.3397 141.377 20.0276 141.377 23.25C141.377 26.471 140.385 29.159 138.402 31.3138C136.418 33.4686 133.941 34.5461 130.969 34.5461C128.368 34.5461 126.2 33.6578 124.464 31.8813V41.9157H118.291V12.4709H124.464V14.6187C126.198 12.8422 128.367 11.9546 130.969 11.9561ZM125.971 27.0498C126.985 28.0299 128.34 28.5777 129.75 28.5777C131.161 28.5777 132.516 28.0299 133.53 27.0498C134.497 26.0216 135.035 24.6634 135.035 23.2521C135.035 21.8408 134.497 20.4827 133.53 19.4544C132.516 18.4743 131.161 17.9265 129.75 17.9265C128.34 17.9265 126.985 18.4743 125.971 19.4544C125.004 20.4827 124.466 21.8408 124.466 23.2521C124.466 24.6634 125.004 26.0216 125.971 27.0498Z" fill="#145A35"/>
<path d="M107.485 9.87275L108.04 21.941C108.095 23.1492 107.775 24.1388 107.08 24.9096C106.385 25.6803 105.433 26.0925 104.223 26.1459C103.012 26.2036 102.022 25.8808 101.253 25.1775C100.483 24.4742 100.071 23.5178 100.016 22.3081L99.4614 10.2335L93.2922 10.5163L93.8872 23.4284C94.0138 26.1797 95.0469 28.3479 96.9866 29.9331C98.9255 31.5176 100.913 32.2391 103.979 32.0999C105.485 32.0303 107.736 31.0028 108.544 30.22L108.683 31.9079L114.667 31.6273L114.245 22.4896L114.123 19.8291L113.652 9.60059L107.485 9.87275Z" fill="#145A35"/>
<path d="M96.1869 44.4697H99.9613L94.2538 60.3598H90.6483L86.8739 48.6404L83.0682 60.3598H79.4418L73.751 44.4697H77.6464L81.3436 55.9619L85.118 44.4697H88.6798L92.4709 55.9911L96.1869 44.4697Z" fill="#F2662B"/>
<path d="M62.6271 44.9072H59.7244V47.81H62.6271V44.9072Z" fill="#F2662B"/>
<path d="M62.6271 51.6123H59.7244V54.5151H62.6271V51.6123Z" fill="#F2662B"/>
<path d="M62.6271 58.3193H59.7244V61.2221H62.6271V58.3193Z" fill="#F2662B"/>
<path d="M111.523 60.7417C109.099 60.7417 107.075 59.9451 105.451 58.3519C103.827 56.7587 103.015 54.7797 103.015 52.415C103.015 50.0516 103.827 48.0734 105.451 46.4802C107.075 44.887 109.099 44.0904 111.523 44.0904C113.036 44.0733 114.528 44.4483 115.852 45.1789C117.129 45.879 118.19 46.9163 118.918 48.1776C119.646 49.4714 120.029 50.9312 120.029 52.416C120.029 53.9009 119.646 55.3607 118.918 56.6544C118.19 57.9163 117.129 58.9531 115.85 59.651C114.526 60.3821 113.036 60.7578 111.523 60.7417ZM108.007 55.9454C108.465 56.4109 109.013 56.7774 109.617 57.0221C110.222 57.2668 110.871 57.3844 111.523 57.3676C112.172 57.3856 112.818 57.2685 113.419 57.0236C114.02 56.7788 114.564 56.4116 115.016 55.9454C115.91 54.9868 116.407 53.7248 116.407 52.414C116.407 51.1031 115.91 49.8411 115.016 48.8825C114.564 48.4163 114.02 48.0491 113.419 47.8043C112.818 47.5594 112.172 47.4423 111.523 47.4603C110.87 47.444 110.221 47.5626 109.616 47.8088C109.011 48.0549 108.463 48.4233 108.007 48.8908C107.098 49.8402 106.591 51.1038 106.591 52.4181C106.591 53.7324 107.098 54.996 108.007 55.9454Z" fill="#F2662B"/>
<path d="M134.107 44.2109H134.699V47.8039H134.107C132.563 47.8039 131.353 48.2377 130.476 49.1052C129.599 49.9727 129.159 51.1467 129.158 52.6273V60.3596H125.659V44.4695H129.158V46.7988C130.429 45.075 132.078 44.2123 134.107 44.2109Z" fill="#F2662B"/>
<path d="M149.989 60.3596L144.936 54.4998L143.268 56.312V60.3596H139.771V37.9111H143.272V51.6388L149.847 44.4695H154.397L147.411 51.8828L154.61 60.3596H149.989Z" fill="#F2662B"/>
<path d="M69.0104 44.9072H66.1077V47.81H69.0104V44.9072Z" fill="#F2662B"/>
<path d="M69.0104 51.6123H66.1077V54.5151H69.0104V51.6123Z" fill="#F2662B"/>
<path d="M74.4335 51.6123H71.5308V54.5151H74.4335V51.6123Z" fill="#F2662B"/>
<path d="M69.0104 58.3193H66.1077V61.2221H69.0104V58.3193Z" fill="#F2662B"/>
<path d="M74.4335 58.3193H71.5308V61.2221H74.4335V58.3193Z" fill="#F2662B"/>
<path d="M79.4157 37.7217H74.6487V40.3137H79.4157C79.4741 40.3137 79.5319 40.3253 79.5859 40.3478C79.6398 40.3703 79.6887 40.4032 79.7298 40.4447C79.7709 40.4862 79.8034 40.5354 79.8254 40.5895C79.8473 40.6436 79.8584 40.7016 79.8578 40.76V44.4719H82.4478V40.76C82.4467 39.9556 82.1271 39.1844 81.5589 38.615C80.9907 38.0456 80.2201 37.7244 79.4157 37.7217Z" fill="#F2662B"/>
<path d="M79.8577 64.8499C79.8571 64.9375 79.8219 65.0213 79.7598 65.083C79.6977 65.1447 79.6137 65.1794 79.5261 65.1794H56.9004C56.8567 65.1799 56.8133 65.1718 56.7727 65.1556C56.7321 65.1393 56.6952 65.1151 56.664 65.0845C56.6328 65.0539 56.6079 65.0174 56.5909 64.9771C56.5739 64.9369 56.5649 64.8936 56.5647 64.8499V40.6602C56.5644 40.6161 56.5729 40.5723 56.5897 40.5314C56.6064 40.4906 56.6312 40.4534 56.6624 40.4222C56.6936 40.391 56.7307 40.3663 56.7716 40.3495C56.8125 40.3327 56.8562 40.3242 56.9004 40.3245H63.4879V41.1586C63.4879 41.4291 63.5954 41.6884 63.7866 41.8797C63.9778 42.0709 64.2372 42.1783 64.5076 42.1783C64.7781 42.1783 65.0375 42.0709 65.2287 41.8797C65.4199 41.6884 65.5274 41.4291 65.5274 41.1586V40.3245V37.722V36.8879C65.5274 36.6174 65.4199 36.3581 65.2287 36.1668C65.0375 35.9756 64.7781 35.8682 64.5076 35.8682C64.2372 35.8682 63.9778 35.9756 63.7866 36.1668C63.5954 36.3581 63.4879 36.6174 63.4879 36.8879V37.722H56.9004C56.1273 37.7258 55.387 38.0347 54.8403 38.5813C54.2936 39.128 53.9848 39.8684 53.981 40.6415V64.8311C53.981 65.6054 54.2885 66.348 54.836 66.8955C55.3835 67.443 56.1261 67.7506 56.9004 67.7506H79.5261C80.3004 67.7506 81.043 67.443 81.5905 66.8955C82.138 66.348 82.4455 65.6054 82.4455 64.8311V61.9471H79.8577V64.8499Z" fill="#F2662B"/>
<path d="M67.6524 41.1488C67.6462 41.2865 67.6679 41.424 67.7163 41.553C67.7647 41.682 67.8387 41.7999 67.9339 41.8995C68.0292 41.9991 68.1436 42.0784 68.2703 42.1326C68.397 42.1867 68.5333 42.2147 68.6711 42.2147C68.8089 42.2147 68.9453 42.1867 69.072 42.1326C69.1987 42.0784 69.3131 41.9991 69.4083 41.8995C69.5035 41.7999 69.5775 41.682 69.6259 41.553C69.6743 41.424 69.696 41.2865 69.6898 41.1488V36.8906C69.6779 36.6284 69.5654 36.3809 69.3757 36.1995C69.1859 36.0182 68.9336 35.917 68.6711 35.917C68.4086 35.917 68.1563 36.0182 67.9666 36.1995C67.7768 36.3809 67.6643 36.6284 67.6524 36.8906V37.7247H66.3262V40.3168H67.6524V41.1488Z" fill="#F2662B"/>
<path d="M71.8138 41.1471C71.8138 41.4175 71.9213 41.6769 72.1125 41.8681C72.3037 42.0594 72.5631 42.1668 72.8336 42.1668C73.104 42.1668 73.3634 42.0594 73.5546 41.8681C73.7458 41.6769 73.8533 41.4175 73.8533 41.1471V36.8889C73.8533 36.6184 73.7458 36.359 73.5546 36.1678C73.3634 35.9766 73.104 35.8691 72.8336 35.8691C72.5631 35.8691 72.3037 35.9766 72.1125 36.1678C71.9213 36.359 71.8138 36.6184 71.8138 36.8889V37.723H70.4834V40.315H71.8138V41.1471Z" fill="#F2662B"/>
</svg>
