<svg width="180" height="46" viewBox="0 0 180 46" fill="none" xmlns="http://www.w3.org/2000/svg">
<g clip-path="url(#clip0_1_11899)">
<path d="M24.6722 3.40283L14.5149 21.8154L4.35756 3.40283H0V34.9666H5.14436V15.8111L12.5997 29.2234H16.4378L23.8854 15.8111V34.9666H29.0298V3.40283H24.6722Z" fill="white"/>
<path d="M48.1017 13.046L42.1303 28.4805L35.8513 13.046H30.2695L39.2907 34.9667L38.422 36.9811C37.4157 39.2567 36.0198 40.0478 33.9763 40.0478C33.5389 40.0478 33.1493 40.0074 32.7598 40.0074V44.9999C33.409 45.0403 34.1062 45.0403 34.7631 45.0403C38.8115 45.0403 41.781 43.0741 43.4365 38.9054L53.6757 13.0444H48.1017V13.046Z" fill="white"/>
<path d="M79.5784 3.40283L69.4288 21.8154L59.2699 3.40283H54.9124V34.9666H60.0567V15.8111L67.5043 29.2234H71.3425L78.7978 15.8111V34.9666H83.9421V3.40283H79.5768H79.5784Z" fill="white"/>
<path d="M107.434 23.7042C107.434 17.1698 103.199 12.6172 97.0078 12.6172C90.8169 12.6172 85.8921 17.5693 85.8921 24.0135C85.8921 30.4578 90.9066 35.4021 97.4947 35.4021C101.064 35.4021 104.115 34.1369 106.208 31.8132L102.939 28.5258C101.633 29.9697 99.6294 30.7205 97.5349 30.7205C94.3058 30.7205 91.8634 29.048 90.9963 26.331H107.215C107.295 25.4575 107.434 24.5358 107.434 23.7042ZM90.9081 22.3007C91.3456 19.2744 93.9178 17.2584 96.9274 17.2584C99.9371 17.2584 102.152 19.192 102.591 22.3007H90.9081Z" fill="white"/>
<path d="M121.072 12.6121C118.5 12.6121 116.147 13.7048 114.533 15.4192V13.0457H109.389V34.9664H114.533V23.1287C114.533 19.6703 116.846 17.4756 119.807 17.4756C122.549 17.4756 124.472 19.1884 124.472 22.8675V34.9664H129.617V21.7748C129.617 16.2026 126.128 12.6136 121.073 12.6136L121.072 12.6121Z" fill="white"/>
<path d="M141.289 18.2173V13.0445H137.946V7.17065H132.801V11.1606C132.801 12.3031 132.014 13.0445 130.878 13.0445H129.612V18.2173H132.8V27.5992C132.8 33.1218 134.893 35.3989 139.858 35.3989C141.034 35.3989 142.47 35.2279 143.476 34.9667V30.0551C142.39 30.2758 141.513 30.4063 140.556 30.4063C138.463 30.4063 137.944 29.5328 137.944 26.0667V18.2188H141.288L141.289 18.2173Z" fill="white"/>
<path d="M174.855 2.08984V34.967H179.999V2.08984H174.855Z" fill="white"/>
<path d="M94.7896 11.7123C94.7896 11.7123 97.1547 6.6436 91.4167 3.76654C88.1953 2.15159 87.3729 0.98584 87.3729 0.98584C87.3729 0.98584 84.841 10.8698 94.0059 12.3278C94.0059 12.3278 91.4167 9.58751 89.6777 5.71256C89.6777 5.71256 91.9747 7.95546 94.7896 11.7123Z" fill="#03A987"/>
<path d="M96.0054 11.5964C96.0054 11.5964 94.4179 8.19704 98.2684 6.26656C100.429 5.1832 100.981 4.40137 100.981 4.40137C100.981 4.40137 102.68 11.0321 96.5325 12.0098C96.5325 12.0098 98.27 10.171 99.437 7.5722C99.437 7.5722 97.8959 9.07679 96.0069 11.5964H96.0054Z" fill="#03A987"/>
<path d="M167.68 20.7132C166.349 15.9088 161.968 12.3914 156.768 12.3914C154.658 12.3914 152.687 12.9711 150.999 13.9814C150.959 13.9985 150.917 14.0219 150.869 14.0545C150.724 14.1446 150.577 14.2332 150.432 14.3312C149.231 15.1145 148.209 16.142 147.405 17.3497C147.292 17.5206 147.178 17.701 147.073 17.8797C146.983 18.0351 146.895 18.189 146.805 18.3522C146.748 18.4579 146.693 18.5636 146.643 18.6709C146.578 18.8014 146.513 18.9398 146.456 19.0703C145.799 20.5065 145.434 22.1044 145.434 23.7862V23.8996C145.498 30.019 150.361 34.9727 156.409 35.1639C155.885 31.8609 154.333 26.3477 149.776 20.6309C149.891 20.7272 153.557 23.8468 156.672 23.8468C159.787 23.8468 163.571 20.6278 163.571 20.6278C159.008 26.3524 157.457 31.8718 156.933 35.1747C157.525 35.1654 158.105 35.1157 158.669 35.0193C160.235 34.7582 161.687 34.1706 162.962 33.3313V34.9633H168.106V23.7862C168.106 22.7168 167.959 21.6894 167.684 20.7101L167.68 20.7132ZM156.671 22.4557C155.388 22.4557 154.347 21.4096 154.347 20.1195C154.347 18.8294 155.388 17.7833 156.671 17.7833C157.954 17.7833 158.994 18.8294 158.994 20.1195C158.994 21.4096 157.954 22.4557 156.671 22.4557Z" fill="white"/>
<path d="M171.945 20.342C170.158 13.2387 164.041 7.98193 156.768 7.98193C149.495 7.98193 143.379 13.2387 141.592 20.342H139.785V27.5074H143.479V24.6024H143.482C143.482 16.7872 149.441 10.4285 156.767 10.4285C164.092 10.4285 170.051 16.7872 170.051 24.6024H170.053V27.5074H173.747V20.342H171.943H171.945Z" fill="#03A987"/>
</g>
<defs>
<clipPath id="clip0_1_11899">
<rect width="180" height="45" fill="white" transform="translate(0 0.98584)"/>
</clipPath>
</defs>
</svg>
