<svg width="20" height="21" viewBox="0 0 20 21" fill="none" xmlns="http://www.w3.org/2000/svg">
<path d="M10.001 0.875C15.524 0.875 20.001 5.352 20.001 10.875C20.001 16.398 15.524 20.875 10.001 20.875C8.23377 20.8779 6.49765 20.4102 4.97099 19.52L0.00499063 20.875L1.35699 15.907C0.466084 14.3799 -0.00196181 12.643 0.000990443 10.875C0.000990443 5.352 4.47799 0.875 10.001 0.875ZM6.59299 6.175L6.39299 6.183C6.26351 6.19089 6.13697 6.2249 6.02099 6.283C5.91251 6.34443 5.81349 6.42122 5.72699 6.511C5.60699 6.624 5.53899 6.722 5.46599 6.817C5.09611 7.2979 4.89696 7.88831 4.89999 8.495C4.90199 8.985 5.02999 9.462 5.22999 9.908C5.63899 10.81 6.31199 11.765 7.19999 12.65C7.41399 12.863 7.62399 13.077 7.84999 13.276C8.95338 14.2475 10.2682 14.948 11.69 15.322L12.258 15.409C12.443 15.419 12.628 15.405 12.814 15.396C13.1052 15.381 13.3896 15.3021 13.647 15.165C13.7779 15.0975 13.9057 15.0241 14.03 14.945C14.03 14.945 14.073 14.917 14.155 14.855C14.29 14.755 14.373 14.684 14.485 14.567C14.568 14.481 14.64 14.38 14.695 14.265C14.773 14.102 14.851 13.791 14.883 13.532C14.907 13.334 14.9 13.226 14.897 13.159C14.893 13.052 14.804 12.941 14.707 12.894L14.125 12.633C14.125 12.633 13.255 12.254 12.723 12.012C12.6673 11.9877 12.6077 11.9738 12.547 11.971C12.4786 11.964 12.4094 11.9717 12.3442 11.9936C12.279 12.0155 12.2193 12.0511 12.169 12.098C12.164 12.096 12.097 12.153 11.374 13.029C11.3325 13.0848 11.2753 13.1269 11.2098 13.1501C11.1443 13.1732 11.0733 13.1763 11.006 13.159C10.9408 13.1415 10.877 13.1195 10.815 13.093C10.691 13.041 10.648 13.021 10.563 12.985C9.98906 12.7345 9.45768 12.3961 8.98799 11.982C8.86199 11.872 8.74499 11.752 8.62499 11.636C8.23158 11.2592 7.88871 10.833 7.60499 10.368L7.54599 10.273C7.50361 10.2092 7.46935 10.1403 7.44399 10.068C7.40599 9.921 7.50499 9.803 7.50499 9.803C7.50499 9.803 7.74799 9.537 7.86099 9.393C7.97099 9.253 8.06399 9.117 8.12399 9.02C8.24199 8.83 8.27899 8.635 8.21699 8.484C7.93699 7.8 7.64699 7.119 7.34899 6.443C7.28999 6.309 7.11499 6.213 6.95599 6.194C6.90199 6.188 6.84799 6.182 6.79399 6.178C6.6597 6.17133 6.52513 6.17266 6.39099 6.182L6.59199 6.174L6.59299 6.175Z" fill="white"/>
</svg>
